<svg xmlns="http://www.w3.org/2000/svg" xmlns:xlink="http://www.w3.org/1999/xlink" xmlns:s="https://github.com/nturley/netlistsvg" width="565" height="341.5"><style>svg {
  stroke:#000;
  fill:none;
}
text {
  fill:#000;
  stroke:none;
  font-size:10px;
  font-weight: bold;
  font-family: "Courier New", monospace;
}
line {
    stroke-linecap: round;
}
.nodelabel {
  text-anchor: middle;
}
.inputPortLabel {
  text-anchor: end;
}
.splitjoinBody {
  fill:#000;
}</style><g s:type="and" transform="translate(143,77)" s:width="30" s:height="25" id="cell_$and$gf180mcu_fd_sc_mcu7t5v0__sdffrsnq.v:36$1"><s:alias val="$and"/><s:alias val="$logic_and"/><s:alias val="$_AND_"/><s:alias val="$reduce_and"/><path d="M0,0 L0,25 L15,25 A15 12.5 0 0 0 15,0 Z" class="cell_$and$gf180mcu_fd_sc_mcu7t5v0__sdffrsnq.v:36$1"/><g s:x="0" s:y="5" s:pid="A"/><g s:x="0" s:y="20" s:pid="B"/><g s:x="30" s:y="12.5" s:pid="Y"/></g><g s:type="and" transform="translate(143,137)" s:width="30" s:height="25" id="cell_$and$gf180mcu_fd_sc_mcu7t5v0__sdffrsnq.v:44$2"><s:alias val="$and"/><s:alias val="$logic_and"/><s:alias val="$_AND_"/><s:alias val="$reduce_and"/><path d="M0,0 L0,25 L15,25 A15 12.5 0 0 0 15,0 Z" class="cell_$and$gf180mcu_fd_sc_mcu7t5v0__sdffrsnq.v:44$2"/><g s:x="0" s:y="5" s:pid="A"/><g s:x="0" s:y="20" s:pid="B"/><g s:x="30" s:y="12.5" s:pid="Y"/></g><g s:type="and" transform="translate(208,189.5)" s:width="30" s:height="25" id="cell_$and$gf180mcu_fd_sc_mcu7t5v0__sdffrsnq.v:48$3"><s:alias val="$and"/><s:alias val="$logic_and"/><s:alias val="$_AND_"/><s:alias val="$reduce_and"/><path d="M0,0 L0,25 L15,25 A15 12.5 0 0 0 15,0 Z" class="cell_$and$gf180mcu_fd_sc_mcu7t5v0__sdffrsnq.v:48$3"/><g s:x="0" s:y="5" s:pid="A"/><g s:x="0" s:y="20" s:pid="B"/><g s:x="30" s:y="12.5" s:pid="Y"/></g><g s:type="not" transform="translate(78,179.5)" s:width="30" s:height="20" id="cell_$not$gf180mcu_fd_sc_mcu7t5v0__sdffrsnq.v:0$10"><s:alias val="$_NOT_"/><s:alias val="$not"/><s:alias val="$logic_not"/><path d="M0,0 L0,20 L20,10 Z" class="cell_$not$gf180mcu_fd_sc_mcu7t5v0__sdffrsnq.v:0$10"/><circle cx="24" cy="10" r="3" class="cell_$not$gf180mcu_fd_sc_mcu7t5v0__sdffrsnq.v:0$10"/><g s:x="-1" s:y="10" s:pid="A"/><g s:x="27" s:y="10" s:pid="Y"/></g><g s:type="not" transform="translate(458,227)" s:width="30" s:height="20" id="cell_$not$gf180mcu_fd_sc_mcu7t5v0__sdffrsnq.v:0$11"><s:alias val="$_NOT_"/><s:alias val="$not"/><s:alias val="$logic_not"/><path d="M0,0 L0,20 L20,10 Z" class="cell_$not$gf180mcu_fd_sc_mcu7t5v0__sdffrsnq.v:0$11"/><circle cx="24" cy="10" r="3" class="cell_$not$gf180mcu_fd_sc_mcu7t5v0__sdffrsnq.v:0$11"/><g s:x="-1" s:y="10" s:pid="A"/><g s:x="27" s:y="10" s:pid="Y"/></g><g s:type="not" transform="translate(282,307)" s:width="30" s:height="20" id="cell_$not$gf180mcu_fd_sc_mcu7t5v0__sdffrsnq.v:0$6"><s:alias val="$_NOT_"/><s:alias val="$not"/><s:alias val="$logic_not"/><path d="M0,0 L0,20 L20,10 Z" class="cell_$not$gf180mcu_fd_sc_mcu7t5v0__sdffrsnq.v:0$6"/><circle cx="24" cy="10" r="3" class="cell_$not$gf180mcu_fd_sc_mcu7t5v0__sdffrsnq.v:0$6"/><g s:x="-1" s:y="10" s:pid="A"/><g s:x="27" s:y="10" s:pid="Y"/></g><g s:type="not" transform="translate(282,62)" s:width="30" s:height="20" id="cell_$not$gf180mcu_fd_sc_mcu7t5v0__sdffrsnq.v:0$7"><s:alias val="$_NOT_"/><s:alias val="$not"/><s:alias val="$logic_not"/><path d="M0,0 L0,20 L20,10 Z" class="cell_$not$gf180mcu_fd_sc_mcu7t5v0__sdffrsnq.v:0$7"/><circle cx="24" cy="10" r="3" class="cell_$not$gf180mcu_fd_sc_mcu7t5v0__sdffrsnq.v:0$7"/><g s:x="-1" s:y="10" s:pid="A"/><g s:x="27" s:y="10" s:pid="Y"/></g><g s:type="not" transform="translate(78,22)" s:width="30" s:height="20" id="cell_$not$gf180mcu_fd_sc_mcu7t5v0__sdffrsnq.v:0$8"><s:alias val="$_NOT_"/><s:alias val="$not"/><s:alias val="$logic_not"/><path d="M0,0 L0,20 L20,10 Z" class="cell_$not$gf180mcu_fd_sc_mcu7t5v0__sdffrsnq.v:0$8"/><circle cx="24" cy="10" r="3" class="cell_$not$gf180mcu_fd_sc_mcu7t5v0__sdffrsnq.v:0$8"/><g s:x="-1" s:y="10" s:pid="A"/><g s:x="27" s:y="10" s:pid="Y"/></g><g s:type="not" transform="translate(78,87)" s:width="30" s:height="20" id="cell_$not$gf180mcu_fd_sc_mcu7t5v0__sdffrsnq.v:0$9"><s:alias val="$_NOT_"/><s:alias val="$not"/><s:alias val="$logic_not"/><path d="M0,0 L0,20 L20,10 Z" class="cell_$not$gf180mcu_fd_sc_mcu7t5v0__sdffrsnq.v:0$9"/><circle cx="24" cy="10" r="3" class="cell_$not$gf180mcu_fd_sc_mcu7t5v0__sdffrsnq.v:0$9"/><g s:x="-1" s:y="10" s:pid="A"/><g s:x="27" s:y="10" s:pid="Y"/></g><g s:type="or" transform="translate(208,129.5)" s:width="30" s:height="25" id="cell_$or$gf180mcu_fd_sc_mcu7t5v0__sdffrsnq.v:50$4"><s:alias val="$or"/><s:alias val="$logic_or"/><s:alias val="$_OR_"/><s:alias val="$reduce_or"/><s:alias val="$reduce_bool"/><path d="M0,0 A30 25 0 0 1 0,25 A30 25 0 0 0 30,12.5 A30 25 0 0 0 0,0" class="cell_$or$gf180mcu_fd_sc_mcu7t5v0__sdffrsnq.v:50$4"/><g s:x="2" s:y="5" s:pid="A"/><g s:x="2" s:y="20" s:pid="B"/><g s:x="30" s:y="12.5" s:pid="Y"/></g><g s:type="or" transform="translate(279.3333333333333,182)" s:width="30" s:height="25" id="cell_$or$gf180mcu_fd_sc_mcu7t5v0__sdffrsnq.v:50$5"><s:alias val="$or"/><s:alias val="$logic_or"/><s:alias val="$_OR_"/><s:alias val="$reduce_or"/><s:alias val="$reduce_bool"/><path d="M0,0 A30 25 0 0 1 0,25 A30 25 0 0 0 30,12.5 A30 25 0 0 0 0,0" class="cell_$or$gf180mcu_fd_sc_mcu7t5v0__sdffrsnq.v:50$5"/><g s:x="2" s:y="5" s:pid="A"/><g s:x="2" s:y="20" s:pid="B"/><g s:x="30" s:y="12.5" s:pid="Y"/></g><g s:type="generic" transform="translate(384,226.5)" s:width="30" s:height="40" id="cell_x0"><text x="15" y="-4" class="nodelabel cell_x0" s:attribute="ref">udp_gf180mcu_fd_sc_mcu7t5v0_tt_25c_1v80_verilog_mgm_hn_iq_ff_udp</text><rect width="30" height="100" s:generic="body" class="cell_x0"/><g transform="translate(0,10)" s:x="0" s:y="10" s:pid="in0" id="port_x0~C"><text x="-3" y="-4" class="inputPortLabel cell_x0">C</text></g><g transform="translate(0,30)" s:x="0" s:y="10" s:pid="in0" id="port_x0~CK"><text x="-3" y="-4" class="inputPortLabel cell_x0">CK</text></g><g transform="translate(0,50)" s:x="0" s:y="10" s:pid="in0" id="port_x0~D"><text x="-3" y="-4" class="inputPortLabel cell_x0">D</text></g><g transform="translate(0,70)" s:x="0" s:y="10" s:pid="in0" id="port_x0~N"><text x="-3" y="-4" class="inputPortLabel cell_x0">N</text></g><g transform="translate(0,90)" s:x="0" s:y="10" s:pid="in0" id="port_x0~P"><text x="-3" y="-4" class="inputPortLabel cell_x0">P</text></g><g transform="translate(30,10)" s:x="30" s:y="10" s:pid="out0" id="port_x0~Q"><text x="5" y="-4" style="fill:#000; stroke:none" class="cell_x0">Q</text></g></g><g s:type="inputExt" transform="translate(12,87)" s:width="30" s:height="20" id="cell_SE"><text x="15" y="-4" class="nodelabel cell_SE" s:attribute="ref">SE</text><s:alias val="$_inputExt_"/><path d="M0,0 L0,20 L15,20 L30,10 L15,0 Z" class="cell_SE"/><g s:x="30" s:y="10" s:pid="Y"/></g><g s:type="inputExt" transform="translate(12,179.5)" s:width="30" s:height="20" id="cell_SI"><text x="15" y="-4" class="nodelabel cell_SI" s:attribute="ref">SI</text><s:alias val="$_inputExt_"/><path d="M0,0 L0,20 L15,20 L30,10 L15,0 Z" class="cell_SI"/><g s:x="30" s:y="10" s:pid="Y"/></g><g s:type="inputExt" transform="translate(12,22)" s:width="30" s:height="20" id="cell_D"><text x="15" y="-4" class="nodelabel cell_D" s:attribute="ref">D</text><s:alias val="$_inputExt_"/><path d="M0,0 L0,20 L15,20 L30,10 L15,0 Z" class="cell_D"/><g s:x="30" s:y="10" s:pid="Y"/></g><g s:type="inputExt" transform="translate(273,127)" s:width="30" s:height="20" id="cell_CLK"><text x="15" y="-4" class="nodelabel cell_CLK" s:attribute="ref">CLK</text><s:alias val="$_inputExt_"/><path d="M0,0 L0,20 L15,20 L30,10 L15,0 Z" class="cell_CLK"/><g s:x="30" s:y="10" s:pid="Y"/></g><g s:type="inputExt" transform="translate(208,62)" s:width="30" s:height="20" id="cell_SETN"><text x="15" y="-4" class="nodelabel cell_SETN" s:attribute="ref">SETN</text><s:alias val="$_inputExt_"/><path d="M0,0 L0,20 L15,20 L30,10 L15,0 Z" class="cell_SETN"/><g s:x="30" s:y="10" s:pid="Y"/></g><g s:type="inputExt" transform="translate(208,307)" s:width="30" s:height="20" id="cell_RN"><text x="15" y="-4" class="nodelabel cell_RN" s:attribute="ref">RN</text><s:alias val="$_inputExt_"/><path d="M0,0 L0,20 L15,20 L30,10 L15,0 Z" class="cell_RN"/><g s:x="30" s:y="10" s:pid="Y"/></g><g s:type="outputExt" transform="translate(523,227)" s:width="30" s:height="20" id="cell_Q"><text x="15" y="-4" class="nodelabel cell_Q" s:attribute="ref">Q</text><s:alias val="$_outputExt_"/><path d="M30,0 L30,20 L15,20 L0,10 L15,0 Z" class="cell_Q"/><g s:x="0" s:y="10" s:pid="A"/></g><g s:type="inputExt" transform="translate(273,252)" s:width="30" s:height="20" id="cell_notifier"><text x="15" y="-4" class="nodelabel cell_notifier" s:attribute="ref">notifier</text><s:alias val="$_inputExt_"/><path d="M0,0 L0,20 L15,20 L30,10 L15,0 Z" class="cell_notifier"/><g s:x="30" s:y="10" s:pid="Y"/></g><line x1="105" x2="118" y1="32" y2="32" class="net_10 width_1" style="stroke-width: 1"/><line x1="118" x2="118" y1="32" y2="82" class="net_10 width_1" style="stroke-width: 1"/><circle cx="118" cy="82" r="2" style="fill:#000" class="net_10 width_1"/><line x1="118" x2="143" y1="82" y2="82" class="net_10 width_1" style="stroke-width: 1"/><line x1="105" x2="118" y1="32" y2="32" class="net_10 width_1" style="stroke-width: 1"/><line x1="118" x2="118" y1="32" y2="142" class="net_10 width_1" style="stroke-width: 1"/><line x1="118" x2="143" y1="142" y2="142" class="net_10 width_1" style="stroke-width: 1"/><line x1="105" x2="143" y1="97" y2="97" class="net_11 width_1" style="stroke-width: 1"/><line x1="105" x2="118" y1="189.5" y2="189.5" class="net_13 width_1" style="stroke-width: 1"/><line x1="118" x2="118" y1="189.5" y2="157" class="net_13 width_1" style="stroke-width: 1"/><circle cx="118" cy="189.5" r="2" style="fill:#000" class="net_13 width_1"/><line x1="118" x2="143" y1="157" y2="157" class="net_13 width_1" style="stroke-width: 1"/><line x1="105" x2="183" y1="189.5" y2="189.5" class="net_13 width_1" style="stroke-width: 1"/><line x1="183" x2="183" y1="189.5" y2="194.5" class="net_13 width_1" style="stroke-width: 1"/><line x1="183" x2="208" y1="194.5" y2="194.5" class="net_13 width_1" style="stroke-width: 1"/><line x1="42" x2="52" y1="97" y2="97" class="net_2 width_1" style="stroke-width: 1"/><line x1="52" x2="52" y1="97" y2="209.5" class="net_2 width_1" style="stroke-width: 1"/><circle cx="52" cy="97" r="2" style="fill:#000" class="net_2 width_1"/><line x1="52" x2="208" y1="209.5" y2="209.5" class="net_2 width_1" style="stroke-width: 1"/><line x1="42" x2="77" y1="97" y2="97" class="net_2 width_1" style="stroke-width: 1"/><line x1="42" x2="77" y1="189.5" y2="189.5" class="net_3 width_1" style="stroke-width: 1"/><line x1="415" x2="457" y1="237" y2="237" class="net_16 width_1" style="stroke-width: 1"/><line x1="238" x2="281" y1="317" y2="317" class="net_7 width_1" style="stroke-width: 1"/><line x1="238" x2="281" y1="72" y2="72" class="net_6 width_1" style="stroke-width: 1"/><line x1="42" x2="77" y1="32" y2="32" class="net_4 width_1" style="stroke-width: 1"/><line x1="173" x2="183" y1="89.5" y2="89.5" class="net_12 width_1" style="stroke-width: 1"/><line x1="183" x2="183" y1="89.5" y2="134.5" class="net_12 width_1" style="stroke-width: 1"/><line x1="183" x2="210" y1="134.5" y2="134.5" class="net_12 width_1" style="stroke-width: 1"/><line x1="173" x2="210" y1="149.5" y2="149.5" class="net_14 width_1" style="stroke-width: 1"/><line x1="238" x2="248" y1="142" y2="142" class="net_19 width_1" style="stroke-width: 1"/><line x1="248" x2="248" y1="142" y2="187" class="net_19 width_1" style="stroke-width: 1"/><line x1="248" x2="281.3333333333333" y1="187" y2="187" class="net_19 width_1" style="stroke-width: 1"/><line x1="238" x2="281.3333333333333" y1="202" y2="202" class="net_15 width_1" style="stroke-width: 1"/><line x1="309" x2="361" y1="72" y2="72" class="net_18 width_1" style="stroke-width: 1"/><line x1="361" x2="361" y1="72" y2="237" class="net_18 width_1" style="stroke-width: 1"/><line x1="361" x2="384" y1="237" y2="237" class="net_18 width_1" style="stroke-width: 1"/><line x1="303" x2="351" y1="137" y2="137" class="net_5 width_1" style="stroke-width: 1"/><line x1="351" x2="351" y1="137" y2="257" class="net_5 width_1" style="stroke-width: 1"/><line x1="351" x2="384" y1="257" y2="257" class="net_5 width_1" style="stroke-width: 1"/><line x1="309.3333333333333" x2="341" y1="194.5" y2="194.5" class="net_20 width_1" style="stroke-width: 1"/><line x1="341" x2="341" y1="194.5" y2="277" class="net_20 width_1" style="stroke-width: 1"/><line x1="341" x2="384" y1="277" y2="277" class="net_20 width_1" style="stroke-width: 1"/><line x1="303" x2="331" y1="262" y2="262" class="net_9 width_1" style="stroke-width: 1"/><line x1="331" x2="331" y1="262" y2="297" class="net_9 width_1" style="stroke-width: 1"/><line x1="331" x2="384" y1="297" y2="297" class="net_9 width_1" style="stroke-width: 1"/><line x1="309" x2="384" y1="317" y2="317" class="net_17 width_1" style="stroke-width: 1"/><line x1="485" x2="523" y1="237" y2="237" class="net_8 width_1" style="stroke-width: 1"/></svg>