<svg xmlns="http://www.w3.org/2000/svg" xmlns:xlink="http://www.w3.org/1999/xlink" xmlns:s="https://github.com/nturley/netlistsvg" width="555" height="336.5"><style>svg {
  stroke:#000;
  fill:none;
}
text {
  fill:#000;
  stroke:none;
  font-size:10px;
  font-weight: bold;
  font-family: "Courier New", monospace;
}
line {
    stroke-linecap: round;
}
.nodelabel {
  text-anchor: middle;
}
.inputPortLabel {
  text-anchor: end;
}
.splitjoinBody {
  fill:#000;
}</style><g s:type="and" transform="translate(148,12)" s:width="30" s:height="25" id="cell_$and$gf180mcu_fd_sc_mcu7t5v0__sdffrnq.v:34$1"><s:alias val="$and"/><s:alias val="$logic_and"/><s:alias val="$_AND_"/><s:alias val="$reduce_and"/><path d="M0,0 L0,25 L15,25 A15 12.5 0 0 0 15,0 Z" class="cell_$and$gf180mcu_fd_sc_mcu7t5v0__sdffrnq.v:34$1"/><g s:x="0" s:y="5" s:pid="A"/><g s:x="0" s:y="20" s:pid="B"/><g s:x="30" s:y="12.5" s:pid="Y"/></g><g s:type="and" transform="translate(148,72)" s:width="30" s:height="25" id="cell_$and$gf180mcu_fd_sc_mcu7t5v0__sdffrnq.v:42$2"><s:alias val="$and"/><s:alias val="$logic_and"/><s:alias val="$_AND_"/><s:alias val="$reduce_and"/><path d="M0,0 L0,25 L15,25 A15 12.5 0 0 0 15,0 Z" class="cell_$and$gf180mcu_fd_sc_mcu7t5v0__sdffrnq.v:42$2"/><g s:x="0" s:y="5" s:pid="A"/><g s:x="0" s:y="20" s:pid="B"/><g s:x="30" s:y="12.5" s:pid="Y"/></g><g s:type="and" transform="translate(213,187)" s:width="30" s:height="25" id="cell_$and$gf180mcu_fd_sc_mcu7t5v0__sdffrnq.v:46$3"><s:alias val="$and"/><s:alias val="$logic_and"/><s:alias val="$_AND_"/><s:alias val="$reduce_and"/><path d="M0,0 L0,25 L15,25 A15 12.5 0 0 0 15,0 Z" class="cell_$and$gf180mcu_fd_sc_mcu7t5v0__sdffrnq.v:46$3"/><g s:x="0" s:y="5" s:pid="A"/><g s:x="0" s:y="20" s:pid="B"/><g s:x="30" s:y="12.5" s:pid="Y"/></g><g s:type="not" transform="translate(448,142)" s:width="30" s:height="20" id="cell_$not$gf180mcu_fd_sc_mcu7t5v0__sdffrnq.v:0$10"><s:alias val="$_NOT_"/><s:alias val="$not"/><s:alias val="$logic_not"/><path d="M0,0 L0,20 L20,10 Z" class="cell_$not$gf180mcu_fd_sc_mcu7t5v0__sdffrnq.v:0$10"/><circle cx="24" cy="10" r="3" class="cell_$not$gf180mcu_fd_sc_mcu7t5v0__sdffrnq.v:0$10"/><g s:x="-1" s:y="10" s:pid="A"/><g s:x="27" s:y="10" s:pid="Y"/></g><g s:type="not" transform="translate(287,304.5)" s:width="30" s:height="20" id="cell_$not$gf180mcu_fd_sc_mcu7t5v0__sdffrnq.v:0$6"><s:alias val="$_NOT_"/><s:alias val="$not"/><s:alias val="$logic_not"/><path d="M0,0 L0,20 L20,10 Z" class="cell_$not$gf180mcu_fd_sc_mcu7t5v0__sdffrnq.v:0$6"/><circle cx="24" cy="10" r="3" class="cell_$not$gf180mcu_fd_sc_mcu7t5v0__sdffrnq.v:0$6"/><g s:x="-1" s:y="10" s:pid="A"/><g s:x="27" s:y="10" s:pid="Y"/></g><g s:type="not" transform="translate(78,67)" s:width="30" s:height="20" id="cell_$not$gf180mcu_fd_sc_mcu7t5v0__sdffrnq.v:0$7"><s:alias val="$_NOT_"/><s:alias val="$not"/><s:alias val="$logic_not"/><path d="M0,0 L0,20 L20,10 Z" class="cell_$not$gf180mcu_fd_sc_mcu7t5v0__sdffrnq.v:0$7"/><circle cx="24" cy="10" r="3" class="cell_$not$gf180mcu_fd_sc_mcu7t5v0__sdffrnq.v:0$7"/><g s:x="-1" s:y="10" s:pid="A"/><g s:x="27" s:y="10" s:pid="Y"/></g><g s:type="not" transform="translate(78,122)" s:width="30" s:height="20" id="cell_$not$gf180mcu_fd_sc_mcu7t5v0__sdffrnq.v:0$8"><s:alias val="$_NOT_"/><s:alias val="$not"/><s:alias val="$logic_not"/><path d="M0,0 L0,20 L20,10 Z" class="cell_$not$gf180mcu_fd_sc_mcu7t5v0__sdffrnq.v:0$8"/><circle cx="24" cy="10" r="3" class="cell_$not$gf180mcu_fd_sc_mcu7t5v0__sdffrnq.v:0$8"/><g s:x="-1" s:y="10" s:pid="A"/><g s:x="27" s:y="10" s:pid="Y"/></g><g s:type="not" transform="translate(78,177)" s:width="30" s:height="20" id="cell_$not$gf180mcu_fd_sc_mcu7t5v0__sdffrnq.v:0$9"><s:alias val="$_NOT_"/><s:alias val="$not"/><s:alias val="$logic_not"/><path d="M0,0 L0,20 L20,10 Z" class="cell_$not$gf180mcu_fd_sc_mcu7t5v0__sdffrnq.v:0$9"/><circle cx="24" cy="10" r="3" class="cell_$not$gf180mcu_fd_sc_mcu7t5v0__sdffrnq.v:0$9"/><g s:x="-1" s:y="10" s:pid="A"/><g s:x="27" s:y="10" s:pid="Y"/></g><g s:type="or" transform="translate(213,64.5)" s:width="30" s:height="25" id="cell_$or$gf180mcu_fd_sc_mcu7t5v0__sdffrnq.v:48$4"><s:alias val="$or"/><s:alias val="$logic_or"/><s:alias val="$_OR_"/><s:alias val="$reduce_or"/><s:alias val="$reduce_bool"/><path d="M0,0 A30 25 0 0 1 0,25 A30 25 0 0 0 30,12.5 A30 25 0 0 0 0,0" class="cell_$or$gf180mcu_fd_sc_mcu7t5v0__sdffrnq.v:48$4"/><g s:x="2" s:y="5" s:pid="A"/><g s:x="2" s:y="20" s:pid="B"/><g s:x="30" s:y="12.5" s:pid="Y"/></g><g s:type="or" transform="translate(284.3333333333333,179.5)" s:width="30" s:height="25" id="cell_$or$gf180mcu_fd_sc_mcu7t5v0__sdffrnq.v:48$5"><s:alias val="$or"/><s:alias val="$logic_or"/><s:alias val="$_OR_"/><s:alias val="$reduce_or"/><s:alias val="$reduce_bool"/><path d="M0,0 A30 25 0 0 1 0,25 A30 25 0 0 0 30,12.5 A30 25 0 0 0 0,0" class="cell_$or$gf180mcu_fd_sc_mcu7t5v0__sdffrnq.v:48$5"/><g s:x="2" s:y="5" s:pid="A"/><g s:x="2" s:y="20" s:pid="B"/><g s:x="30" s:y="12.5" s:pid="Y"/></g><g s:type="generic" transform="translate(374,141.5)" s:width="30" s:height="40" id="cell_x0"><text x="15" y="-4" class="nodelabel cell_x0" s:attribute="ref">udp_gf180mcu_fd_sc_mcu7t5v0_tt_25c_1v80_verilog_mgm_n_iq_ff_udp</text><rect width="30" height="100" s:generic="body" class="cell_x0"/><g transform="translate(0,10)" s:x="0" s:y="10" s:pid="in0" id="port_x0~C"><text x="-3" y="-4" class="inputPortLabel cell_x0">C</text></g><g transform="translate(0,30)" s:x="0" s:y="10" s:pid="in0" id="port_x0~CK"><text x="-3" y="-4" class="inputPortLabel cell_x0">CK</text></g><g transform="translate(0,50)" s:x="0" s:y="10" s:pid="in0" id="port_x0~D"><text x="-3" y="-4" class="inputPortLabel cell_x0">D</text></g><g transform="translate(0,70)" s:x="0" s:y="10" s:pid="in0" id="port_x0~N"><text x="-3" y="-4" class="inputPortLabel cell_x0">N</text></g><g transform="translate(0,90)" s:x="0" s:y="10" s:pid="in0" id="port_x0~P"><text x="-3" y="-4" class="inputPortLabel cell_x0">P</text></g><g transform="translate(30,10)" s:x="30" s:y="10" s:pid="out0" id="port_x0~Q"><text x="5" y="-4" style="fill:#000; stroke:none" class="cell_x0">Q</text></g></g><g s:type="inputExt" transform="translate(12,197)" s:width="30" s:height="20" id="cell_SE"><text x="15" y="-4" class="nodelabel cell_SE" s:attribute="ref">SE</text><s:alias val="$_inputExt_"/><path d="M0,0 L0,20 L15,20 L30,10 L15,0 Z" class="cell_SE"/><g s:x="30" s:y="10" s:pid="Y"/></g><g s:type="inputExt" transform="translate(12,262)" s:width="30" s:height="20" id="cell_SI"><text x="15" y="-4" class="nodelabel cell_SI" s:attribute="ref">SI</text><s:alias val="$_inputExt_"/><path d="M0,0 L0,20 L15,20 L30,10 L15,0 Z" class="cell_SI"/><g s:x="30" s:y="10" s:pid="Y"/></g><g s:type="inputExt" transform="translate(12,67)" s:width="30" s:height="20" id="cell_D"><text x="15" y="-4" class="nodelabel cell_D" s:attribute="ref">D</text><s:alias val="$_inputExt_"/><path d="M0,0 L0,20 L15,20 L30,10 L15,0 Z" class="cell_D"/><g s:x="30" s:y="10" s:pid="Y"/></g><g s:type="inputExt" transform="translate(278,124.5)" s:width="30" s:height="20" id="cell_CLK"><text x="15" y="-4" class="nodelabel cell_CLK" s:attribute="ref">CLK</text><s:alias val="$_inputExt_"/><path d="M0,0 L0,20 L15,20 L30,10 L15,0 Z" class="cell_CLK"/><g s:x="30" s:y="10" s:pid="Y"/></g><g s:type="inputExt" transform="translate(213,304.5)" s:width="30" s:height="20" id="cell_RN"><text x="15" y="-4" class="nodelabel cell_RN" s:attribute="ref">RN</text><s:alias val="$_inputExt_"/><path d="M0,0 L0,20 L15,20 L30,10 L15,0 Z" class="cell_RN"/><g s:x="30" s:y="10" s:pid="Y"/></g><g s:type="outputExt" transform="translate(513,142)" s:width="30" s:height="20" id="cell_Q"><text x="15" y="-4" class="nodelabel cell_Q" s:attribute="ref">Q</text><s:alias val="$_outputExt_"/><path d="M30,0 L30,20 L15,20 L0,10 L15,0 Z" class="cell_Q"/><g s:x="0" s:y="10" s:pid="A"/></g><g s:type="inputExt" transform="translate(278,249.5)" s:width="30" s:height="20" id="cell_notifier"><text x="15" y="-4" class="nodelabel cell_notifier" s:attribute="ref">notifier</text><s:alias val="$_inputExt_"/><path d="M0,0 L0,20 L15,20 L30,10 L15,0 Z" class="cell_notifier"/><g s:x="30" s:y="10" s:pid="Y"/></g><g s:type="constant" transform="translate(278,59.5)" s:width="30" s:height="20" id="cell_0"><text x="15" y="-4" class="nodelabel cell_0" s:attribute="ref">0</text><s:alias val="$_constant_"/><rect width="30" height="20" class="cell_0"/><g s:x="31" s:y="10" s:pid="Y"/></g><line x1="105" x2="118" y1="77" y2="77" class="net_9 width_1" style="stroke-width: 1"/><line x1="118" x2="118" y1="77" y2="17" class="net_9 width_1" style="stroke-width: 1"/><circle cx="118" cy="77" r="2" style="fill:#000" class="net_9 width_1"/><line x1="118" x2="148" y1="17" y2="17" class="net_9 width_1" style="stroke-width: 1"/><line x1="105" x2="148" y1="77" y2="77" class="net_9 width_1" style="stroke-width: 1"/><line x1="105" x2="128" y1="132" y2="132" class="net_10 width_1" style="stroke-width: 1"/><line x1="128" x2="128" y1="132" y2="32" class="net_10 width_1" style="stroke-width: 1"/><line x1="128" x2="148" y1="32" y2="32" class="net_10 width_1" style="stroke-width: 1"/><line x1="105" x2="138" y1="187" y2="187" class="net_12 width_1" style="stroke-width: 1"/><line x1="138" x2="138" y1="187" y2="92" class="net_12 width_1" style="stroke-width: 1"/><circle cx="138" cy="187" r="2" style="fill:#000" class="net_12 width_1"/><line x1="138" x2="148" y1="92" y2="92" class="net_12 width_1" style="stroke-width: 1"/><line x1="105" x2="188" y1="187" y2="187" class="net_12 width_1" style="stroke-width: 1"/><line x1="188" x2="188" y1="187" y2="192" class="net_12 width_1" style="stroke-width: 1"/><line x1="188" x2="213" y1="192" y2="192" class="net_12 width_1" style="stroke-width: 1"/><line x1="42" x2="213" y1="207" y2="207" class="net_2 width_1" style="stroke-width: 1"/><line x1="42" x2="52" y1="207" y2="207" class="net_2 width_1" style="stroke-width: 1"/><line x1="52" x2="52" y1="207" y2="132" class="net_2 width_1" style="stroke-width: 1"/><circle cx="52" cy="207" r="2" style="fill:#000" class="net_2 width_1"/><line x1="52" x2="77" y1="132" y2="132" class="net_2 width_1" style="stroke-width: 1"/><line x1="405" x2="447" y1="152" y2="152" class="net_15 width_1" style="stroke-width: 1"/><line x1="243" x2="286" y1="314.5" y2="314.5" class="net_6 width_1" style="stroke-width: 1"/><line x1="42" x2="77" y1="77" y2="77" class="net_4 width_1" style="stroke-width: 1"/><line x1="42" x2="62" y1="272" y2="272" class="net_3 width_1" style="stroke-width: 1"/><line x1="62" x2="62" y1="272" y2="187" class="net_3 width_1" style="stroke-width: 1"/><line x1="62" x2="77" y1="187" y2="187" class="net_3 width_1" style="stroke-width: 1"/><line x1="178" x2="188" y1="24.5" y2="24.5" class="net_11 width_1" style="stroke-width: 1"/><line x1="188" x2="188" y1="24.5" y2="69.5" class="net_11 width_1" style="stroke-width: 1"/><line x1="188" x2="215" y1="69.5" y2="69.5" class="net_11 width_1" style="stroke-width: 1"/><line x1="178" x2="215" y1="84.5" y2="84.5" class="net_13 width_1" style="stroke-width: 1"/><line x1="243" x2="253" y1="77" y2="77" class="net_17 width_1" style="stroke-width: 1"/><line x1="253" x2="253" y1="77" y2="184.5" class="net_17 width_1" style="stroke-width: 1"/><line x1="253" x2="286.3333333333333" y1="184.5" y2="184.5" class="net_17 width_1" style="stroke-width: 1"/><line x1="243" x2="286.3333333333333" y1="199.5" y2="199.5" class="net_14 width_1" style="stroke-width: 1"/><line x1="309" x2="346" y1="69.5" y2="69.5" class="net_19 width_1" style="stroke-width: 1"/><line x1="346" x2="346" y1="69.5" y2="152" class="net_19 width_1" style="stroke-width: 1"/><line x1="346" x2="374" y1="152" y2="152" class="net_19 width_1" style="stroke-width: 1"/><line x1="308" x2="336" y1="134.5" y2="134.5" class="net_5 width_1" style="stroke-width: 1"/><line x1="336" x2="336" y1="134.5" y2="172" class="net_5 width_1" style="stroke-width: 1"/><line x1="336" x2="374" y1="172" y2="172" class="net_5 width_1" style="stroke-width: 1"/><line x1="314.3333333333333" x2="374" y1="192" y2="192" class="net_18 width_1" style="stroke-width: 1"/><line x1="308" x2="336" y1="259.5" y2="259.5" class="net_8 width_1" style="stroke-width: 1"/><line x1="336" x2="336" y1="259.5" y2="212" class="net_8 width_1" style="stroke-width: 1"/><line x1="336" x2="374" y1="212" y2="212" class="net_8 width_1" style="stroke-width: 1"/><line x1="314" x2="346" y1="314.5" y2="314.5" class="net_16 width_1" style="stroke-width: 1"/><line x1="346" x2="346" y1="314.5" y2="232" class="net_16 width_1" style="stroke-width: 1"/><line x1="346" x2="374" y1="232" y2="232" class="net_16 width_1" style="stroke-width: 1"/><line x1="475" x2="513" y1="152" y2="152" class="net_7 width_1" style="stroke-width: 1"/></svg>