<svg xmlns="http://www.w3.org/2000/svg" xmlns:xlink="http://www.w3.org/1999/xlink" xmlns:s="https://github.com/nturley/netlistsvg" width="526" height="386.5"><style>svg {
  stroke:#000;
  fill:none;
}
text {
  fill:#000;
  stroke:none;
  font-size:10px;
  font-weight: bold;
  font-family: "Courier New", monospace;
}
line {
    stroke-linecap: round;
}
.nodelabel {
  text-anchor: middle;
}
.inputPortLabel {
  text-anchor: end;
}
.splitjoinBody {
  fill:#000;
}</style><g s:type="and" transform="translate(158.66666666666666,12)" s:width="30" s:height="25" id="cell_$and$gf180mcu_fd_sc_mcu7t5v0__aoi221.v:36$1"><s:alias val="$and"/><s:alias val="$logic_and"/><s:alias val="$_AND_"/><s:alias val="$reduce_and"/><path d="M0,0 L0,25 L15,25 A15 12.5 0 0 0 15,0 Z" class="cell_$and$gf180mcu_fd_sc_mcu7t5v0__aoi221.v:36$1"/><g s:x="0" s:y="5" s:pid="A"/><g s:x="0" s:y="20" s:pid="B"/><g s:x="30" s:y="12.5" s:pid="Y"/></g><g s:type="and" transform="translate(224,19.5)" s:width="30" s:height="25" id="cell_$and$gf180mcu_fd_sc_mcu7t5v0__aoi221.v:36$2"><s:alias val="$and"/><s:alias val="$logic_and"/><s:alias val="$_AND_"/><s:alias val="$reduce_and"/><path d="M0,0 L0,25 L15,25 A15 12.5 0 0 0 15,0 Z" class="cell_$and$gf180mcu_fd_sc_mcu7t5v0__aoi221.v:36$2"/><g s:x="0" s:y="5" s:pid="A"/><g s:x="0" s:y="20" s:pid="B"/><g s:x="30" s:y="12.5" s:pid="Y"/></g><g s:type="and" transform="translate(158.66666666666666,72)" s:width="30" s:height="25" id="cell_$and$gf180mcu_fd_sc_mcu7t5v0__aoi221.v:44$3"><s:alias val="$and"/><s:alias val="$logic_and"/><s:alias val="$_AND_"/><s:alias val="$reduce_and"/><path d="M0,0 L0,25 L15,25 A15 12.5 0 0 0 15,0 Z" class="cell_$and$gf180mcu_fd_sc_mcu7t5v0__aoi221.v:44$3"/><g s:x="0" s:y="5" s:pid="A"/><g s:x="0" s:y="20" s:pid="B"/><g s:x="30" s:y="12.5" s:pid="Y"/></g><g s:type="and" transform="translate(224,79.5)" s:width="30" s:height="25" id="cell_$and$gf180mcu_fd_sc_mcu7t5v0__aoi221.v:44$4"><s:alias val="$and"/><s:alias val="$logic_and"/><s:alias val="$_AND_"/><s:alias val="$reduce_and"/><path d="M0,0 L0,25 L15,25 A15 12.5 0 0 0 15,0 Z" class="cell_$and$gf180mcu_fd_sc_mcu7t5v0__aoi221.v:44$4"/><g s:x="0" s:y="5" s:pid="A"/><g s:x="0" s:y="20" s:pid="B"/><g s:x="30" s:y="12.5" s:pid="Y"/></g><g s:type="and" transform="translate(224,139.5)" s:width="30" s:height="25" id="cell_$and$gf180mcu_fd_sc_mcu7t5v0__aoi221.v:52$5"><s:alias val="$and"/><s:alias val="$logic_and"/><s:alias val="$_AND_"/><s:alias val="$reduce_and"/><path d="M0,0 L0,25 L15,25 A15 12.5 0 0 0 15,0 Z" class="cell_$and$gf180mcu_fd_sc_mcu7t5v0__aoi221.v:52$5"/><g s:x="0" s:y="5" s:pid="A"/><g s:x="0" s:y="20" s:pid="B"/><g s:x="30" s:y="12.5" s:pid="Y"/></g><g s:type="and" transform="translate(289,204.5)" s:width="30" s:height="25" id="cell_$and$gf180mcu_fd_sc_mcu7t5v0__aoi221.v:52$6"><s:alias val="$and"/><s:alias val="$logic_and"/><s:alias val="$_AND_"/><s:alias val="$reduce_and"/><path d="M0,0 L0,25 L15,25 A15 12.5 0 0 0 15,0 Z" class="cell_$and$gf180mcu_fd_sc_mcu7t5v0__aoi221.v:52$6"/><g s:x="0" s:y="5" s:pid="A"/><g s:x="0" s:y="20" s:pid="B"/><g s:x="30" s:y="12.5" s:pid="Y"/></g><g s:type="and" transform="translate(289,279.5)" s:width="30" s:height="25" id="cell_$and$gf180mcu_fd_sc_mcu7t5v0__aoi221.v:56$7"><s:alias val="$and"/><s:alias val="$logic_and"/><s:alias val="$_AND_"/><s:alias val="$reduce_and"/><path d="M0,0 L0,25 L15,25 A15 12.5 0 0 0 15,0 Z" class="cell_$and$gf180mcu_fd_sc_mcu7t5v0__aoi221.v:56$7"/><g s:x="0" s:y="5" s:pid="A"/><g s:x="0" s:y="20" s:pid="B"/><g s:x="30" s:y="12.5" s:pid="Y"/></g><g s:type="and" transform="translate(354,319.5)" s:width="30" s:height="25" id="cell_$and$gf180mcu_fd_sc_mcu7t5v0__aoi221.v:56$8"><s:alias val="$and"/><s:alias val="$logic_and"/><s:alias val="$_AND_"/><s:alias val="$reduce_and"/><path d="M0,0 L0,25 L15,25 A15 12.5 0 0 0 15,0 Z" class="cell_$and$gf180mcu_fd_sc_mcu7t5v0__aoi221.v:56$8"/><g s:x="0" s:y="5" s:pid="A"/><g s:x="0" s:y="20" s:pid="B"/><g s:x="30" s:y="12.5" s:pid="Y"/></g><g s:type="not" transform="translate(78,67)" s:width="30" s:height="20" id="cell_$not$gf180mcu_fd_sc_mcu7t5v0__aoi221.v:0$12"><s:alias val="$_NOT_"/><s:alias val="$not"/><s:alias val="$logic_not"/><path d="M0,0 L0,20 L20,10 Z" class="cell_$not$gf180mcu_fd_sc_mcu7t5v0__aoi221.v:0$12"/><circle cx="24" cy="10" r="3" class="cell_$not$gf180mcu_fd_sc_mcu7t5v0__aoi221.v:0$12"/><g s:x="-1" s:y="10" s:pid="A"/><g s:x="27" s:y="10" s:pid="Y"/></g><g s:type="not" transform="translate(78,149.5)" s:width="30" s:height="20" id="cell_$not$gf180mcu_fd_sc_mcu7t5v0__aoi221.v:0$13"><s:alias val="$_NOT_"/><s:alias val="$not"/><s:alias val="$logic_not"/><path d="M0,0 L0,20 L20,10 Z" class="cell_$not$gf180mcu_fd_sc_mcu7t5v0__aoi221.v:0$13"/><circle cx="24" cy="10" r="3" class="cell_$not$gf180mcu_fd_sc_mcu7t5v0__aoi221.v:0$13"/><g s:x="-1" s:y="10" s:pid="A"/><g s:x="27" s:y="10" s:pid="Y"/></g><g s:type="not" transform="translate(159,214.5)" s:width="30" s:height="20" id="cell_$not$gf180mcu_fd_sc_mcu7t5v0__aoi221.v:0$14"><s:alias val="$_NOT_"/><s:alias val="$not"/><s:alias val="$logic_not"/><path d="M0,0 L0,20 L20,10 Z" class="cell_$not$gf180mcu_fd_sc_mcu7t5v0__aoi221.v:0$14"/><circle cx="24" cy="10" r="3" class="cell_$not$gf180mcu_fd_sc_mcu7t5v0__aoi221.v:0$14"/><g s:x="-1" s:y="10" s:pid="A"/><g s:x="27" s:y="10" s:pid="Y"/></g><g s:type="not" transform="translate(78,289.5)" s:width="30" s:height="20" id="cell_$not$gf180mcu_fd_sc_mcu7t5v0__aoi221.v:0$15"><s:alias val="$_NOT_"/><s:alias val="$not"/><s:alias val="$logic_not"/><path d="M0,0 L0,20 L20,10 Z" class="cell_$not$gf180mcu_fd_sc_mcu7t5v0__aoi221.v:0$15"/><circle cx="24" cy="10" r="3" class="cell_$not$gf180mcu_fd_sc_mcu7t5v0__aoi221.v:0$15"/><g s:x="-1" s:y="10" s:pid="A"/><g s:x="27" s:y="10" s:pid="Y"/></g><g s:type="not" transform="translate(159,269.5)" s:width="30" s:height="20" id="cell_$not$gf180mcu_fd_sc_mcu7t5v0__aoi221.v:0$16"><s:alias val="$_NOT_"/><s:alias val="$not"/><s:alias val="$logic_not"/><path d="M0,0 L0,20 L20,10 Z" class="cell_$not$gf180mcu_fd_sc_mcu7t5v0__aoi221.v:0$16"/><circle cx="24" cy="10" r="3" class="cell_$not$gf180mcu_fd_sc_mcu7t5v0__aoi221.v:0$16"/><g s:x="-1" s:y="10" s:pid="A"/><g s:x="27" s:y="10" s:pid="Y"/></g><g s:type="or" transform="translate(354,197)" s:width="30" s:height="25" id="cell_$or$gf180mcu_fd_sc_mcu7t5v0__aoi221.v:58$10"><s:alias val="$or"/><s:alias val="$logic_or"/><s:alias val="$_OR_"/><s:alias val="$reduce_or"/><s:alias val="$reduce_bool"/><path d="M0,0 A30 25 0 0 1 0,25 A30 25 0 0 0 30,12.5 A30 25 0 0 0 0,0" class="cell_$or$gf180mcu_fd_sc_mcu7t5v0__aoi221.v:58$10"/><g s:x="2" s:y="5" s:pid="A"/><g s:x="2" s:y="20" s:pid="B"/><g s:x="30" s:y="12.5" s:pid="Y"/></g><g s:type="or" transform="translate(419,312)" s:width="30" s:height="25" id="cell_$or$gf180mcu_fd_sc_mcu7t5v0__aoi221.v:58$11"><s:alias val="$or"/><s:alias val="$logic_or"/><s:alias val="$_OR_"/><s:alias val="$reduce_or"/><s:alias val="$reduce_bool"/><path d="M0,0 A30 25 0 0 1 0,25 A30 25 0 0 0 30,12.5 A30 25 0 0 0 0,0" class="cell_$or$gf180mcu_fd_sc_mcu7t5v0__aoi221.v:58$11"/><g s:x="2" s:y="5" s:pid="A"/><g s:x="2" s:y="20" s:pid="B"/><g s:x="30" s:y="12.5" s:pid="Y"/></g><g s:type="or" transform="translate(289,72)" s:width="30" s:height="25" id="cell_$or$gf180mcu_fd_sc_mcu7t5v0__aoi221.v:58$9"><s:alias val="$or"/><s:alias val="$logic_or"/><s:alias val="$_OR_"/><s:alias val="$reduce_or"/><s:alias val="$reduce_bool"/><path d="M0,0 A30 25 0 0 1 0,25 A30 25 0 0 0 30,12.5 A30 25 0 0 0 0,0" class="cell_$or$gf180mcu_fd_sc_mcu7t5v0__aoi221.v:58$9"/><g s:x="2" s:y="5" s:pid="A"/><g s:x="2" s:y="20" s:pid="B"/><g s:x="30" s:y="12.5" s:pid="Y"/></g><g s:type="inputExt" transform="translate(12,289.5)" s:width="30" s:height="20" id="cell_B2"><text x="15" y="-4" class="nodelabel cell_B2" s:attribute="ref">B2</text><s:alias val="$_inputExt_"/><path d="M0,0 L0,20 L15,20 L30,10 L15,0 Z" class="cell_B2"/><g s:x="30" s:y="10" s:pid="Y"/></g><g s:type="inputExt" transform="translate(12,149.5)" s:width="30" s:height="20" id="cell_B1"><text x="15" y="-4" class="nodelabel cell_B1" s:attribute="ref">B1</text><s:alias val="$_inputExt_"/><path d="M0,0 L0,20 L15,20 L30,10 L15,0 Z" class="cell_B1"/><g s:x="30" s:y="10" s:pid="Y"/></g><g s:type="outputExt" transform="translate(484,314.5)" s:width="30" s:height="20" id="cell_ZN"><text x="15" y="-4" class="nodelabel cell_ZN" s:attribute="ref">ZN</text><s:alias val="$_outputExt_"/><path d="M30,0 L30,20 L15,20 L0,10 L15,0 Z" class="cell_ZN"/><g s:x="0" s:y="10" s:pid="A"/></g><g s:type="inputExt" transform="translate(78,214.5)" s:width="30" s:height="20" id="cell_C"><text x="15" y="-4" class="nodelabel cell_C" s:attribute="ref">C</text><s:alias val="$_inputExt_"/><path d="M0,0 L0,20 L15,20 L30,10 L15,0 Z" class="cell_C"/><g s:x="30" s:y="10" s:pid="Y"/></g><g s:type="inputExt" transform="translate(78,354.5)" s:width="30" s:height="20" id="cell_A2"><text x="15" y="-4" class="nodelabel cell_A2" s:attribute="ref">A2</text><s:alias val="$_inputExt_"/><path d="M0,0 L0,20 L15,20 L30,10 L15,0 Z" class="cell_A2"/><g s:x="30" s:y="10" s:pid="Y"/></g><g s:type="inputExt" transform="translate(12,67)" s:width="30" s:height="20" id="cell_A1"><text x="15" y="-4" class="nodelabel cell_A1" s:attribute="ref">A1</text><s:alias val="$_inputExt_"/><path d="M0,0 L0,20 L15,20 L30,10 L15,0 Z" class="cell_A1"/><g s:x="30" s:y="10" s:pid="Y"/></g><line x1="105" x2="118" y1="77" y2="77" class="net_8 width_1" style="stroke-width: 1"/><line x1="118" x2="118" y1="77" y2="17" class="net_8 width_1" style="stroke-width: 1"/><circle cx="118" cy="77" r="2" style="fill:#000" class="net_8 width_1"/><line x1="118" x2="158.66666666666666" y1="17" y2="17" class="net_8 width_1" style="stroke-width: 1"/><line x1="105" x2="158.66666666666666" y1="77" y2="77" class="net_8 width_1" style="stroke-width: 1"/><line x1="105" x2="128" y1="159.5" y2="159.5" class="net_9 width_1" style="stroke-width: 1"/><line x1="128" x2="128" y1="159.5" y2="32" class="net_9 width_1" style="stroke-width: 1"/><circle cx="128" cy="159.5" r="2" style="fill:#000" class="net_9 width_1"/><line x1="128" x2="158.66666666666666" y1="32" y2="32" class="net_9 width_1" style="stroke-width: 1"/><line x1="105" x2="224" y1="159.5" y2="159.5" class="net_9 width_1" style="stroke-width: 1"/><line x1="188.66666666666666" x2="224" y1="24.5" y2="24.5" class="net_10 width_1" style="stroke-width: 1"/><line x1="186" x2="199" y1="224.5" y2="224.5" class="net_11 width_1" style="stroke-width: 1"/><line x1="199" x2="199" y1="224.5" y2="39.5" class="net_11 width_1" style="stroke-width: 1"/><circle cx="199" cy="224.5" r="2" style="fill:#000" class="net_11 width_1"/><line x1="199" x2="224" y1="39.5" y2="39.5" class="net_11 width_1" style="stroke-width: 1"/><line x1="186" x2="199" y1="224.5" y2="224.5" class="net_11 width_1" style="stroke-width: 1"/><line x1="199" x2="199" y1="224.5" y2="99.5" class="net_11 width_1" style="stroke-width: 1"/><circle cx="199" cy="99.5" r="2" style="fill:#000" class="net_11 width_1"/><line x1="199" x2="224" y1="99.5" y2="99.5" class="net_11 width_1" style="stroke-width: 1"/><line x1="186" x2="289" y1="224.5" y2="224.5" class="net_11 width_1" style="stroke-width: 1"/><line x1="186" x2="199" y1="224.5" y2="224.5" class="net_11 width_1" style="stroke-width: 1"/><line x1="199" x2="199" y1="224.5" y2="339.5" class="net_11 width_1" style="stroke-width: 1"/><line x1="199" x2="354" y1="339.5" y2="339.5" class="net_11 width_1" style="stroke-width: 1"/><line x1="105" x2="138" y1="299.5" y2="299.5" class="net_13 width_1" style="stroke-width: 1"/><line x1="138" x2="138" y1="299.5" y2="92" class="net_13 width_1" style="stroke-width: 1"/><circle cx="138" cy="299.5" r="2" style="fill:#000" class="net_13 width_1"/><line x1="138" x2="158.66666666666666" y1="92" y2="92" class="net_13 width_1" style="stroke-width: 1"/><line x1="105" x2="289" y1="299.5" y2="299.5" class="net_13 width_1" style="stroke-width: 1"/><line x1="188.66666666666666" x2="224" y1="84.5" y2="84.5" class="net_14 width_1" style="stroke-width: 1"/><line x1="186" x2="209" y1="279.5" y2="279.5" class="net_16 width_1" style="stroke-width: 1"/><line x1="209" x2="209" y1="279.5" y2="144.5" class="net_16 width_1" style="stroke-width: 1"/><circle cx="209" cy="279.5" r="2" style="fill:#000" class="net_16 width_1"/><line x1="209" x2="224" y1="144.5" y2="144.5" class="net_16 width_1" style="stroke-width: 1"/><line x1="186" x2="264" y1="279.5" y2="279.5" class="net_16 width_1" style="stroke-width: 1"/><line x1="264" x2="264" y1="279.5" y2="284.5" class="net_16 width_1" style="stroke-width: 1"/><line x1="264" x2="289" y1="284.5" y2="284.5" class="net_16 width_1" style="stroke-width: 1"/><line x1="254" x2="264" y1="152" y2="152" class="net_17 width_1" style="stroke-width: 1"/><line x1="264" x2="264" y1="152" y2="209.5" class="net_17 width_1" style="stroke-width: 1"/><line x1="264" x2="289" y1="209.5" y2="209.5" class="net_17 width_1" style="stroke-width: 1"/><line x1="319" x2="329" y1="292" y2="292" class="net_19 width_1" style="stroke-width: 1"/><line x1="329" x2="329" y1="292" y2="324.5" class="net_19 width_1" style="stroke-width: 1"/><line x1="329" x2="354" y1="324.5" y2="324.5" class="net_19 width_1" style="stroke-width: 1"/><line x1="42" x2="77" y1="77" y2="77" class="net_7 width_1" style="stroke-width: 1"/><line x1="42" x2="77" y1="159.5" y2="159.5" class="net_3 width_1" style="stroke-width: 1"/><line x1="108" x2="158" y1="224.5" y2="224.5" class="net_5 width_1" style="stroke-width: 1"/><line x1="42" x2="77" y1="299.5" y2="299.5" class="net_2 width_1" style="stroke-width: 1"/><line x1="108" x2="148" y1="364.5" y2="364.5" class="net_6 width_1" style="stroke-width: 1"/><line x1="148" x2="148" y1="364.5" y2="279.5" class="net_6 width_1" style="stroke-width: 1"/><line x1="148" x2="158" y1="279.5" y2="279.5" class="net_6 width_1" style="stroke-width: 1"/><line x1="319" x2="329" y1="84.5" y2="84.5" class="net_21 width_1" style="stroke-width: 1"/><line x1="329" x2="329" y1="84.5" y2="202" class="net_21 width_1" style="stroke-width: 1"/><line x1="329" x2="356" y1="202" y2="202" class="net_21 width_1" style="stroke-width: 1"/><line x1="319" x2="356" y1="217" y2="217" class="net_18 width_1" style="stroke-width: 1"/><line x1="384" x2="394" y1="209.5" y2="209.5" class="net_22 width_1" style="stroke-width: 1"/><line x1="394" x2="394" y1="209.5" y2="317" class="net_22 width_1" style="stroke-width: 1"/><line x1="394" x2="421" y1="317" y2="317" class="net_22 width_1" style="stroke-width: 1"/><line x1="384" x2="421" y1="332" y2="332" class="net_20 width_1" style="stroke-width: 1"/><line x1="254" x2="264" y1="32" y2="32" class="net_12 width_1" style="stroke-width: 1"/><line x1="264" x2="264" y1="32" y2="77" class="net_12 width_1" style="stroke-width: 1"/><line x1="264" x2="291" y1="77" y2="77" class="net_12 width_1" style="stroke-width: 1"/><line x1="254" x2="291" y1="92" y2="92" class="net_15 width_1" style="stroke-width: 1"/><line x1="449" x2="484" y1="324.5" y2="324.5" class="net_4 width_1" style="stroke-width: 1"/></svg>