<svg xmlns="http://www.w3.org/2000/svg" xmlns:xlink="http://www.w3.org/1999/xlink" xmlns:s="https://github.com/nturley/netlistsvg" width="288" height="304"><style>svg {
  stroke:#000;
  fill:none;
}
text {
  fill:#000;
  stroke:none;
  font-size:10px;
  font-weight: bold;
  font-family: "Courier New", monospace;
}
line {
    stroke-linecap: round;
}
.nodelabel {
  text-anchor: middle;
}
.inputPortLabel {
  text-anchor: end;
}
.splitjoinBody {
  fill:#000;
}</style><g s:type="not" transform="translate(86,272)" s:width="30" s:height="20" id="cell_$not$gf180mcu_fd_sc_mcu7t5v0__latsnq.v:0$1"><s:alias val="$_NOT_"/><s:alias val="$not"/><s:alias val="$logic_not"/><path d="M0,0 L0,20 L20,10 Z" class="cell_$not$gf180mcu_fd_sc_mcu7t5v0__latsnq.v:0$1"/><circle cx="24" cy="10" r="3" class="cell_$not$gf180mcu_fd_sc_mcu7t5v0__latsnq.v:0$1"/><g s:x="-1" s:y="10" s:pid="A"/><g s:x="27" s:y="10" s:pid="Y"/></g><g s:type="generic" transform="translate(173,111.5)" s:width="30" s:height="40" id="cell_x0"><text x="15" y="-4" class="nodelabel cell_x0" s:attribute="ref">udp_gf180mcu_fd_sc_mcu7t5v0_tt_25c_1v80_verilog_mgm_n_iq_latch_udp</text><rect width="30" height="100" s:generic="body" class="cell_x0"/><g transform="translate(0,10)" s:x="0" s:y="10" s:pid="in0" id="port_x0~C"><text x="-3" y="-4" class="inputPortLabel cell_x0">C</text></g><g transform="translate(0,30)" s:x="0" s:y="10" s:pid="in0" id="port_x0~CK"><text x="-3" y="-4" class="inputPortLabel cell_x0">CK</text></g><g transform="translate(0,50)" s:x="0" s:y="10" s:pid="in0" id="port_x0~D"><text x="-3" y="-4" class="inputPortLabel cell_x0">D</text></g><g transform="translate(0,70)" s:x="0" s:y="10" s:pid="in0" id="port_x0~N"><text x="-3" y="-4" class="inputPortLabel cell_x0">N</text></g><g transform="translate(0,90)" s:x="0" s:y="10" s:pid="in0" id="port_x0~P"><text x="-3" y="-4" class="inputPortLabel cell_x0">P</text></g><g transform="translate(30,10)" s:x="30" s:y="10" s:pid="out0" id="port_x0~Q"><text x="5" y="-4" style="fill:#000; stroke:none" class="cell_x0">Q</text></g></g><g s:type="inputExt" transform="translate(77,87)" s:width="30" s:height="20" id="cell_E"><text x="15" y="-4" class="nodelabel cell_E" s:attribute="ref">E</text><s:alias val="$_inputExt_"/><path d="M0,0 L0,20 L15,20 L30,10 L15,0 Z" class="cell_E"/><g s:x="30" s:y="10" s:pid="Y"/></g><g s:type="inputExt" transform="translate(77,152)" s:width="30" s:height="20" id="cell_D"><text x="15" y="-4" class="nodelabel cell_D" s:attribute="ref">D</text><s:alias val="$_inputExt_"/><path d="M0,0 L0,20 L15,20 L30,10 L15,0 Z" class="cell_D"/><g s:x="30" s:y="10" s:pid="Y"/></g><g s:type="inputExt" transform="translate(12,272)" s:width="30" s:height="20" id="cell_SETN"><text x="15" y="-4" class="nodelabel cell_SETN" s:attribute="ref">SETN</text><s:alias val="$_inputExt_"/><path d="M0,0 L0,20 L15,20 L30,10 L15,0 Z" class="cell_SETN"/><g s:x="30" s:y="10" s:pid="Y"/></g><g s:type="outputExt" transform="translate(246,112)" s:width="30" s:height="20" id="cell_Q"><text x="15" y="-4" class="nodelabel cell_Q" s:attribute="ref">Q</text><s:alias val="$_outputExt_"/><path d="M30,0 L30,20 L15,20 L0,10 L15,0 Z" class="cell_Q"/><g s:x="0" s:y="10" s:pid="A"/></g><g s:type="inputExt" transform="translate(77,217)" s:width="30" s:height="20" id="cell_notifier"><text x="15" y="-4" class="nodelabel cell_notifier" s:attribute="ref">notifier</text><s:alias val="$_inputExt_"/><path d="M0,0 L0,20 L15,20 L30,10 L15,0 Z" class="cell_notifier"/><g s:x="30" s:y="10" s:pid="Y"/></g><g s:type="constant" transform="translate(77,22)" s:width="30" s:height="20" id="cell_0"><text x="15" y="-4" class="nodelabel cell_0" s:attribute="ref">0</text><s:alias val="$_constant_"/><rect width="30" height="20" class="cell_0"/><g s:x="31" s:y="10" s:pid="Y"/></g><line x1="42" x2="85" y1="282" y2="282" class="net_4 width_1" style="stroke-width: 1"/><line x1="108" x2="145" y1="32" y2="32" class="net_8 width_1" style="stroke-width: 1"/><line x1="145" x2="145" y1="32" y2="122" class="net_8 width_1" style="stroke-width: 1"/><line x1="145" x2="173" y1="122" y2="122" class="net_8 width_1" style="stroke-width: 1"/><line x1="107" x2="135" y1="97" y2="97" class="net_2 width_1" style="stroke-width: 1"/><line x1="135" x2="135" y1="97" y2="142" class="net_2 width_1" style="stroke-width: 1"/><line x1="135" x2="173" y1="142" y2="142" class="net_2 width_1" style="stroke-width: 1"/><line x1="107" x2="173" y1="162" y2="162" class="net_3 width_1" style="stroke-width: 1"/><line x1="107" x2="135" y1="227" y2="227" class="net_6 width_1" style="stroke-width: 1"/><line x1="135" x2="135" y1="227" y2="182" class="net_6 width_1" style="stroke-width: 1"/><line x1="135" x2="173" y1="182" y2="182" class="net_6 width_1" style="stroke-width: 1"/><line x1="113" x2="145" y1="282" y2="282" class="net_7 width_1" style="stroke-width: 1"/><line x1="145" x2="145" y1="282" y2="202" class="net_7 width_1" style="stroke-width: 1"/><line x1="145" x2="173" y1="202" y2="202" class="net_7 width_1" style="stroke-width: 1"/><line x1="204" x2="246" y1="122" y2="122" class="net_5 width_1" style="stroke-width: 1"/></svg>