<svg xmlns="http://www.w3.org/2000/svg" xmlns:xlink="http://www.w3.org/1999/xlink" xmlns:s="https://github.com/nturley/netlistsvg" width="381" height="314"><style>svg {
  stroke:#000;
  fill:none;
}
text {
  fill:#000;
  stroke:none;
  font-size:10px;
  font-weight: bold;
  font-family: "Courier New", monospace;
}
line {
    stroke-linecap: round;
}
.nodelabel {
  text-anchor: middle;
}
.inputPortLabel {
  text-anchor: end;
}
.splitjoinBody {
  fill:#000;
}</style><g s:type="and" transform="translate(143.66666666666666,27)" s:width="30" s:height="25" id="cell_$and$gf180mcu_fd_sc_mcu7t5v0__oai32.v:36$1"><s:alias val="$and"/><s:alias val="$logic_and"/><s:alias val="$_AND_"/><s:alias val="$reduce_and"/><path d="M0,0 L0,25 L15,25 A15 12.5 0 0 0 15,0 Z" class="cell_$and$gf180mcu_fd_sc_mcu7t5v0__oai32.v:36$1"/><g s:x="0" s:y="5" s:pid="A"/><g s:x="0" s:y="20" s:pid="B"/><g s:x="30" s:y="12.5" s:pid="Y"/></g><g s:type="and" transform="translate(209,34.5)" s:width="30" s:height="25" id="cell_$and$gf180mcu_fd_sc_mcu7t5v0__oai32.v:36$2"><s:alias val="$and"/><s:alias val="$logic_and"/><s:alias val="$_AND_"/><s:alias val="$reduce_and"/><path d="M0,0 L0,25 L15,25 A15 12.5 0 0 0 15,0 Z" class="cell_$and$gf180mcu_fd_sc_mcu7t5v0__oai32.v:36$2"/><g s:x="0" s:y="5" s:pid="A"/><g s:x="0" s:y="20" s:pid="B"/><g s:x="30" s:y="12.5" s:pid="Y"/></g><g s:type="and" transform="translate(209,222)" s:width="30" s:height="25" id="cell_$and$gf180mcu_fd_sc_mcu7t5v0__oai32.v:48$3"><s:alias val="$and"/><s:alias val="$logic_and"/><s:alias val="$_AND_"/><s:alias val="$reduce_and"/><path d="M0,0 L0,25 L15,25 A15 12.5 0 0 0 15,0 Z" class="cell_$and$gf180mcu_fd_sc_mcu7t5v0__oai32.v:48$3"/><g s:x="0" s:y="5" s:pid="A"/><g s:x="0" s:y="20" s:pid="B"/><g s:x="30" s:y="12.5" s:pid="Y"/></g><g s:type="not" transform="translate(78,22)" s:width="30" s:height="20" id="cell_$not$gf180mcu_fd_sc_mcu7t5v0__oai32.v:0$5"><s:alias val="$_NOT_"/><s:alias val="$not"/><s:alias val="$logic_not"/><path d="M0,0 L0,20 L20,10 Z" class="cell_$not$gf180mcu_fd_sc_mcu7t5v0__oai32.v:0$5"/><circle cx="24" cy="10" r="3" class="cell_$not$gf180mcu_fd_sc_mcu7t5v0__oai32.v:0$5"/><g s:x="-1" s:y="10" s:pid="A"/><g s:x="27" s:y="10" s:pid="Y"/></g><g s:type="not" transform="translate(78,87)" s:width="30" s:height="20" id="cell_$not$gf180mcu_fd_sc_mcu7t5v0__oai32.v:0$6"><s:alias val="$_NOT_"/><s:alias val="$not"/><s:alias val="$logic_not"/><path d="M0,0 L0,20 L20,10 Z" class="cell_$not$gf180mcu_fd_sc_mcu7t5v0__oai32.v:0$6"/><circle cx="24" cy="10" r="3" class="cell_$not$gf180mcu_fd_sc_mcu7t5v0__oai32.v:0$6"/><g s:x="-1" s:y="10" s:pid="A"/><g s:x="27" s:y="10" s:pid="Y"/></g><g s:type="not" transform="translate(144,152)" s:width="30" s:height="20" id="cell_$not$gf180mcu_fd_sc_mcu7t5v0__oai32.v:0$7"><s:alias val="$_NOT_"/><s:alias val="$not"/><s:alias val="$logic_not"/><path d="M0,0 L0,20 L20,10 Z" class="cell_$not$gf180mcu_fd_sc_mcu7t5v0__oai32.v:0$7"/><circle cx="24" cy="10" r="3" class="cell_$not$gf180mcu_fd_sc_mcu7t5v0__oai32.v:0$7"/><g s:x="-1" s:y="10" s:pid="A"/><g s:x="27" s:y="10" s:pid="Y"/></g><g s:type="not" transform="translate(144,217)" s:width="30" s:height="20" id="cell_$not$gf180mcu_fd_sc_mcu7t5v0__oai32.v:0$8"><s:alias val="$_NOT_"/><s:alias val="$not"/><s:alias val="$logic_not"/><path d="M0,0 L0,20 L20,10 Z" class="cell_$not$gf180mcu_fd_sc_mcu7t5v0__oai32.v:0$8"/><circle cx="24" cy="10" r="3" class="cell_$not$gf180mcu_fd_sc_mcu7t5v0__oai32.v:0$8"/><g s:x="-1" s:y="10" s:pid="A"/><g s:x="27" s:y="10" s:pid="Y"/></g><g s:type="not" transform="translate(144,282)" s:width="30" s:height="20" id="cell_$not$gf180mcu_fd_sc_mcu7t5v0__oai32.v:0$9"><s:alias val="$_NOT_"/><s:alias val="$not"/><s:alias val="$logic_not"/><path d="M0,0 L0,20 L20,10 Z" class="cell_$not$gf180mcu_fd_sc_mcu7t5v0__oai32.v:0$9"/><circle cx="24" cy="10" r="3" class="cell_$not$gf180mcu_fd_sc_mcu7t5v0__oai32.v:0$9"/><g s:x="-1" s:y="10" s:pid="A"/><g s:x="27" s:y="10" s:pid="Y"/></g><g s:type="or" transform="translate(274,42)" s:width="30" s:height="25" id="cell_$or$gf180mcu_fd_sc_mcu7t5v0__oai32.v:50$4"><s:alias val="$or"/><s:alias val="$logic_or"/><s:alias val="$_OR_"/><s:alias val="$reduce_or"/><s:alias val="$reduce_bool"/><path d="M0,0 A30 25 0 0 1 0,25 A30 25 0 0 0 30,12.5 A30 25 0 0 0 0,0" class="cell_$or$gf180mcu_fd_sc_mcu7t5v0__oai32.v:50$4"/><g s:x="2" s:y="5" s:pid="A"/><g s:x="2" s:y="20" s:pid="B"/><g s:x="30" s:y="12.5" s:pid="Y"/></g><g s:type="inputExt" transform="translate(78,152)" s:width="30" s:height="20" id="cell_A3"><text x="15" y="-4" class="nodelabel cell_A3" s:attribute="ref">A3</text><s:alias val="$_inputExt_"/><path d="M0,0 L0,20 L15,20 L30,10 L15,0 Z" class="cell_A3"/><g s:x="30" s:y="10" s:pid="Y"/></g><g s:type="inputExt" transform="translate(12,87)" s:width="30" s:height="20" id="cell_A2"><text x="15" y="-4" class="nodelabel cell_A2" s:attribute="ref">A2</text><s:alias val="$_inputExt_"/><path d="M0,0 L0,20 L15,20 L30,10 L15,0 Z" class="cell_A2"/><g s:x="30" s:y="10" s:pid="Y"/></g><g s:type="inputExt" transform="translate(12,22)" s:width="30" s:height="20" id="cell_A1"><text x="15" y="-4" class="nodelabel cell_A1" s:attribute="ref">A1</text><s:alias val="$_inputExt_"/><path d="M0,0 L0,20 L15,20 L30,10 L15,0 Z" class="cell_A1"/><g s:x="30" s:y="10" s:pid="Y"/></g><g s:type="outputExt" transform="translate(339,44.5)" s:width="30" s:height="20" id="cell_ZN"><text x="15" y="-4" class="nodelabel cell_ZN" s:attribute="ref">ZN</text><s:alias val="$_outputExt_"/><path d="M30,0 L30,20 L15,20 L0,10 L15,0 Z" class="cell_ZN"/><g s:x="0" s:y="10" s:pid="A"/></g><g s:type="inputExt" transform="translate(78,217)" s:width="30" s:height="20" id="cell_B1"><text x="15" y="-4" class="nodelabel cell_B1" s:attribute="ref">B1</text><s:alias val="$_inputExt_"/><path d="M0,0 L0,20 L15,20 L30,10 L15,0 Z" class="cell_B1"/><g s:x="30" s:y="10" s:pid="Y"/></g><g s:type="inputExt" transform="translate(78,282)" s:width="30" s:height="20" id="cell_B2"><text x="15" y="-4" class="nodelabel cell_B2" s:attribute="ref">B2</text><s:alias val="$_inputExt_"/><path d="M0,0 L0,20 L15,20 L30,10 L15,0 Z" class="cell_B2"/><g s:x="30" s:y="10" s:pid="Y"/></g><line x1="105" x2="143.66666666666666" y1="32" y2="32" class="net_8 width_1" style="stroke-width: 1"/><line x1="105" x2="118" y1="97" y2="97" class="net_9 width_1" style="stroke-width: 1"/><line x1="118" x2="118" y1="97" y2="47" class="net_9 width_1" style="stroke-width: 1"/><line x1="118" x2="143.66666666666666" y1="47" y2="47" class="net_9 width_1" style="stroke-width: 1"/><line x1="173.66666666666666" x2="209" y1="39.5" y2="39.5" class="net_10 width_1" style="stroke-width: 1"/><line x1="171" x2="184" y1="162" y2="162" class="net_11 width_1" style="stroke-width: 1"/><line x1="184" x2="184" y1="162" y2="54.5" class="net_11 width_1" style="stroke-width: 1"/><line x1="184" x2="209" y1="54.5" y2="54.5" class="net_11 width_1" style="stroke-width: 1"/><line x1="171" x2="209" y1="227" y2="227" class="net_13 width_1" style="stroke-width: 1"/><line x1="171" x2="184" y1="292" y2="292" class="net_14 width_1" style="stroke-width: 1"/><line x1="184" x2="184" y1="292" y2="242" class="net_14 width_1" style="stroke-width: 1"/><line x1="184" x2="209" y1="242" y2="242" class="net_14 width_1" style="stroke-width: 1"/><line x1="42" x2="77" y1="32" y2="32" class="net_4 width_1" style="stroke-width: 1"/><line x1="42" x2="77" y1="97" y2="97" class="net_3 width_1" style="stroke-width: 1"/><line x1="108" x2="143" y1="162" y2="162" class="net_2 width_1" style="stroke-width: 1"/><line x1="108" x2="143" y1="227" y2="227" class="net_6 width_1" style="stroke-width: 1"/><line x1="108" x2="143" y1="292" y2="292" class="net_7 width_1" style="stroke-width: 1"/><line x1="239" x2="276" y1="47" y2="47" class="net_12 width_1" style="stroke-width: 1"/><line x1="239" x2="249" y1="234.5" y2="234.5" class="net_15 width_1" style="stroke-width: 1"/><line x1="249" x2="249" y1="234.5" y2="62" class="net_15 width_1" style="stroke-width: 1"/><line x1="249" x2="276" y1="62" y2="62" class="net_15 width_1" style="stroke-width: 1"/><line x1="304" x2="339" y1="54.5" y2="54.5" class="net_5 width_1" style="stroke-width: 1"/></svg>