<svg xmlns="http://www.w3.org/2000/svg" xmlns:xlink="http://www.w3.org/1999/xlink" xmlns:s="https://github.com/nturley/netlistsvg" width="516" height="324.5"><style>svg {
  stroke:#000;
  fill:none;
}
text {
  fill:#000;
  stroke:none;
  font-size:10px;
  font-weight: bold;
  font-family: "Courier New", monospace;
}
line {
    stroke-linecap: round;
}
.nodelabel {
  text-anchor: middle;
}
.inputPortLabel {
  text-anchor: end;
}
.splitjoinBody {
  fill:#000;
}</style><g s:type="and" transform="translate(148.66666666666666,43)" s:width="30" s:height="25" id="cell_$and$gf180mcu_fd_sc_mcu7t5v0__xnor3.v:28$1"><s:alias val="$and"/><s:alias val="$logic_and"/><s:alias val="$_AND_"/><s:alias val="$reduce_and"/><path d="M0,0 L0,25 L15,25 A15 12.5 0 0 0 15,0 Z" class="cell_$and$gf180mcu_fd_sc_mcu7t5v0__xnor3.v:28$1"/><g s:x="0" s:y="5" s:pid="A"/><g s:x="0" s:y="20" s:pid="B"/><g s:x="30" s:y="12.5" s:pid="Y"/></g><g s:type="and" transform="translate(214,12)" s:width="30" s:height="25" id="cell_$and$gf180mcu_fd_sc_mcu7t5v0__xnor3.v:28$2"><s:alias val="$and"/><s:alias val="$logic_and"/><s:alias val="$_AND_"/><s:alias val="$reduce_and"/><path d="M0,0 L0,25 L15,25 A15 12.5 0 0 0 15,0 Z" class="cell_$and$gf180mcu_fd_sc_mcu7t5v0__xnor3.v:28$2"/><g s:x="0" s:y="5" s:pid="A"/><g s:x="0" s:y="20" s:pid="B"/><g s:x="30" s:y="12.5" s:pid="Y"/></g><g s:type="and" transform="translate(148.66666666666666,113)" s:width="30" s:height="25" id="cell_$and$gf180mcu_fd_sc_mcu7t5v0__xnor3.v:36$3"><s:alias val="$and"/><s:alias val="$logic_and"/><s:alias val="$_AND_"/><s:alias val="$reduce_and"/><path d="M0,0 L0,25 L15,25 A15 12.5 0 0 0 15,0 Z" class="cell_$and$gf180mcu_fd_sc_mcu7t5v0__xnor3.v:36$3"/><g s:x="0" s:y="5" s:pid="A"/><g s:x="0" s:y="20" s:pid="B"/><g s:x="30" s:y="12.5" s:pid="Y"/></g><g s:type="and" transform="translate(214,120.5)" s:width="30" s:height="25" id="cell_$and$gf180mcu_fd_sc_mcu7t5v0__xnor3.v:36$4"><s:alias val="$and"/><s:alias val="$logic_and"/><s:alias val="$_AND_"/><s:alias val="$reduce_and"/><path d="M0,0 L0,25 L15,25 A15 12.5 0 0 0 15,0 Z" class="cell_$and$gf180mcu_fd_sc_mcu7t5v0__xnor3.v:36$4"/><g s:x="0" s:y="5" s:pid="A"/><g s:x="0" s:y="20" s:pid="B"/><g s:x="30" s:y="12.5" s:pid="Y"/></g><g s:type="and" transform="translate(214,209)" s:width="30" s:height="25" id="cell_$and$gf180mcu_fd_sc_mcu7t5v0__xnor3.v:44$5"><s:alias val="$and"/><s:alias val="$logic_and"/><s:alias val="$_AND_"/><s:alias val="$reduce_and"/><path d="M0,0 L0,25 L15,25 A15 12.5 0 0 0 15,0 Z" class="cell_$and$gf180mcu_fd_sc_mcu7t5v0__xnor3.v:44$5"/><g s:x="0" s:y="5" s:pid="A"/><g s:x="0" s:y="20" s:pid="B"/><g s:x="30" s:y="12.5" s:pid="Y"/></g><g s:type="and" transform="translate(279,216.5)" s:width="30" s:height="25" id="cell_$and$gf180mcu_fd_sc_mcu7t5v0__xnor3.v:44$6"><s:alias val="$and"/><s:alias val="$logic_and"/><s:alias val="$_AND_"/><s:alias val="$reduce_and"/><path d="M0,0 L0,25 L15,25 A15 12.5 0 0 0 15,0 Z" class="cell_$and$gf180mcu_fd_sc_mcu7t5v0__xnor3.v:44$6"/><g s:x="0" s:y="5" s:pid="A"/><g s:x="0" s:y="20" s:pid="B"/><g s:x="30" s:y="12.5" s:pid="Y"/></g><g s:type="and" transform="translate(279,276.5)" s:width="30" s:height="25" id="cell_$and$gf180mcu_fd_sc_mcu7t5v0__xnor3.v:48$7"><s:alias val="$and"/><s:alias val="$logic_and"/><s:alias val="$_AND_"/><s:alias val="$reduce_and"/><path d="M0,0 L0,25 L15,25 A15 12.5 0 0 0 15,0 Z" class="cell_$and$gf180mcu_fd_sc_mcu7t5v0__xnor3.v:48$7"/><g s:x="0" s:y="5" s:pid="A"/><g s:x="0" s:y="20" s:pid="B"/><g s:x="30" s:y="12.5" s:pid="Y"/></g><g s:type="and" transform="translate(344,284)" s:width="30" s:height="25" id="cell_$and$gf180mcu_fd_sc_mcu7t5v0__xnor3.v:48$8"><s:alias val="$and"/><s:alias val="$logic_and"/><s:alias val="$_AND_"/><s:alias val="$reduce_and"/><path d="M0,0 L0,25 L15,25 A15 12.5 0 0 0 15,0 Z" class="cell_$and$gf180mcu_fd_sc_mcu7t5v0__xnor3.v:48$8"/><g s:x="0" s:y="5" s:pid="A"/><g s:x="0" s:y="20" s:pid="B"/><g s:x="30" s:y="12.5" s:pid="Y"/></g><g s:type="not" transform="translate(78,163)" s:width="30" s:height="20" id="cell_$not$gf180mcu_fd_sc_mcu7t5v0__xnor3.v:0$12"><s:alias val="$_NOT_"/><s:alias val="$not"/><s:alias val="$logic_not"/><path d="M0,0 L0,20 L20,10 Z" class="cell_$not$gf180mcu_fd_sc_mcu7t5v0__xnor3.v:0$12"/><circle cx="24" cy="10" r="3" class="cell_$not$gf180mcu_fd_sc_mcu7t5v0__xnor3.v:0$12"/><g s:x="-1" s:y="10" s:pid="A"/><g s:x="27" s:y="10" s:pid="Y"/></g><g s:type="not" transform="translate(78,108)" s:width="30" s:height="20" id="cell_$not$gf180mcu_fd_sc_mcu7t5v0__xnor3.v:0$13"><s:alias val="$_NOT_"/><s:alias val="$not"/><s:alias val="$logic_not"/><path d="M0,0 L0,20 L20,10 Z" class="cell_$not$gf180mcu_fd_sc_mcu7t5v0__xnor3.v:0$13"/><circle cx="24" cy="10" r="3" class="cell_$not$gf180mcu_fd_sc_mcu7t5v0__xnor3.v:0$13"/><g s:x="-1" s:y="10" s:pid="A"/><g s:x="27" s:y="10" s:pid="Y"/></g><g s:type="not" transform="translate(149,204)" s:width="30" s:height="20" id="cell_$not$gf180mcu_fd_sc_mcu7t5v0__xnor3.v:0$14"><s:alias val="$_NOT_"/><s:alias val="$not"/><s:alias val="$logic_not"/><path d="M0,0 L0,20 L20,10 Z" class="cell_$not$gf180mcu_fd_sc_mcu7t5v0__xnor3.v:0$14"/><circle cx="24" cy="10" r="3" class="cell_$not$gf180mcu_fd_sc_mcu7t5v0__xnor3.v:0$14"/><g s:x="-1" s:y="10" s:pid="A"/><g s:x="27" s:y="10" s:pid="Y"/></g><g s:type="or" transform="translate(344,27)" s:width="30" s:height="25" id="cell_$or$gf180mcu_fd_sc_mcu7t5v0__xnor3.v:50$10"><s:alias val="$or"/><s:alias val="$logic_or"/><s:alias val="$_OR_"/><s:alias val="$reduce_or"/><s:alias val="$reduce_bool"/><path d="M0,0 A30 25 0 0 1 0,25 A30 25 0 0 0 30,12.5 A30 25 0 0 0 0,0" class="cell_$or$gf180mcu_fd_sc_mcu7t5v0__xnor3.v:50$10"/><g s:x="2" s:y="5" s:pid="A"/><g s:x="2" s:y="20" s:pid="B"/><g s:x="30" s:y="12.5" s:pid="Y"/></g><g s:type="or" transform="translate(409,34.5)" s:width="30" s:height="25" id="cell_$or$gf180mcu_fd_sc_mcu7t5v0__xnor3.v:50$11"><s:alias val="$or"/><s:alias val="$logic_or"/><s:alias val="$_OR_"/><s:alias val="$reduce_or"/><s:alias val="$reduce_bool"/><path d="M0,0 A30 25 0 0 1 0,25 A30 25 0 0 0 30,12.5 A30 25 0 0 0 0,0" class="cell_$or$gf180mcu_fd_sc_mcu7t5v0__xnor3.v:50$11"/><g s:x="2" s:y="5" s:pid="A"/><g s:x="2" s:y="20" s:pid="B"/><g s:x="30" s:y="12.5" s:pid="Y"/></g><g s:type="or" transform="translate(279,19.5)" s:width="30" s:height="25" id="cell_$or$gf180mcu_fd_sc_mcu7t5v0__xnor3.v:50$9"><s:alias val="$or"/><s:alias val="$logic_or"/><s:alias val="$_OR_"/><s:alias val="$reduce_or"/><s:alias val="$reduce_bool"/><path d="M0,0 A30 25 0 0 1 0,25 A30 25 0 0 0 30,12.5 A30 25 0 0 0 0,0" class="cell_$or$gf180mcu_fd_sc_mcu7t5v0__xnor3.v:50$9"/><g s:x="2" s:y="5" s:pid="A"/><g s:x="2" s:y="20" s:pid="B"/><g s:x="30" s:y="12.5" s:pid="Y"/></g><g s:type="inputExt" transform="translate(12,22)" s:width="30" s:height="20" id="cell_A2"><text x="15" y="-4" class="nodelabel cell_A2" s:attribute="ref">A2</text><s:alias val="$_inputExt_"/><path d="M0,0 L0,20 L15,20 L30,10 L15,0 Z" class="cell_A2"/><g s:x="30" s:y="10" s:pid="Y"/></g><g s:type="inputExt" transform="translate(78,53)" s:width="30" s:height="20" id="cell_A1"><text x="15" y="-4" class="nodelabel cell_A1" s:attribute="ref">A1</text><s:alias val="$_inputExt_"/><path d="M0,0 L0,20 L15,20 L30,10 L15,0 Z" class="cell_A1"/><g s:x="30" s:y="10" s:pid="Y"/></g><g s:type="inputExt" transform="translate(12,163)" s:width="30" s:height="20" id="cell_A3"><text x="15" y="-4" class="nodelabel cell_A3" s:attribute="ref">A3</text><s:alias val="$_inputExt_"/><path d="M0,0 L0,20 L15,20 L30,10 L15,0 Z" class="cell_A3"/><g s:x="30" s:y="10" s:pid="Y"/></g><g s:type="outputExt" transform="translate(474,37)" s:width="30" s:height="20" id="cell_ZN"><text x="15" y="-4" class="nodelabel cell_ZN" s:attribute="ref">ZN</text><s:alias val="$_outputExt_"/><path d="M30,0 L30,20 L15,20 L0,10 L15,0 Z" class="cell_ZN"/><g s:x="0" s:y="10" s:pid="A"/></g><line x1="105" x2="118" y1="173" y2="173" class="net_6 width_1" style="stroke-width: 1"/><line x1="118" x2="118" y1="173" y2="48" class="net_6 width_1" style="stroke-width: 1"/><circle cx="118" cy="173" r="2" style="fill:#000" class="net_6 width_1"/><line x1="118" x2="148.66666666666666" y1="48" y2="48" class="net_6 width_1" style="stroke-width: 1"/><line x1="105" x2="118" y1="173" y2="173" class="net_6 width_1" style="stroke-width: 1"/><line x1="118" x2="118" y1="173" y2="311.5" class="net_6 width_1" style="stroke-width: 1"/><line x1="118" x2="319" y1="311.5" y2="311.5" class="net_6 width_1" style="stroke-width: 1"/><line x1="319" x2="319" y1="311.5" y2="304" class="net_6 width_1" style="stroke-width: 1"/><line x1="319" x2="344" y1="304" y2="304" class="net_6 width_1" style="stroke-width: 1"/><line x1="108" x2="148.66666666666666" y1="63" y2="63" class="net_3 width_1" style="stroke-width: 1"/><line x1="108" x2="138" y1="63" y2="63" class="net_3 width_1" style="stroke-width: 1"/><line x1="138" x2="138" y1="63" y2="133" class="net_3 width_1" style="stroke-width: 1"/><circle cx="138" cy="63" r="2" style="fill:#000" class="net_3 width_1"/><circle cx="138" cy="133" r="2" style="fill:#000" class="net_3 width_1"/><line x1="138" x2="148.66666666666666" y1="133" y2="133" class="net_3 width_1" style="stroke-width: 1"/><line x1="108" x2="138" y1="63" y2="63" class="net_3 width_1" style="stroke-width: 1"/><line x1="138" x2="138" y1="63" y2="214" class="net_3 width_1" style="stroke-width: 1"/><line x1="138" x2="148" y1="214" y2="214" class="net_3 width_1" style="stroke-width: 1"/><line x1="178.66666666666666" x2="189" y1="55.5" y2="55.5" class="net_7 width_1" style="stroke-width: 1"/><line x1="189" x2="189" y1="55.5" y2="17" class="net_7 width_1" style="stroke-width: 1"/><line x1="189" x2="214" y1="17" y2="17" class="net_7 width_1" style="stroke-width: 1"/><line x1="42" x2="214" y1="32" y2="32" class="net_2 width_1" style="stroke-width: 1"/><line x1="42" x2="62" y1="32" y2="32" class="net_2 width_1" style="stroke-width: 1"/><line x1="62" x2="62" y1="32" y2="234" class="net_2 width_1" style="stroke-width: 1"/><line x1="62" x2="189" y1="234" y2="234" class="net_2 width_1" style="stroke-width: 1"/><line x1="189" x2="189" y1="234" y2="229" class="net_2 width_1" style="stroke-width: 1"/><circle cx="62" cy="32" r="2" style="fill:#000" class="net_2 width_1"/><line x1="189" x2="214" y1="229" y2="229" class="net_2 width_1" style="stroke-width: 1"/><line x1="42" x2="62" y1="32" y2="32" class="net_2 width_1" style="stroke-width: 1"/><line x1="62" x2="62" y1="32" y2="118" class="net_2 width_1" style="stroke-width: 1"/><circle cx="62" cy="118" r="2" style="fill:#000" class="net_2 width_1"/><line x1="62" x2="77" y1="118" y2="118" class="net_2 width_1" style="stroke-width: 1"/><line x1="105" x2="148.66666666666666" y1="118" y2="118" class="net_9 width_1" style="stroke-width: 1"/><line x1="105" x2="128" y1="118" y2="118" class="net_9 width_1" style="stroke-width: 1"/><line x1="128" x2="128" y1="118" y2="292.5" class="net_9 width_1" style="stroke-width: 1"/><line x1="128" x2="254" y1="292.5" y2="292.5" class="net_9 width_1" style="stroke-width: 1"/><line x1="254" x2="254" y1="292.5" y2="296.5" class="net_9 width_1" style="stroke-width: 1"/><circle cx="128" cy="118" r="2" style="fill:#000" class="net_9 width_1"/><line x1="254" x2="279" y1="296.5" y2="296.5" class="net_9 width_1" style="stroke-width: 1"/><line x1="178.66666666666666" x2="214" y1="125.5" y2="125.5" class="net_10 width_1" style="stroke-width: 1"/><line x1="42" x2="52" y1="173" y2="173" class="net_4 width_1" style="stroke-width: 1"/><line x1="52" x2="52" y1="173" y2="193" class="net_4 width_1" style="stroke-width: 1"/><line x1="52" x2="189" y1="193" y2="193" class="net_4 width_1" style="stroke-width: 1"/><line x1="189" x2="189" y1="193" y2="140.5" class="net_4 width_1" style="stroke-width: 1"/><circle cx="52" cy="173" r="2" style="fill:#000" class="net_4 width_1"/><circle cx="52" cy="193" r="2" style="fill:#000" class="net_4 width_1"/><line x1="189" x2="214" y1="140.5" y2="140.5" class="net_4 width_1" style="stroke-width: 1"/><line x1="42" x2="52" y1="173" y2="173" class="net_4 width_1" style="stroke-width: 1"/><line x1="52" x2="52" y1="173" y2="245" class="net_4 width_1" style="stroke-width: 1"/><line x1="52" x2="254" y1="245" y2="245" class="net_4 width_1" style="stroke-width: 1"/><line x1="254" x2="254" y1="245" y2="236.5" class="net_4 width_1" style="stroke-width: 1"/><line x1="254" x2="279" y1="236.5" y2="236.5" class="net_4 width_1" style="stroke-width: 1"/><line x1="42" x2="77" y1="173" y2="173" class="net_4 width_1" style="stroke-width: 1"/><line x1="176" x2="214" y1="214" y2="214" class="net_12 width_1" style="stroke-width: 1"/><line x1="176" x2="199" y1="214" y2="214" class="net_12 width_1" style="stroke-width: 1"/><line x1="199" x2="199" y1="214" y2="281.5" class="net_12 width_1" style="stroke-width: 1"/><circle cx="199" cy="214" r="2" style="fill:#000" class="net_12 width_1"/><line x1="199" x2="279" y1="281.5" y2="281.5" class="net_12 width_1" style="stroke-width: 1"/><line x1="244" x2="279" y1="221.5" y2="221.5" class="net_13 width_1" style="stroke-width: 1"/><line x1="309" x2="344" y1="289" y2="289" class="net_15 width_1" style="stroke-width: 1"/><line x1="309" x2="346" y1="32" y2="32" class="net_17 width_1" style="stroke-width: 1"/><line x1="309" x2="319" y1="229" y2="229" class="net_14 width_1" style="stroke-width: 1"/><line x1="319" x2="319" y1="229" y2="47" class="net_14 width_1" style="stroke-width: 1"/><line x1="319" x2="346" y1="47" y2="47" class="net_14 width_1" style="stroke-width: 1"/><line x1="374" x2="411" y1="39.5" y2="39.5" class="net_18 width_1" style="stroke-width: 1"/><line x1="374" x2="384" y1="296.5" y2="296.5" class="net_16 width_1" style="stroke-width: 1"/><line x1="384" x2="384" y1="296.5" y2="54.5" class="net_16 width_1" style="stroke-width: 1"/><line x1="384" x2="411" y1="54.5" y2="54.5" class="net_16 width_1" style="stroke-width: 1"/><line x1="244" x2="281" y1="24.5" y2="24.5" class="net_8 width_1" style="stroke-width: 1"/><line x1="244" x2="254" y1="133" y2="133" class="net_11 width_1" style="stroke-width: 1"/><line x1="254" x2="254" y1="133" y2="39.5" class="net_11 width_1" style="stroke-width: 1"/><line x1="254" x2="281" y1="39.5" y2="39.5" class="net_11 width_1" style="stroke-width: 1"/><line x1="439" x2="474" y1="47" y2="47" class="net_5 width_1" style="stroke-width: 1"/></svg>