<svg xmlns="http://www.w3.org/2000/svg" xmlns:xlink="http://www.w3.org/1999/xlink" xmlns:s="https://github.com/nturley/netlistsvg" width="510" height="372"><style>svg {
  stroke:#000;
  fill:none;
}
text {
  fill:#000;
  stroke:none;
  font-size:10px;
  font-weight: bold;
  font-family: "Courier New", monospace;
}
line {
    stroke-linecap: round;
}
.nodelabel {
  text-anchor: middle;
}
.inputPortLabel {
  text-anchor: end;
}
.splitjoinBody {
  fill:#000;
}</style><g s:type="and" transform="translate(143,17)" s:width="30" s:height="25" id="cell_$and$gf180mcu_fd_sc_mcu7t5v0__mux4.v:32$1"><s:alias val="$and"/><s:alias val="$logic_and"/><s:alias val="$_AND_"/><s:alias val="$reduce_and"/><path d="M0,0 L0,25 L15,25 A15 12.5 0 0 0 15,0 Z" class="cell_$and$gf180mcu_fd_sc_mcu7t5v0__mux4.v:32$1"/><g s:x="0" s:y="5" s:pid="A"/><g s:x="0" s:y="20" s:pid="B"/><g s:x="30" s:y="12.5" s:pid="Y"/></g><g s:type="and" transform="translate(208,24.5)" s:width="30" s:height="25" id="cell_$and$gf180mcu_fd_sc_mcu7t5v0__mux4.v:32$2"><s:alias val="$and"/><s:alias val="$logic_and"/><s:alias val="$_AND_"/><s:alias val="$reduce_and"/><path d="M0,0 L0,25 L15,25 A15 12.5 0 0 0 15,0 Z" class="cell_$and$gf180mcu_fd_sc_mcu7t5v0__mux4.v:32$2"/><g s:x="0" s:y="5" s:pid="A"/><g s:x="0" s:y="20" s:pid="B"/><g s:x="30" s:y="12.5" s:pid="Y"/></g><g s:type="and" transform="translate(143,142)" s:width="30" s:height="25" id="cell_$and$gf180mcu_fd_sc_mcu7t5v0__mux4.v:36$3"><s:alias val="$and"/><s:alias val="$logic_and"/><s:alias val="$_AND_"/><s:alias val="$reduce_and"/><path d="M0,0 L0,25 L15,25 A15 12.5 0 0 0 15,0 Z" class="cell_$and$gf180mcu_fd_sc_mcu7t5v0__mux4.v:36$3"/><g s:x="0" s:y="5" s:pid="A"/><g s:x="0" s:y="20" s:pid="B"/><g s:x="30" s:y="12.5" s:pid="Y"/></g><g s:type="and" transform="translate(208,149.5)" s:width="30" s:height="25" id="cell_$and$gf180mcu_fd_sc_mcu7t5v0__mux4.v:36$4"><s:alias val="$and"/><s:alias val="$logic_and"/><s:alias val="$_AND_"/><s:alias val="$reduce_and"/><path d="M0,0 L0,25 L15,25 A15 12.5 0 0 0 15,0 Z" class="cell_$and$gf180mcu_fd_sc_mcu7t5v0__mux4.v:36$4"/><g s:x="0" s:y="5" s:pid="A"/><g s:x="0" s:y="20" s:pid="B"/><g s:x="30" s:y="12.5" s:pid="Y"/></g><g s:type="and" transform="translate(208,238)" s:width="30" s:height="25" id="cell_$and$gf180mcu_fd_sc_mcu7t5v0__mux4.v:40$5"><s:alias val="$and"/><s:alias val="$logic_and"/><s:alias val="$_AND_"/><s:alias val="$reduce_and"/><path d="M0,0 L0,25 L15,25 A15 12.5 0 0 0 15,0 Z" class="cell_$and$gf180mcu_fd_sc_mcu7t5v0__mux4.v:40$5"/><g s:x="0" s:y="5" s:pid="A"/><g s:x="0" s:y="20" s:pid="B"/><g s:x="30" s:y="12.5" s:pid="Y"/></g><g s:type="and" transform="translate(273,245.5)" s:width="30" s:height="25" id="cell_$and$gf180mcu_fd_sc_mcu7t5v0__mux4.v:40$6"><s:alias val="$and"/><s:alias val="$logic_and"/><s:alias val="$_AND_"/><s:alias val="$reduce_and"/><path d="M0,0 L0,25 L15,25 A15 12.5 0 0 0 15,0 Z" class="cell_$and$gf180mcu_fd_sc_mcu7t5v0__mux4.v:40$6"/><g s:x="0" s:y="5" s:pid="A"/><g s:x="0" s:y="20" s:pid="B"/><g s:x="30" s:y="12.5" s:pid="Y"/></g><g s:type="and" transform="translate(273,323)" s:width="30" s:height="25" id="cell_$and$gf180mcu_fd_sc_mcu7t5v0__mux4.v:44$7"><s:alias val="$and"/><s:alias val="$logic_and"/><s:alias val="$_AND_"/><s:alias val="$reduce_and"/><path d="M0,0 L0,25 L15,25 A15 12.5 0 0 0 15,0 Z" class="cell_$and$gf180mcu_fd_sc_mcu7t5v0__mux4.v:44$7"/><g s:x="0" s:y="5" s:pid="A"/><g s:x="0" s:y="20" s:pid="B"/><g s:x="30" s:y="12.5" s:pid="Y"/></g><g s:type="and" transform="translate(338,330.5)" s:width="30" s:height="25" id="cell_$and$gf180mcu_fd_sc_mcu7t5v0__mux4.v:44$8"><s:alias val="$and"/><s:alias val="$logic_and"/><s:alias val="$_AND_"/><s:alias val="$reduce_and"/><path d="M0,0 L0,25 L15,25 A15 12.5 0 0 0 15,0 Z" class="cell_$and$gf180mcu_fd_sc_mcu7t5v0__mux4.v:44$8"/><g s:x="0" s:y="5" s:pid="A"/><g s:x="0" s:y="20" s:pid="B"/><g s:x="30" s:y="12.5" s:pid="Y"/></g><g s:type="not" transform="translate(78,12)" s:width="30" s:height="20" id="cell_$not$gf180mcu_fd_sc_mcu7t5v0__mux4.v:0$12"><s:alias val="$_NOT_"/><s:alias val="$not"/><s:alias val="$logic_not"/><path d="M0,0 L0,20 L20,10 Z" class="cell_$not$gf180mcu_fd_sc_mcu7t5v0__mux4.v:0$12"/><circle cx="24" cy="10" r="3" class="cell_$not$gf180mcu_fd_sc_mcu7t5v0__mux4.v:0$12"/><g s:x="-1" s:y="10" s:pid="A"/><g s:x="27" s:y="10" s:pid="Y"/></g><g s:type="not" transform="translate(78,137)" s:width="30" s:height="20" id="cell_$not$gf180mcu_fd_sc_mcu7t5v0__mux4.v:0$13"><s:alias val="$_NOT_"/><s:alias val="$not"/><s:alias val="$logic_not"/><path d="M0,0 L0,20 L20,10 Z" class="cell_$not$gf180mcu_fd_sc_mcu7t5v0__mux4.v:0$13"/><circle cx="24" cy="10" r="3" class="cell_$not$gf180mcu_fd_sc_mcu7t5v0__mux4.v:0$13"/><g s:x="-1" s:y="10" s:pid="A"/><g s:x="27" s:y="10" s:pid="Y"/></g><g s:type="or" transform="translate(338,39.5)" s:width="30" s:height="25" id="cell_$or$gf180mcu_fd_sc_mcu7t5v0__mux4.v:46$10"><s:alias val="$or"/><s:alias val="$logic_or"/><s:alias val="$_OR_"/><s:alias val="$reduce_or"/><s:alias val="$reduce_bool"/><path d="M0,0 A30 25 0 0 1 0,25 A30 25 0 0 0 30,12.5 A30 25 0 0 0 0,0" class="cell_$or$gf180mcu_fd_sc_mcu7t5v0__mux4.v:46$10"/><g s:x="2" s:y="5" s:pid="A"/><g s:x="2" s:y="20" s:pid="B"/><g s:x="30" s:y="12.5" s:pid="Y"/></g><g s:type="or" transform="translate(403,47)" s:width="30" s:height="25" id="cell_$or$gf180mcu_fd_sc_mcu7t5v0__mux4.v:46$11"><s:alias val="$or"/><s:alias val="$logic_or"/><s:alias val="$_OR_"/><s:alias val="$reduce_or"/><s:alias val="$reduce_bool"/><path d="M0,0 A30 25 0 0 1 0,25 A30 25 0 0 0 30,12.5 A30 25 0 0 0 0,0" class="cell_$or$gf180mcu_fd_sc_mcu7t5v0__mux4.v:46$11"/><g s:x="2" s:y="5" s:pid="A"/><g s:x="2" s:y="20" s:pid="B"/><g s:x="30" s:y="12.5" s:pid="Y"/></g><g s:type="or" transform="translate(273,32)" s:width="30" s:height="25" id="cell_$or$gf180mcu_fd_sc_mcu7t5v0__mux4.v:46$9"><s:alias val="$or"/><s:alias val="$logic_or"/><s:alias val="$_OR_"/><s:alias val="$reduce_or"/><s:alias val="$reduce_bool"/><path d="M0,0 A30 25 0 0 1 0,25 A30 25 0 0 0 30,12.5 A30 25 0 0 0 0,0" class="cell_$or$gf180mcu_fd_sc_mcu7t5v0__mux4.v:46$9"/><g s:x="2" s:y="5" s:pid="A"/><g s:x="2" s:y="20" s:pid="B"/><g s:x="30" s:y="12.5" s:pid="Y"/></g><g s:type="inputExt" transform="translate(143,264)" s:width="30" s:height="20" id="cell_I2"><text x="15" y="-4" class="nodelabel cell_I2" s:attribute="ref">I2</text><s:alias val="$_inputExt_"/><path d="M0,0 L0,20 L15,20 L30,10 L15,0 Z" class="cell_I2"/><g s:x="30" s:y="10" s:pid="Y"/></g><g s:type="inputExt" transform="translate(12,222)" s:width="30" s:height="20" id="cell_S0"><text x="15" y="-4" class="nodelabel cell_S0" s:attribute="ref">S0</text><s:alias val="$_inputExt_"/><path d="M0,0 L0,20 L15,20 L30,10 L15,0 Z" class="cell_S0"/><g s:x="30" s:y="10" s:pid="Y"/></g><g s:type="inputExt" transform="translate(208,318)" s:width="30" s:height="20" id="cell_I3"><text x="15" y="-4" class="nodelabel cell_I3" s:attribute="ref">I3</text><s:alias val="$_inputExt_"/><path d="M0,0 L0,20 L15,20 L30,10 L15,0 Z" class="cell_I3"/><g s:x="30" s:y="10" s:pid="Y"/></g><g s:type="outputExt" transform="translate(468,49.5)" s:width="30" s:height="20" id="cell_Z"><text x="15" y="-4" class="nodelabel cell_Z" s:attribute="ref">Z</text><s:alias val="$_outputExt_"/><path d="M30,0 L30,20 L15,20 L0,10 L15,0 Z" class="cell_Z"/><g s:x="0" s:y="10" s:pid="A"/></g><g s:type="inputExt" transform="translate(12,287)" s:width="30" s:height="20" id="cell_S1"><text x="15" y="-4" class="nodelabel cell_S1" s:attribute="ref">S1</text><s:alias val="$_inputExt_"/><path d="M0,0 L0,20 L15,20 L30,10 L15,0 Z" class="cell_S1"/><g s:x="30" s:y="10" s:pid="Y"/></g><g s:type="inputExt" transform="translate(78,202)" s:width="30" s:height="20" id="cell_I1"><text x="15" y="-4" class="nodelabel cell_I1" s:attribute="ref">I1</text><s:alias val="$_inputExt_"/><path d="M0,0 L0,20 L15,20 L30,10 L15,0 Z" class="cell_I1"/><g s:x="30" s:y="10" s:pid="Y"/></g><g s:type="inputExt" transform="translate(143,87)" s:width="30" s:height="20" id="cell_I0"><text x="15" y="-4" class="nodelabel cell_I0" s:attribute="ref">I0</text><s:alias val="$_inputExt_"/><path d="M0,0 L0,20 L15,20 L30,10 L15,0 Z" class="cell_I0"/><g s:x="30" s:y="10" s:pid="Y"/></g><line x1="105" x2="143" y1="22" y2="22" class="net_9 width_1" style="stroke-width: 1"/><line x1="105" x2="118" y1="22" y2="22" class="net_9 width_1" style="stroke-width: 1"/><line x1="118" x2="118" y1="22" y2="243" class="net_9 width_1" style="stroke-width: 1"/><circle cx="118" cy="22" r="2" style="fill:#000" class="net_9 width_1"/><line x1="118" x2="208" y1="243" y2="243" class="net_9 width_1" style="stroke-width: 1"/><line x1="105" x2="128" y1="147" y2="147" class="net_10 width_1" style="stroke-width: 1"/><line x1="128" x2="128" y1="147" y2="37" class="net_10 width_1" style="stroke-width: 1"/><circle cx="128" cy="147" r="2" style="fill:#000" class="net_10 width_1"/><line x1="128" x2="143" y1="37" y2="37" class="net_10 width_1" style="stroke-width: 1"/><line x1="105" x2="143" y1="147" y2="147" class="net_10 width_1" style="stroke-width: 1"/><line x1="173" x2="208" y1="29.5" y2="29.5" class="net_11 width_1" style="stroke-width: 1"/><line x1="173" x2="183" y1="97" y2="97" class="net_8 width_1" style="stroke-width: 1"/><line x1="183" x2="183" y1="97" y2="44.5" class="net_8 width_1" style="stroke-width: 1"/><line x1="183" x2="208" y1="44.5" y2="44.5" class="net_8 width_1" style="stroke-width: 1"/><line x1="108" x2="128" y1="212" y2="212" class="net_7 width_1" style="stroke-width: 1"/><line x1="128" x2="128" y1="212" y2="162" class="net_7 width_1" style="stroke-width: 1"/><line x1="128" x2="143" y1="162" y2="162" class="net_7 width_1" style="stroke-width: 1"/><line x1="173" x2="208" y1="154.5" y2="154.5" class="net_13 width_1" style="stroke-width: 1"/><line x1="42" x2="183" y1="232" y2="232" class="net_3 width_1" style="stroke-width: 1"/><line x1="183" x2="183" y1="232" y2="169.5" class="net_3 width_1" style="stroke-width: 1"/><line x1="183" x2="208" y1="169.5" y2="169.5" class="net_3 width_1" style="stroke-width: 1"/><line x1="42" x2="62" y1="232" y2="232" class="net_3 width_1" style="stroke-width: 1"/><line x1="62" x2="62" y1="232" y2="348" class="net_3 width_1" style="stroke-width: 1"/><line x1="62" x2="248" y1="348" y2="348" class="net_3 width_1" style="stroke-width: 1"/><line x1="248" x2="248" y1="348" y2="343" class="net_3 width_1" style="stroke-width: 1"/><circle cx="62" cy="232" r="2" style="fill:#000" class="net_3 width_1"/><line x1="248" x2="273" y1="343" y2="343" class="net_3 width_1" style="stroke-width: 1"/><line x1="42" x2="62" y1="232" y2="232" class="net_3 width_1" style="stroke-width: 1"/><line x1="62" x2="62" y1="232" y2="22" class="net_3 width_1" style="stroke-width: 1"/><line x1="62" x2="77" y1="22" y2="22" class="net_3 width_1" style="stroke-width: 1"/><line x1="173" x2="183" y1="274" y2="274" class="net_2 width_1" style="stroke-width: 1"/><line x1="183" x2="183" y1="274" y2="258" class="net_2 width_1" style="stroke-width: 1"/><line x1="183" x2="208" y1="258" y2="258" class="net_2 width_1" style="stroke-width: 1"/><line x1="238" x2="273" y1="250.5" y2="250.5" class="net_15 width_1" style="stroke-width: 1"/><line x1="42" x2="248" y1="297" y2="297" class="net_6 width_1" style="stroke-width: 1"/><line x1="248" x2="248" y1="297" y2="265.5" class="net_6 width_1" style="stroke-width: 1"/><line x1="248" x2="273" y1="265.5" y2="265.5" class="net_6 width_1" style="stroke-width: 1"/><line x1="42" x2="52" y1="297" y2="297" class="net_6 width_1" style="stroke-width: 1"/><line x1="52" x2="52" y1="297" y2="359" class="net_6 width_1" style="stroke-width: 1"/><line x1="52" x2="313" y1="359" y2="359" class="net_6 width_1" style="stroke-width: 1"/><line x1="313" x2="313" y1="359" y2="350.5" class="net_6 width_1" style="stroke-width: 1"/><circle cx="52" cy="297" r="2" style="fill:#000" class="net_6 width_1"/><line x1="313" x2="338" y1="350.5" y2="350.5" class="net_6 width_1" style="stroke-width: 1"/><line x1="42" x2="52" y1="297" y2="297" class="net_6 width_1" style="stroke-width: 1"/><line x1="52" x2="52" y1="297" y2="147" class="net_6 width_1" style="stroke-width: 1"/><line x1="52" x2="77" y1="147" y2="147" class="net_6 width_1" style="stroke-width: 1"/><line x1="238" x2="273" y1="328" y2="328" class="net_4 width_1" style="stroke-width: 1"/><line x1="303" x2="338" y1="335.5" y2="335.5" class="net_17 width_1" style="stroke-width: 1"/><line x1="303" x2="340" y1="44.5" y2="44.5" class="net_19 width_1" style="stroke-width: 1"/><line x1="303" x2="313" y1="258" y2="258" class="net_16 width_1" style="stroke-width: 1"/><line x1="313" x2="313" y1="258" y2="59.5" class="net_16 width_1" style="stroke-width: 1"/><line x1="313" x2="340" y1="59.5" y2="59.5" class="net_16 width_1" style="stroke-width: 1"/><line x1="368" x2="405" y1="52" y2="52" class="net_20 width_1" style="stroke-width: 1"/><line x1="368" x2="378" y1="343" y2="343" class="net_18 width_1" style="stroke-width: 1"/><line x1="378" x2="378" y1="343" y2="67" class="net_18 width_1" style="stroke-width: 1"/><line x1="378" x2="405" y1="67" y2="67" class="net_18 width_1" style="stroke-width: 1"/><line x1="238" x2="275" y1="37" y2="37" class="net_12 width_1" style="stroke-width: 1"/><line x1="238" x2="248" y1="162" y2="162" class="net_14 width_1" style="stroke-width: 1"/><line x1="248" x2="248" y1="162" y2="52" class="net_14 width_1" style="stroke-width: 1"/><line x1="248" x2="275" y1="52" y2="52" class="net_14 width_1" style="stroke-width: 1"/><line x1="433" x2="468" y1="59.5" y2="59.5" class="net_5 width_1" style="stroke-width: 1"/></svg>