<svg xmlns="http://www.w3.org/2000/svg" xmlns:xlink="http://www.w3.org/1999/xlink" xmlns:s="https://github.com/nturley/netlistsvg" width="424" height="244"><style>svg {
  stroke:#000;
  fill:none;
}
text {
  fill:#000;
  stroke:none;
  font-size:10px;
  font-weight: bold;
  font-family: "Courier New", monospace;
}
line {
    stroke-linecap: round;
}
.nodelabel {
  text-anchor: middle;
}
.inputPortLabel {
  text-anchor: end;
}
.splitjoinBody {
  fill:#000;
}</style><g s:type="not" transform="translate(252,87)" s:width="30" s:height="20" id="cell_$not$gf180mcu_fd_sc_mcu7t5v0__icgtn.v:0$3"><s:alias val="$_NOT_"/><s:alias val="$not"/><s:alias val="$logic_not"/><path d="M0,0 L0,20 L20,10 Z" class="cell_$not$gf180mcu_fd_sc_mcu7t5v0__icgtn.v:0$3"/><circle cx="24" cy="10" r="3" class="cell_$not$gf180mcu_fd_sc_mcu7t5v0__icgtn.v:0$3"/><g s:x="-1" s:y="10" s:pid="A"/><g s:x="27" s:y="10" s:pid="Y"/></g><g s:type="or" transform="translate(83,142)" s:width="30" s:height="25" id="cell_$or$gf180mcu_fd_sc_mcu7t5v0__icgtn.v:22$1"><s:alias val="$or"/><s:alias val="$logic_or"/><s:alias val="$_OR_"/><s:alias val="$reduce_or"/><s:alias val="$reduce_bool"/><path d="M0,0 A30 25 0 0 1 0,25 A30 25 0 0 0 30,12.5 A30 25 0 0 0 0,0" class="cell_$or$gf180mcu_fd_sc_mcu7t5v0__icgtn.v:22$1"/><g s:x="2" s:y="5" s:pid="A"/><g s:x="2" s:y="20" s:pid="B"/><g s:x="30" s:y="12.5" s:pid="Y"/></g><g s:type="or" transform="translate(317,27)" s:width="30" s:height="25" id="cell_$or$gf180mcu_fd_sc_mcu7t5v0__icgtn.v:30$2"><s:alias val="$or"/><s:alias val="$logic_or"/><s:alias val="$_OR_"/><s:alias val="$reduce_or"/><s:alias val="$reduce_bool"/><path d="M0,0 A30 25 0 0 1 0,25 A30 25 0 0 0 30,12.5 A30 25 0 0 0 0,0" class="cell_$or$gf180mcu_fd_sc_mcu7t5v0__icgtn.v:30$2"/><g s:x="2" s:y="5" s:pid="A"/><g s:x="2" s:y="20" s:pid="B"/><g s:x="30" s:y="12.5" s:pid="Y"/></g><g s:type="generic" transform="translate(178,86.5)" s:width="30" s:height="40" id="cell_x0"><text x="15" y="-4" class="nodelabel cell_x0" s:attribute="ref">udp_gf180mcu_fd_sc_mcu7t5v0_tt_25c_1v80_verilog_mgm_n_iq_latch_udp</text><rect width="30" height="100" s:generic="body" class="cell_x0"/><g transform="translate(0,10)" s:x="0" s:y="10" s:pid="in0" id="port_x0~C"><text x="-3" y="-4" class="inputPortLabel cell_x0">C</text></g><g transform="translate(0,30)" s:x="0" s:y="10" s:pid="in0" id="port_x0~CK"><text x="-3" y="-4" class="inputPortLabel cell_x0">CK</text></g><g transform="translate(0,50)" s:x="0" s:y="10" s:pid="in0" id="port_x0~D"><text x="-3" y="-4" class="inputPortLabel cell_x0">D</text></g><g transform="translate(0,70)" s:x="0" s:y="10" s:pid="in0" id="port_x0~N"><text x="-3" y="-4" class="inputPortLabel cell_x0">N</text></g><g transform="translate(0,90)" s:x="0" s:y="10" s:pid="in0" id="port_x0~P"><text x="-3" y="-4" class="inputPortLabel cell_x0">P</text></g><g transform="translate(30,10)" s:x="30" s:y="10" s:pid="out0" id="port_x0~Q"><text x="5" y="-4" style="fill:#000; stroke:none" class="cell_x0">Q</text></g></g><g s:type="inputExt" transform="translate(12,202)" s:width="30" s:height="20" id="cell_TE"><text x="15" y="-4" class="nodelabel cell_TE" s:attribute="ref">TE</text><s:alias val="$_inputExt_"/><path d="M0,0 L0,20 L15,20 L30,10 L15,0 Z" class="cell_TE"/><g s:x="30" s:y="10" s:pid="Y"/></g><g s:type="inputExt" transform="translate(12,137)" s:width="30" s:height="20" id="cell_E"><text x="15" y="-4" class="nodelabel cell_E" s:attribute="ref">E</text><s:alias val="$_inputExt_"/><path d="M0,0 L0,20 L15,20 L30,10 L15,0 Z" class="cell_E"/><g s:x="30" s:y="10" s:pid="Y"/></g><g s:type="inputExt" transform="translate(77,22)" s:width="30" s:height="20" id="cell_CLKN"><text x="15" y="-4" class="nodelabel cell_CLKN" s:attribute="ref">CLKN</text><s:alias val="$_inputExt_"/><path d="M0,0 L0,20 L15,20 L30,10 L15,0 Z" class="cell_CLKN"/><g s:x="30" s:y="10" s:pid="Y"/></g><g s:type="outputExt" transform="translate(382,29.5)" s:width="30" s:height="20" id="cell_Q"><text x="15" y="-4" class="nodelabel cell_Q" s:attribute="ref">Q</text><s:alias val="$_outputExt_"/><path d="M30,0 L30,20 L15,20 L0,10 L15,0 Z" class="cell_Q"/><g s:x="0" s:y="10" s:pid="A"/></g><g s:type="inputExt" transform="translate(77,212)" s:width="30" s:height="20" id="cell_notifier"><text x="15" y="-4" class="nodelabel cell_notifier" s:attribute="ref">notifier</text><s:alias val="$_inputExt_"/><path d="M0,0 L0,20 L15,20 L30,10 L15,0 Z" class="cell_notifier"/><g s:x="30" s:y="10" s:pid="Y"/></g><g s:type="constant" transform="translate(77,87)" s:width="30" s:height="20" id="cell_0"><text x="15" y="-4" class="nodelabel cell_0" s:attribute="ref">0</text><s:alias val="$_constant_"/><rect width="30" height="20" class="cell_0"/><g s:x="31" s:y="10" s:pid="Y"/></g><line x1="209" x2="251" y1="97" y2="97" class="net_7 width_1" style="stroke-width: 1"/><line x1="42" x2="85" y1="147" y2="147" class="net_3 width_1" style="stroke-width: 1"/><line x1="42" x2="52" y1="212" y2="212" class="net_2 width_1" style="stroke-width: 1"/><line x1="52" x2="52" y1="212" y2="162" class="net_2 width_1" style="stroke-width: 1"/><line x1="52" x2="85" y1="162" y2="162" class="net_2 width_1" style="stroke-width: 1"/><line x1="107" x2="319" y1="32" y2="32" class="net_4 width_1" style="stroke-width: 1"/><line x1="107" x2="145" y1="32" y2="32" class="net_4 width_1" style="stroke-width: 1"/><line x1="145" x2="145" y1="32" y2="117" class="net_4 width_1" style="stroke-width: 1"/><circle cx="145" cy="32" r="2" style="fill:#000" class="net_4 width_1"/><line x1="145" x2="178" y1="117" y2="117" class="net_4 width_1" style="stroke-width: 1"/><line x1="279" x2="292" y1="97" y2="97" class="net_8 width_1" style="stroke-width: 1"/><line x1="292" x2="292" y1="97" y2="47" class="net_8 width_1" style="stroke-width: 1"/><line x1="292" x2="319" y1="47" y2="47" class="net_8 width_1" style="stroke-width: 1"/><line x1="108" x2="178" y1="97" y2="97" class="net_10 width_1" style="stroke-width: 1"/><line x1="108" x2="135" y1="97" y2="97" class="net_10 width_1" style="stroke-width: 1"/><line x1="135" x2="135" y1="97" y2="177" class="net_10 width_1" style="stroke-width: 1"/><circle cx="135" cy="97" r="2" style="fill:#000" class="net_10 width_1"/><line x1="135" x2="178" y1="177" y2="177" class="net_10 width_1" style="stroke-width: 1"/><line x1="113" x2="145" y1="154.5" y2="154.5" class="net_9 width_1" style="stroke-width: 1"/><line x1="145" x2="145" y1="154.5" y2="137" class="net_9 width_1" style="stroke-width: 1"/><line x1="145" x2="178" y1="137" y2="137" class="net_9 width_1" style="stroke-width: 1"/><line x1="107" x2="155" y1="222" y2="222" class="net_6 width_1" style="stroke-width: 1"/><line x1="155" x2="155" y1="222" y2="157" class="net_6 width_1" style="stroke-width: 1"/><line x1="155" x2="178" y1="157" y2="157" class="net_6 width_1" style="stroke-width: 1"/><line x1="347" x2="382" y1="39.5" y2="39.5" class="net_5 width_1" style="stroke-width: 1"/></svg>