<svg xmlns="http://www.w3.org/2000/svg" xmlns:xlink="http://www.w3.org/1999/xlink" xmlns:s="https://github.com/nturley/netlistsvg" width="380" height="194"><style>svg {
  stroke:#000;
  fill:none;
}
text {
  fill:#000;
  stroke:none;
  font-size:10px;
  font-weight: bold;
  font-family: "Courier New", monospace;
}
line {
    stroke-linecap: round;
}
.nodelabel {
  text-anchor: middle;
}
.inputPortLabel {
  text-anchor: end;
}
.splitjoinBody {
  fill:#000;
}</style><g s:type="and" transform="translate(143,82)" s:width="30" s:height="25" id="cell_$and$gf180mcu_fd_sc_mcu7t5v0__mux2.v:24$1"><s:alias val="$and"/><s:alias val="$logic_and"/><s:alias val="$_AND_"/><s:alias val="$reduce_and"/><path d="M0,0 L0,25 L15,25 A15 12.5 0 0 0 15,0 Z" class="cell_$and$gf180mcu_fd_sc_mcu7t5v0__mux2.v:24$1"/><g s:x="0" s:y="5" s:pid="A"/><g s:x="0" s:y="20" s:pid="B"/><g s:x="30" s:y="12.5" s:pid="Y"/></g><g s:type="and" transform="translate(143,17)" s:width="30" s:height="25" id="cell_$and$gf180mcu_fd_sc_mcu7t5v0__mux2.v:32$2"><s:alias val="$and"/><s:alias val="$logic_and"/><s:alias val="$_AND_"/><s:alias val="$reduce_and"/><path d="M0,0 L0,25 L15,25 A15 12.5 0 0 0 15,0 Z" class="cell_$and$gf180mcu_fd_sc_mcu7t5v0__mux2.v:32$2"/><g s:x="0" s:y="5" s:pid="A"/><g s:x="0" s:y="20" s:pid="B"/><g s:x="30" s:y="12.5" s:pid="Y"/></g><g s:type="and" transform="translate(208,152)" s:width="30" s:height="25" id="cell_$and$gf180mcu_fd_sc_mcu7t5v0__mux2.v:36$3"><s:alias val="$and"/><s:alias val="$logic_and"/><s:alias val="$_AND_"/><s:alias val="$reduce_and"/><path d="M0,0 L0,25 L15,25 A15 12.5 0 0 0 15,0 Z" class="cell_$and$gf180mcu_fd_sc_mcu7t5v0__mux2.v:36$3"/><g s:x="0" s:y="5" s:pid="A"/><g s:x="0" s:y="20" s:pid="B"/><g s:x="30" s:y="12.5" s:pid="Y"/></g><g s:type="not" transform="translate(78,12)" s:width="30" s:height="20" id="cell_$not$gf180mcu_fd_sc_mcu7t5v0__mux2.v:0$6"><s:alias val="$_NOT_"/><s:alias val="$not"/><s:alias val="$logic_not"/><path d="M0,0 L0,20 L20,10 Z" class="cell_$not$gf180mcu_fd_sc_mcu7t5v0__mux2.v:0$6"/><circle cx="24" cy="10" r="3" class="cell_$not$gf180mcu_fd_sc_mcu7t5v0__mux2.v:0$6"/><g s:x="-1" s:y="10" s:pid="A"/><g s:x="27" s:y="10" s:pid="Y"/></g><g s:type="or" transform="translate(208,89.5)" s:width="30" s:height="25" id="cell_$or$gf180mcu_fd_sc_mcu7t5v0__mux2.v:38$4"><s:alias val="$or"/><s:alias val="$logic_or"/><s:alias val="$_OR_"/><s:alias val="$reduce_or"/><s:alias val="$reduce_bool"/><path d="M0,0 A30 25 0 0 1 0,25 A30 25 0 0 0 30,12.5 A30 25 0 0 0 0,0" class="cell_$or$gf180mcu_fd_sc_mcu7t5v0__mux2.v:38$4"/><g s:x="2" s:y="5" s:pid="A"/><g s:x="2" s:y="20" s:pid="B"/><g s:x="30" s:y="12.5" s:pid="Y"/></g><g s:type="or" transform="translate(273,144.5)" s:width="30" s:height="25" id="cell_$or$gf180mcu_fd_sc_mcu7t5v0__mux2.v:38$5"><s:alias val="$or"/><s:alias val="$logic_or"/><s:alias val="$_OR_"/><s:alias val="$reduce_or"/><s:alias val="$reduce_bool"/><path d="M0,0 A30 25 0 0 1 0,25 A30 25 0 0 0 30,12.5 A30 25 0 0 0 0,0" class="cell_$or$gf180mcu_fd_sc_mcu7t5v0__mux2.v:38$5"/><g s:x="2" s:y="5" s:pid="A"/><g s:x="2" s:y="20" s:pid="B"/><g s:x="30" s:y="12.5" s:pid="Y"/></g><g s:type="outputExt" transform="translate(338,147)" s:width="30" s:height="20" id="cell_Z"><text x="15" y="-4" class="nodelabel cell_Z" s:attribute="ref">Z</text><s:alias val="$_outputExt_"/><path d="M30,0 L30,20 L15,20 L0,10 L15,0 Z" class="cell_Z"/><g s:x="0" s:y="10" s:pid="A"/></g><g s:type="inputExt" transform="translate(78,142)" s:width="30" s:height="20" id="cell_I1"><text x="15" y="-4" class="nodelabel cell_I1" s:attribute="ref">I1</text><s:alias val="$_inputExt_"/><path d="M0,0 L0,20 L15,20 L30,10 L15,0 Z" class="cell_I1"/><g s:x="30" s:y="10" s:pid="Y"/></g><g s:type="inputExt" transform="translate(12,162)" s:width="30" s:height="20" id="cell_S"><text x="15" y="-4" class="nodelabel cell_S" s:attribute="ref">S</text><s:alias val="$_inputExt_"/><path d="M0,0 L0,20 L15,20 L30,10 L15,0 Z" class="cell_S"/><g s:x="30" s:y="10" s:pid="Y"/></g><g s:type="inputExt" transform="translate(78,77)" s:width="30" s:height="20" id="cell_I0"><text x="15" y="-4" class="nodelabel cell_I0" s:attribute="ref">I0</text><s:alias val="$_inputExt_"/><path d="M0,0 L0,20 L15,20 L30,10 L15,0 Z" class="cell_I0"/><g s:x="30" s:y="10" s:pid="Y"/></g><line x1="108" x2="143" y1="87" y2="87" class="net_5 width_1" style="stroke-width: 1"/><line x1="108" x2="118" y1="87" y2="87" class="net_5 width_1" style="stroke-width: 1"/><line x1="118" x2="118" y1="87" y2="37" class="net_5 width_1" style="stroke-width: 1"/><circle cx="118" cy="87" r="2" style="fill:#000" class="net_5 width_1"/><line x1="118" x2="143" y1="37" y2="37" class="net_5 width_1" style="stroke-width: 1"/><line x1="108" x2="118" y1="152" y2="152" class="net_3 width_1" style="stroke-width: 1"/><line x1="118" x2="118" y1="152" y2="102" class="net_3 width_1" style="stroke-width: 1"/><circle cx="118" cy="152" r="2" style="fill:#000" class="net_3 width_1"/><line x1="118" x2="143" y1="102" y2="102" class="net_3 width_1" style="stroke-width: 1"/><line x1="108" x2="183" y1="152" y2="152" class="net_3 width_1" style="stroke-width: 1"/><line x1="183" x2="183" y1="152" y2="157" class="net_3 width_1" style="stroke-width: 1"/><line x1="183" x2="208" y1="157" y2="157" class="net_3 width_1" style="stroke-width: 1"/><line x1="105" x2="143" y1="22" y2="22" class="net_7 width_1" style="stroke-width: 1"/><line x1="42" x2="208" y1="172" y2="172" class="net_4 width_1" style="stroke-width: 1"/><line x1="42" x2="52" y1="172" y2="172" class="net_4 width_1" style="stroke-width: 1"/><line x1="52" x2="52" y1="172" y2="22" class="net_4 width_1" style="stroke-width: 1"/><circle cx="52" cy="172" r="2" style="fill:#000" class="net_4 width_1"/><line x1="52" x2="77" y1="22" y2="22" class="net_4 width_1" style="stroke-width: 1"/><line x1="173" x2="210" y1="94.5" y2="94.5" class="net_6 width_1" style="stroke-width: 1"/><line x1="173" x2="183" y1="29.5" y2="29.5" class="net_8 width_1" style="stroke-width: 1"/><line x1="183" x2="183" y1="29.5" y2="109.5" class="net_8 width_1" style="stroke-width: 1"/><line x1="183" x2="210" y1="109.5" y2="109.5" class="net_8 width_1" style="stroke-width: 1"/><line x1="238" x2="248" y1="102" y2="102" class="net_10 width_1" style="stroke-width: 1"/><line x1="248" x2="248" y1="102" y2="149.5" class="net_10 width_1" style="stroke-width: 1"/><line x1="248" x2="275" y1="149.5" y2="149.5" class="net_10 width_1" style="stroke-width: 1"/><line x1="238" x2="275" y1="164.5" y2="164.5" class="net_9 width_1" style="stroke-width: 1"/><line x1="303" x2="338" y1="157" y2="157" class="net_2 width_1" style="stroke-width: 1"/></svg>