<svg xmlns="http://www.w3.org/2000/svg" xmlns:xlink="http://www.w3.org/1999/xlink" xmlns:s="https://github.com/nturley/netlistsvg" width="314" height="136.5"><style>svg {
  stroke:#000;
  fill:none;
}
text {
  fill:#000;
  stroke:none;
  font-size:10px;
  font-weight: bold;
  font-family: "Courier New", monospace;
}
line {
    stroke-linecap: round;
}
.nodelabel {
  text-anchor: middle;
}
.inputPortLabel {
  text-anchor: end;
}
.splitjoinBody {
  fill:#000;
}</style><g s:type="and" transform="translate(77,27)" s:width="30" s:height="25" id="cell_$and$gf180mcu_fd_sc_mcu7t5v0__and4.v:22$1"><s:alias val="$and"/><s:alias val="$logic_and"/><s:alias val="$_AND_"/><s:alias val="$reduce_and"/><path d="M0,0 L0,25 L15,25 A15 12.5 0 0 0 15,0 Z" class="cell_$and$gf180mcu_fd_sc_mcu7t5v0__and4.v:22$1"/><g s:x="0" s:y="5" s:pid="A"/><g s:x="0" s:y="20" s:pid="B"/><g s:x="30" s:y="12.5" s:pid="Y"/></g><g s:type="and" transform="translate(142,34.5)" s:width="30" s:height="25" id="cell_$and$gf180mcu_fd_sc_mcu7t5v0__and4.v:22$2"><s:alias val="$and"/><s:alias val="$logic_and"/><s:alias val="$_AND_"/><s:alias val="$reduce_and"/><path d="M0,0 L0,25 L15,25 A15 12.5 0 0 0 15,0 Z" class="cell_$and$gf180mcu_fd_sc_mcu7t5v0__and4.v:22$2"/><g s:x="0" s:y="5" s:pid="A"/><g s:x="0" s:y="20" s:pid="B"/><g s:x="30" s:y="12.5" s:pid="Y"/></g><g s:type="and" transform="translate(207,42)" s:width="30" s:height="25" id="cell_$and$gf180mcu_fd_sc_mcu7t5v0__and4.v:22$3"><s:alias val="$and"/><s:alias val="$logic_and"/><s:alias val="$_AND_"/><s:alias val="$reduce_and"/><path d="M0,0 L0,25 L15,25 A15 12.5 0 0 0 15,0 Z" class="cell_$and$gf180mcu_fd_sc_mcu7t5v0__and4.v:22$3"/><g s:x="0" s:y="5" s:pid="A"/><g s:x="0" s:y="20" s:pid="B"/><g s:x="30" s:y="12.5" s:pid="Y"/></g><g s:type="inputExt" transform="translate(12,22)" s:width="30" s:height="20" id="cell_A1"><text x="15" y="-4" class="nodelabel cell_A1" s:attribute="ref">A1</text><s:alias val="$_inputExt_"/><path d="M0,0 L0,20 L15,20 L30,10 L15,0 Z" class="cell_A1"/><g s:x="30" s:y="10" s:pid="Y"/></g><g s:type="inputExt" transform="translate(12,87)" s:width="30" s:height="20" id="cell_A2"><text x="15" y="-4" class="nodelabel cell_A2" s:attribute="ref">A2</text><s:alias val="$_inputExt_"/><path d="M0,0 L0,20 L15,20 L30,10 L15,0 Z" class="cell_A2"/><g s:x="30" s:y="10" s:pid="Y"/></g><g s:type="inputExt" transform="translate(77,97)" s:width="30" s:height="20" id="cell_A3"><text x="15" y="-4" class="nodelabel cell_A3" s:attribute="ref">A3</text><s:alias val="$_inputExt_"/><path d="M0,0 L0,20 L15,20 L30,10 L15,0 Z" class="cell_A3"/><g s:x="30" s:y="10" s:pid="Y"/></g><g s:type="inputExt" transform="translate(142,104.5)" s:width="30" s:height="20" id="cell_A4"><text x="15" y="-4" class="nodelabel cell_A4" s:attribute="ref">A4</text><s:alias val="$_inputExt_"/><path d="M0,0 L0,20 L15,20 L30,10 L15,0 Z" class="cell_A4"/><g s:x="30" s:y="10" s:pid="Y"/></g><g s:type="outputExt" transform="translate(272,44.5)" s:width="30" s:height="20" id="cell_Z"><text x="15" y="-4" class="nodelabel cell_Z" s:attribute="ref">Z</text><s:alias val="$_outputExt_"/><path d="M30,0 L30,20 L15,20 L0,10 L15,0 Z" class="cell_Z"/><g s:x="0" s:y="10" s:pid="A"/></g><line x1="42" x2="77" y1="32" y2="32" class="net_2 width_1" style="stroke-width: 1"/><line x1="42" x2="52" y1="97" y2="97" class="net_3 width_1" style="stroke-width: 1"/><line x1="52" x2="52" y1="97" y2="47" class="net_3 width_1" style="stroke-width: 1"/><line x1="52" x2="77" y1="47" y2="47" class="net_3 width_1" style="stroke-width: 1"/><line x1="107" x2="142" y1="39.5" y2="39.5" class="net_7 width_1" style="stroke-width: 1"/><line x1="107" x2="117" y1="107" y2="107" class="net_4 width_1" style="stroke-width: 1"/><line x1="117" x2="117" y1="107" y2="54.5" class="net_4 width_1" style="stroke-width: 1"/><line x1="117" x2="142" y1="54.5" y2="54.5" class="net_4 width_1" style="stroke-width: 1"/><line x1="172" x2="207" y1="47" y2="47" class="net_8 width_1" style="stroke-width: 1"/><line x1="172" x2="182" y1="114.5" y2="114.5" class="net_5 width_1" style="stroke-width: 1"/><line x1="182" x2="182" y1="114.5" y2="62" class="net_5 width_1" style="stroke-width: 1"/><line x1="182" x2="207" y1="62" y2="62" class="net_5 width_1" style="stroke-width: 1"/><line x1="237" x2="272" y1="54.5" y2="54.5" class="net_6 width_1" style="stroke-width: 1"/></svg>