<svg xmlns="http://www.w3.org/2000/svg" xmlns:xlink="http://www.w3.org/1999/xlink" xmlns:s="https://github.com/nturley/netlistsvg" width="526" height="415.5"><style>svg {
  stroke:#000;
  fill:none;
}
text {
  fill:#000;
  stroke:none;
  font-size:10px;
  font-weight: bold;
  font-family: "Courier New", monospace;
}
line {
    stroke-linecap: round;
}
.nodelabel {
  text-anchor: middle;
}
.inputPortLabel {
  text-anchor: end;
}
.splitjoinBody {
  fill:#000;
}</style><g s:type="and" transform="translate(158.66666666666666,59)" s:width="30" s:height="25" id="cell_$and$gf180mcu_fd_sc_mcu7t5v0__addf.v:24$1"><s:alias val="$and"/><s:alias val="$logic_and"/><s:alias val="$_AND_"/><s:alias val="$reduce_and"/><path d="M0,0 L0,25 L15,25 A15 12.5 0 0 0 15,0 Z" class="cell_$and$gf180mcu_fd_sc_mcu7t5v0__addf.v:24$1"/><g s:x="0" s:y="5" s:pid="A"/><g s:x="0" s:y="20" s:pid="B"/><g s:x="30" s:y="12.5" s:pid="Y"/></g><g s:type="and" transform="translate(289,28)" s:width="30" s:height="25" id="cell_$and$gf180mcu_fd_sc_mcu7t5v0__addf.v:28$2"><s:alias val="$and"/><s:alias val="$logic_and"/><s:alias val="$_AND_"/><s:alias val="$reduce_and"/><path d="M0,0 L0,25 L15,25 A15 12.5 0 0 0 15,0 Z" class="cell_$and$gf180mcu_fd_sc_mcu7t5v0__addf.v:28$2"/><g s:x="0" s:y="5" s:pid="A"/><g s:x="0" s:y="20" s:pid="B"/><g s:x="30" s:y="12.5" s:pid="Y"/></g><g s:type="and" transform="translate(354,89)" s:width="30" s:height="25" id="cell_$and$gf180mcu_fd_sc_mcu7t5v0__addf.v:32$3"><s:alias val="$and"/><s:alias val="$logic_and"/><s:alias val="$_AND_"/><s:alias val="$reduce_and"/><path d="M0,0 L0,25 L15,25 A15 12.5 0 0 0 15,0 Z" class="cell_$and$gf180mcu_fd_sc_mcu7t5v0__addf.v:32$3"/><g s:x="0" s:y="5" s:pid="A"/><g s:x="0" s:y="20" s:pid="B"/><g s:x="30" s:y="12.5" s:pid="Y"/></g><g s:type="and" transform="translate(224,134)" s:width="30" s:height="25" id="cell_$and$gf180mcu_fd_sc_mcu7t5v0__addf.v:38$7"><s:alias val="$and"/><s:alias val="$logic_and"/><s:alias val="$_AND_"/><s:alias val="$reduce_and"/><path d="M0,0 L0,25 L15,25 A15 12.5 0 0 0 15,0 Z" class="cell_$and$gf180mcu_fd_sc_mcu7t5v0__addf.v:38$7"/><g s:x="0" s:y="5" s:pid="A"/><g s:x="0" s:y="20" s:pid="B"/><g s:x="30" s:y="12.5" s:pid="Y"/></g><g s:type="and" transform="translate(158.66666666666666,235)" s:width="30" s:height="25" id="cell_$and$gf180mcu_fd_sc_mcu7t5v0__addf.v:50$8"><s:alias val="$and"/><s:alias val="$logic_and"/><s:alias val="$_AND_"/><s:alias val="$reduce_and"/><path d="M0,0 L0,25 L15,25 A15 12.5 0 0 0 15,0 Z" class="cell_$and$gf180mcu_fd_sc_mcu7t5v0__addf.v:50$8"/><g s:x="0" s:y="5" s:pid="A"/><g s:x="0" s:y="20" s:pid="B"/><g s:x="30" s:y="12.5" s:pid="Y"/></g><g s:type="and" transform="translate(224,194)" s:width="30" s:height="25" id="cell_$and$gf180mcu_fd_sc_mcu7t5v0__addf.v:50$9"><s:alias val="$and"/><s:alias val="$logic_and"/><s:alias val="$_AND_"/><s:alias val="$reduce_and"/><path d="M0,0 L0,25 L15,25 A15 12.5 0 0 0 15,0 Z" class="cell_$and$gf180mcu_fd_sc_mcu7t5v0__addf.v:50$9"/><g s:x="0" s:y="5" s:pid="A"/><g s:x="0" s:y="20" s:pid="B"/><g s:x="30" s:y="12.5" s:pid="Y"/></g><g s:type="and" transform="translate(224,300)" s:width="30" s:height="25" id="cell_$and$gf180mcu_fd_sc_mcu7t5v0__addf.v:58$10"><s:alias val="$and"/><s:alias val="$logic_and"/><s:alias val="$_AND_"/><s:alias val="$reduce_and"/><path d="M0,0 L0,25 L15,25 A15 12.5 0 0 0 15,0 Z" class="cell_$and$gf180mcu_fd_sc_mcu7t5v0__addf.v:58$10"/><g s:x="0" s:y="5" s:pid="A"/><g s:x="0" s:y="20" s:pid="B"/><g s:x="30" s:y="12.5" s:pid="Y"/></g><g s:type="and" transform="translate(289,307.5)" s:width="30" s:height="25" id="cell_$and$gf180mcu_fd_sc_mcu7t5v0__addf.v:58$11"><s:alias val="$and"/><s:alias val="$logic_and"/><s:alias val="$_AND_"/><s:alias val="$reduce_and"/><path d="M0,0 L0,25 L15,25 A15 12.5 0 0 0 15,0 Z" class="cell_$and$gf180mcu_fd_sc_mcu7t5v0__addf.v:58$11"/><g s:x="0" s:y="5" s:pid="A"/><g s:x="0" s:y="20" s:pid="B"/><g s:x="30" s:y="12.5" s:pid="Y"/></g><g s:type="and" transform="translate(289,367.5)" s:width="30" s:height="25" id="cell_$and$gf180mcu_fd_sc_mcu7t5v0__addf.v:62$12"><s:alias val="$and"/><s:alias val="$logic_and"/><s:alias val="$_AND_"/><s:alias val="$reduce_and"/><path d="M0,0 L0,25 L15,25 A15 12.5 0 0 0 15,0 Z" class="cell_$and$gf180mcu_fd_sc_mcu7t5v0__addf.v:62$12"/><g s:x="0" s:y="5" s:pid="A"/><g s:x="0" s:y="20" s:pid="B"/><g s:x="30" s:y="12.5" s:pid="Y"/></g><g s:type="and" transform="translate(354,375)" s:width="30" s:height="25" id="cell_$and$gf180mcu_fd_sc_mcu7t5v0__addf.v:62$13"><s:alias val="$and"/><s:alias val="$logic_and"/><s:alias val="$_AND_"/><s:alias val="$reduce_and"/><path d="M0,0 L0,25 L15,25 A15 12.5 0 0 0 15,0 Z" class="cell_$and$gf180mcu_fd_sc_mcu7t5v0__addf.v:62$13"/><g s:x="0" s:y="5" s:pid="A"/><g s:x="0" s:y="20" s:pid="B"/><g s:x="30" s:y="12.5" s:pid="Y"/></g><g s:type="not" transform="translate(78,300)" s:width="30" s:height="20" id="cell_$not$gf180mcu_fd_sc_mcu7t5v0__addf.v:0$17"><s:alias val="$_NOT_"/><s:alias val="$not"/><s:alias val="$logic_not"/><path d="M0,0 L0,20 L20,10 Z" class="cell_$not$gf180mcu_fd_sc_mcu7t5v0__addf.v:0$17"/><circle cx="24" cy="10" r="3" class="cell_$not$gf180mcu_fd_sc_mcu7t5v0__addf.v:0$17"/><g s:x="-1" s:y="10" s:pid="A"/><g s:x="27" s:y="10" s:pid="Y"/></g><g s:type="not" transform="translate(78,245)" s:width="30" s:height="20" id="cell_$not$gf180mcu_fd_sc_mcu7t5v0__addf.v:0$18"><s:alias val="$_NOT_"/><s:alias val="$not"/><s:alias val="$logic_not"/><path d="M0,0 L0,20 L20,10 Z" class="cell_$not$gf180mcu_fd_sc_mcu7t5v0__addf.v:0$18"/><circle cx="24" cy="10" r="3" class="cell_$not$gf180mcu_fd_sc_mcu7t5v0__addf.v:0$18"/><g s:x="-1" s:y="10" s:pid="A"/><g s:x="27" s:y="10" s:pid="Y"/></g><g s:type="not" transform="translate(159,295)" s:width="30" s:height="20" id="cell_$not$gf180mcu_fd_sc_mcu7t5v0__addf.v:0$19"><s:alias val="$_NOT_"/><s:alias val="$not"/><s:alias val="$logic_not"/><path d="M0,0 L0,20 L20,10 Z" class="cell_$not$gf180mcu_fd_sc_mcu7t5v0__addf.v:0$19"/><circle cx="24" cy="10" r="3" class="cell_$not$gf180mcu_fd_sc_mcu7t5v0__addf.v:0$19"/><g s:x="-1" s:y="10" s:pid="A"/><g s:x="27" s:y="10" s:pid="Y"/></g><g s:type="or" transform="translate(354,12)" s:width="30" s:height="25" id="cell_$or$gf180mcu_fd_sc_mcu7t5v0__addf.v:34$4"><s:alias val="$or"/><s:alias val="$logic_or"/><s:alias val="$_OR_"/><s:alias val="$reduce_or"/><s:alias val="$reduce_bool"/><path d="M0,0 A30 25 0 0 1 0,25 A30 25 0 0 0 30,12.5 A30 25 0 0 0 0,0" class="cell_$or$gf180mcu_fd_sc_mcu7t5v0__addf.v:34$4"/><g s:x="2" s:y="5" s:pid="A"/><g s:x="2" s:y="20" s:pid="B"/><g s:x="30" s:y="12.5" s:pid="Y"/></g><g s:type="or" transform="translate(419,19.5)" s:width="30" s:height="25" id="cell_$or$gf180mcu_fd_sc_mcu7t5v0__addf.v:34$5"><s:alias val="$or"/><s:alias val="$logic_or"/><s:alias val="$_OR_"/><s:alias val="$reduce_or"/><s:alias val="$reduce_bool"/><path d="M0,0 A30 25 0 0 1 0,25 A30 25 0 0 0 30,12.5 A30 25 0 0 0 0,0" class="cell_$or$gf180mcu_fd_sc_mcu7t5v0__addf.v:34$5"/><g s:x="2" s:y="5" s:pid="A"/><g s:x="2" s:y="20" s:pid="B"/><g s:x="30" s:y="12.5" s:pid="Y"/></g><g s:type="or" transform="translate(289,141.5)" s:width="30" s:height="25" id="cell_$or$gf180mcu_fd_sc_mcu7t5v0__addf.v:64$14"><s:alias val="$or"/><s:alias val="$logic_or"/><s:alias val="$_OR_"/><s:alias val="$reduce_or"/><s:alias val="$reduce_bool"/><path d="M0,0 A30 25 0 0 1 0,25 A30 25 0 0 0 30,12.5 A30 25 0 0 0 0,0" class="cell_$or$gf180mcu_fd_sc_mcu7t5v0__addf.v:64$14"/><g s:x="2" s:y="5" s:pid="A"/><g s:x="2" s:y="20" s:pid="B"/><g s:x="30" s:y="12.5" s:pid="Y"/></g><g s:type="or" transform="translate(354,149)" s:width="30" s:height="25" id="cell_$or$gf180mcu_fd_sc_mcu7t5v0__addf.v:64$15"><s:alias val="$or"/><s:alias val="$logic_or"/><s:alias val="$_OR_"/><s:alias val="$reduce_or"/><s:alias val="$reduce_bool"/><path d="M0,0 A30 25 0 0 1 0,25 A30 25 0 0 0 30,12.5 A30 25 0 0 0 0,0" class="cell_$or$gf180mcu_fd_sc_mcu7t5v0__addf.v:64$15"/><g s:x="2" s:y="5" s:pid="A"/><g s:x="2" s:y="20" s:pid="B"/><g s:x="30" s:y="12.5" s:pid="Y"/></g><g s:type="or" transform="translate(419,156.5)" s:width="30" s:height="25" id="cell_$or$gf180mcu_fd_sc_mcu7t5v0__addf.v:64$16"><s:alias val="$or"/><s:alias val="$logic_or"/><s:alias val="$_OR_"/><s:alias val="$reduce_or"/><s:alias val="$reduce_bool"/><path d="M0,0 A30 25 0 0 1 0,25 A30 25 0 0 0 30,12.5 A30 25 0 0 0 0,0" class="cell_$or$gf180mcu_fd_sc_mcu7t5v0__addf.v:64$16"/><g s:x="2" s:y="5" s:pid="A"/><g s:x="2" s:y="20" s:pid="B"/><g s:x="30" s:y="12.5" s:pid="Y"/></g><g s:type="outputExt" transform="translate(484,159)" s:width="30" s:height="20" id="cell_S"><text x="15" y="-4" class="nodelabel cell_S" s:attribute="ref">S</text><s:alias val="$_outputExt_"/><path d="M30,0 L30,20 L15,20 L0,10 L15,0 Z" class="cell_S"/><g s:x="0" s:y="10" s:pid="A"/></g><g s:type="inputExt" transform="translate(78,204)" s:width="30" s:height="20" id="cell_A"><text x="15" y="-4" class="nodelabel cell_A" s:attribute="ref">A</text><s:alias val="$_inputExt_"/><path d="M0,0 L0,20 L15,20 L30,10 L15,0 Z" class="cell_A"/><g s:x="30" s:y="10" s:pid="Y"/></g><g s:type="inputExt" transform="translate(12,224)" s:width="30" s:height="20" id="cell_CI"><text x="15" y="-4" class="nodelabel cell_CI" s:attribute="ref">CI</text><s:alias val="$_inputExt_"/><path d="M0,0 L0,20 L15,20 L30,10 L15,0 Z" class="cell_CI"/><g s:x="30" s:y="10" s:pid="Y"/></g><g s:type="inputExt" transform="translate(12,300)" s:width="30" s:height="20" id="cell_B"><text x="15" y="-4" class="nodelabel cell_B" s:attribute="ref">B</text><s:alias val="$_inputExt_"/><path d="M0,0 L0,20 L15,20 L30,10 L15,0 Z" class="cell_B"/><g s:x="30" s:y="10" s:pid="Y"/></g><g s:type="outputExt" transform="translate(484,22)" s:width="30" s:height="20" id="cell_CO"><text x="15" y="-4" class="nodelabel cell_CO" s:attribute="ref">CO</text><s:alias val="$_outputExt_"/><path d="M30,0 L30,20 L15,20 L0,10 L15,0 Z" class="cell_CO"/><g s:x="0" s:y="10" s:pid="A"/></g><line x1="108" x2="138" y1="214" y2="214" class="net_3 width_1" style="stroke-width: 1"/><line x1="138" x2="138" y1="214" y2="64" class="net_3 width_1" style="stroke-width: 1"/><circle cx="138" cy="214" r="2" style="fill:#000" class="net_3 width_1"/><circle cx="138" cy="64" r="2" style="fill:#000" class="net_3 width_1"/><line x1="138" x2="158.66666666666666" y1="64" y2="64" class="net_3 width_1" style="stroke-width: 1"/><line x1="108" x2="138" y1="214" y2="214" class="net_3 width_1" style="stroke-width: 1"/><line x1="138" x2="138" y1="214" y2="33" class="net_3 width_1" style="stroke-width: 1"/><line x1="138" x2="289" y1="33" y2="33" class="net_3 width_1" style="stroke-width: 1"/><line x1="108" x2="224" y1="214" y2="214" class="net_3 width_1" style="stroke-width: 1"/><line x1="108" x2="138" y1="214" y2="214" class="net_3 width_1" style="stroke-width: 1"/><line x1="138" x2="138" y1="214" y2="305" class="net_3 width_1" style="stroke-width: 1"/><line x1="138" x2="158" y1="305" y2="305" class="net_3 width_1" style="stroke-width: 1"/><line x1="42" x2="52" y1="310" y2="310" class="net_5 width_1" style="stroke-width: 1"/><line x1="52" x2="52" y1="310" y2="79" class="net_5 width_1" style="stroke-width: 1"/><circle cx="52" cy="310" r="2" style="fill:#000" class="net_5 width_1"/><line x1="52" x2="158.66666666666666" y1="79" y2="79" class="net_5 width_1" style="stroke-width: 1"/><line x1="42" x2="52" y1="310" y2="310" class="net_5 width_1" style="stroke-width: 1"/><line x1="52" x2="52" y1="310" y2="79" class="net_5 width_1" style="stroke-width: 1"/><line x1="52" x2="148" y1="79" y2="79" class="net_5 width_1" style="stroke-width: 1"/><line x1="148" x2="148" y1="79" y2="94" class="net_5 width_1" style="stroke-width: 1"/><circle cx="148" cy="79" r="2" style="fill:#000" class="net_5 width_1"/><line x1="148" x2="354" y1="94" y2="94" class="net_5 width_1" style="stroke-width: 1"/><line x1="42" x2="52" y1="310" y2="310" class="net_5 width_1" style="stroke-width: 1"/><line x1="52" x2="52" y1="310" y2="336" class="net_5 width_1" style="stroke-width: 1"/><line x1="52" x2="264" y1="336" y2="336" class="net_5 width_1" style="stroke-width: 1"/><line x1="264" x2="264" y1="336" y2="327.5" class="net_5 width_1" style="stroke-width: 1"/><line x1="264" x2="289" y1="327.5" y2="327.5" class="net_5 width_1" style="stroke-width: 1"/><line x1="42" x2="77" y1="310" y2="310" class="net_5 width_1" style="stroke-width: 1"/><line x1="42" x2="62" y1="234" y2="234" class="net_4 width_1" style="stroke-width: 1"/><line x1="62" x2="62" y1="234" y2="48" class="net_4 width_1" style="stroke-width: 1"/><circle cx="62" cy="234" r="2" style="fill:#000" class="net_4 width_1"/><line x1="62" x2="289" y1="48" y2="48" class="net_4 width_1" style="stroke-width: 1"/><line x1="42" x2="62" y1="234" y2="234" class="net_4 width_1" style="stroke-width: 1"/><line x1="62" x2="62" y1="234" y2="109" class="net_4 width_1" style="stroke-width: 1"/><circle cx="62" cy="109" r="2" style="fill:#000" class="net_4 width_1"/><line x1="62" x2="354" y1="109" y2="109" class="net_4 width_1" style="stroke-width: 1"/><line x1="42" x2="118" y1="234" y2="234" class="net_4 width_1" style="stroke-width: 1"/><line x1="118" x2="118" y1="234" y2="109" class="net_4 width_1" style="stroke-width: 1"/><line x1="118" x2="199" y1="109" y2="109" class="net_4 width_1" style="stroke-width: 1"/><line x1="199" x2="199" y1="109" y2="154" class="net_4 width_1" style="stroke-width: 1"/><circle cx="118" cy="109" r="2" style="fill:#000" class="net_4 width_1"/><circle cx="199" cy="109" r="2" style="fill:#000" class="net_4 width_1"/><line x1="199" x2="224" y1="154" y2="154" class="net_4 width_1" style="stroke-width: 1"/><line x1="42" x2="62" y1="234" y2="234" class="net_4 width_1" style="stroke-width: 1"/><line x1="62" x2="62" y1="234" y2="402.5" class="net_4 width_1" style="stroke-width: 1"/><line x1="62" x2="329" y1="402.5" y2="402.5" class="net_4 width_1" style="stroke-width: 1"/><line x1="329" x2="329" y1="402.5" y2="395" class="net_4 width_1" style="stroke-width: 1"/><line x1="329" x2="354" y1="395" y2="395" class="net_4 width_1" style="stroke-width: 1"/><line x1="42" x2="62" y1="234" y2="234" class="net_4 width_1" style="stroke-width: 1"/><line x1="62" x2="62" y1="234" y2="255" class="net_4 width_1" style="stroke-width: 1"/><circle cx="62" cy="255" r="2" style="fill:#000" class="net_4 width_1"/><line x1="62" x2="77" y1="255" y2="255" class="net_4 width_1" style="stroke-width: 1"/><line x1="188.66666666666666" x2="209" y1="71.5" y2="71.5" class="net_7 width_1" style="stroke-width: 1"/><line x1="209" x2="209" y1="71.5" y2="139" class="net_7 width_1" style="stroke-width: 1"/><circle cx="209" cy="71.5" r="2" style="fill:#000" class="net_7 width_1"/><line x1="209" x2="224" y1="139" y2="139" class="net_7 width_1" style="stroke-width: 1"/><line x1="188.66666666666666" x2="209" y1="71.5" y2="71.5" class="net_7 width_1" style="stroke-width: 1"/><line x1="209" x2="209" y1="71.5" y2="17" class="net_7 width_1" style="stroke-width: 1"/><line x1="209" x2="356" y1="17" y2="17" class="net_7 width_1" style="stroke-width: 1"/><line x1="105" x2="118" y1="310" y2="310" class="net_11 width_1" style="stroke-width: 1"/><line x1="118" x2="118" y1="310" y2="240" class="net_11 width_1" style="stroke-width: 1"/><circle cx="118" cy="310" r="2" style="fill:#000" class="net_11 width_1"/><line x1="118" x2="158.66666666666666" y1="240" y2="240" class="net_11 width_1" style="stroke-width: 1"/><line x1="105" x2="118" y1="310" y2="310" class="net_11 width_1" style="stroke-width: 1"/><line x1="118" x2="118" y1="310" y2="387.5" class="net_11 width_1" style="stroke-width: 1"/><line x1="118" x2="289" y1="387.5" y2="387.5" class="net_11 width_1" style="stroke-width: 1"/><line x1="105" x2="158.66666666666666" y1="255" y2="255" class="net_12 width_1" style="stroke-width: 1"/><line x1="105" x2="128" y1="255" y2="255" class="net_12 width_1" style="stroke-width: 1"/><line x1="128" x2="128" y1="255" y2="325" class="net_12 width_1" style="stroke-width: 1"/><line x1="128" x2="199" y1="325" y2="325" class="net_12 width_1" style="stroke-width: 1"/><line x1="199" x2="199" y1="325" y2="320" class="net_12 width_1" style="stroke-width: 1"/><circle cx="128" cy="255" r="2" style="fill:#000" class="net_12 width_1"/><line x1="199" x2="224" y1="320" y2="320" class="net_12 width_1" style="stroke-width: 1"/><line x1="188.66666666666666" x2="199" y1="247.5" y2="247.5" class="net_13 width_1" style="stroke-width: 1"/><line x1="199" x2="199" y1="247.5" y2="199" class="net_13 width_1" style="stroke-width: 1"/><line x1="199" x2="224" y1="199" y2="199" class="net_13 width_1" style="stroke-width: 1"/><line x1="186" x2="224" y1="305" y2="305" class="net_15 width_1" style="stroke-width: 1"/><line x1="186" x2="209" y1="305" y2="305" class="net_15 width_1" style="stroke-width: 1"/><line x1="209" x2="209" y1="305" y2="372.5" class="net_15 width_1" style="stroke-width: 1"/><circle cx="209" cy="305" r="2" style="fill:#000" class="net_15 width_1"/><line x1="209" x2="289" y1="372.5" y2="372.5" class="net_15 width_1" style="stroke-width: 1"/><line x1="254" x2="289" y1="312.5" y2="312.5" class="net_16 width_1" style="stroke-width: 1"/><line x1="319" x2="354" y1="380" y2="380" class="net_18 width_1" style="stroke-width: 1"/><line x1="319" x2="329" y1="40.5" y2="40.5" class="net_8 width_1" style="stroke-width: 1"/><line x1="329" x2="329" y1="40.5" y2="32" class="net_8 width_1" style="stroke-width: 1"/><line x1="329" x2="356" y1="32" y2="32" class="net_8 width_1" style="stroke-width: 1"/><line x1="384" x2="421" y1="24.5" y2="24.5" class="net_20 width_1" style="stroke-width: 1"/><line x1="384" x2="394" y1="101.5" y2="101.5" class="net_9 width_1" style="stroke-width: 1"/><line x1="394" x2="394" y1="101.5" y2="39.5" class="net_9 width_1" style="stroke-width: 1"/><line x1="394" x2="421" y1="39.5" y2="39.5" class="net_9 width_1" style="stroke-width: 1"/><line x1="254" x2="291" y1="146.5" y2="146.5" class="net_10 width_1" style="stroke-width: 1"/><line x1="254" x2="264" y1="206.5" y2="206.5" class="net_14 width_1" style="stroke-width: 1"/><line x1="264" x2="264" y1="206.5" y2="161.5" class="net_14 width_1" style="stroke-width: 1"/><line x1="264" x2="291" y1="161.5" y2="161.5" class="net_14 width_1" style="stroke-width: 1"/><line x1="319" x2="356" y1="154" y2="154" class="net_21 width_1" style="stroke-width: 1"/><line x1="319" x2="329" y1="320" y2="320" class="net_17 width_1" style="stroke-width: 1"/><line x1="329" x2="329" y1="320" y2="169" class="net_17 width_1" style="stroke-width: 1"/><line x1="329" x2="356" y1="169" y2="169" class="net_17 width_1" style="stroke-width: 1"/><line x1="384" x2="421" y1="161.5" y2="161.5" class="net_22 width_1" style="stroke-width: 1"/><line x1="384" x2="394" y1="387.5" y2="387.5" class="net_19 width_1" style="stroke-width: 1"/><line x1="394" x2="394" y1="387.5" y2="176.5" class="net_19 width_1" style="stroke-width: 1"/><line x1="394" x2="421" y1="176.5" y2="176.5" class="net_19 width_1" style="stroke-width: 1"/><line x1="449" x2="484" y1="169" y2="169" class="net_2 width_1" style="stroke-width: 1"/><line x1="449" x2="484" y1="32" y2="32" class="net_6 width_1" style="stroke-width: 1"/></svg>