<svg xmlns="http://www.w3.org/2000/svg" xmlns:xlink="http://www.w3.org/1999/xlink" xmlns:s="https://github.com/nturley/netlistsvg" width="239" height="121.5"><style>svg {
  stroke:#000;
  fill:none;
}
text {
  fill:#000;
  stroke:none;
  font-size:10px;
  font-weight: bold;
  font-family: "Courier New", monospace;
}
line {
    stroke-linecap: round;
}
.nodelabel {
  text-anchor: middle;
}
.inputPortLabel {
  text-anchor: end;
}
.splitjoinBody {
  fill:#000;
}</style><g s:type="and" transform="translate(77,29.5)" s:width="30" s:height="25" id="cell_$and$gf180mcu_fd_sc_mcu7t5v0__bufz.v:26$1"><s:alias val="$and"/><s:alias val="$logic_and"/><s:alias val="$_AND_"/><s:alias val="$reduce_and"/><path d="M0,0 L0,25 L15,25 A15 12.5 0 0 0 15,0 Z" class="cell_$and$gf180mcu_fd_sc_mcu7t5v0__bufz.v:26$1"/><g s:x="0" s:y="5" s:pid="A"/><g s:x="0" s:y="20" s:pid="B"/><g s:x="30" s:y="12.5" s:pid="Y"/></g><g s:type="mux" transform="translate(142,12)" s:width="20" s:height="40" id="cell_$ternary$gf180mcu_fd_sc_mcu7t5v0__bufz.v:0$2"><s:alias val="$pmux"/><s:alias val="$mux"/><s:alias val="$_MUX_"/><path d="M0,0 L20,10 L20,30 L0,40 Z" class="cell_$ternary$gf180mcu_fd_sc_mcu7t5v0__bufz.v:0$2"/><text x="5" y="32" class="nodelabel cell_$ternary$gf180mcu_fd_sc_mcu7t5v0__bufz.v:0$2" s:attribute="">1</text><text x="5" y="13" class="nodelabel cell_$ternary$gf180mcu_fd_sc_mcu7t5v0__bufz.v:0$2" s:attribute="">0</text><g s:x="0" s:y="10" s:pid="A"/><g s:x="0" s:y="30" s:pid="B"/><g s:x="10" s:y="35" s:pid="S"/><g s:x="20" s:y="20" s:pid="Y"/></g><g s:type="inputExt" transform="translate(12,24.5)" s:width="30" s:height="20" id="cell_EN"><text x="15" y="-4" class="nodelabel cell_EN" s:attribute="ref">EN</text><s:alias val="$_inputExt_"/><path d="M0,0 L0,20 L15,20 L30,10 L15,0 Z" class="cell_EN"/><g s:x="30" s:y="10" s:pid="Y"/></g><g s:type="inputExt" transform="translate(12,89.5)" s:width="30" s:height="20" id="cell_I"><text x="15" y="-4" class="nodelabel cell_I" s:attribute="ref">I</text><s:alias val="$_inputExt_"/><path d="M0,0 L0,20 L15,20 L30,10 L15,0 Z" class="cell_I"/><g s:x="30" s:y="10" s:pid="Y"/></g><g s:type="outputExt" transform="translate(197,22)" s:width="30" s:height="20" id="cell_Z"><text x="15" y="-4" class="nodelabel cell_Z" s:attribute="ref">Z</text><s:alias val="$_outputExt_"/><path d="M30,0 L30,20 L15,20 L0,10 L15,0 Z" class="cell_Z"/><g s:x="0" s:y="10" s:pid="A"/></g><line x1="42" x2="77" y1="34.5" y2="34.5" class="net_2 width_1" style="stroke-width: 1"/><line x1="42" x2="62" y1="34.5" y2="34.5" class="net_2 width_1" style="stroke-width: 1"/><line x1="62" x2="62" y1="34.5" y2="64.5" class="net_2 width_1" style="stroke-width: 1"/><line x1="62" x2="152" y1="64.5" y2="64.5" class="net_2 width_1" style="stroke-width: 1"/><circle cx="62" cy="34.5" r="2" style="fill:#000" class="net_2 width_1"/><line x1="152" x2="152" y1="64.5" y2="47" class="net_2 width_1" style="stroke-width: 1"/><line x1="42" x2="52" y1="99.5" y2="99.5" class="net_3 width_1" style="stroke-width: 1"/><line x1="52" x2="52" y1="99.5" y2="49.5" class="net_3 width_1" style="stroke-width: 1"/><line x1="52" x2="77" y1="49.5" y2="49.5" class="net_3 width_1" style="stroke-width: 1"/><line x1="107" x2="142" y1="42" y2="42" class="net_5 width_1" style="stroke-width: 1"/><line x1="162" x2="197" y1="32" y2="32" class="net_4 width_1" style="stroke-width: 1"/></svg>