<svg xmlns="http://www.w3.org/2000/svg" xmlns:xlink="http://www.w3.org/1999/xlink" xmlns:s="https://github.com/nturley/netlistsvg" width="777" height="422"><style>svg {
  stroke:#000;
  fill:none;
}
text {
  fill:#000;
  stroke:none;
  font-size:10px;
  font-weight: bold;
  font-family: "Courier New", monospace;
}
line {
    stroke-linecap: round;
}
.nodelabel {
  text-anchor: middle;
}
.inputPortLabel {
  text-anchor: end;
}
.splitjoinBody {
  fill:#000;
}</style><g s:type="and" transform="translate(143.66666666666666,27)" s:width="30" s:height="25" id="cell_$and$gf180mcu_fd_sc_mcu7t5v0__aoi222.v:36$1"><s:alias val="$and"/><s:alias val="$logic_and"/><s:alias val="$_AND_"/><s:alias val="$reduce_and"/><path d="M0,0 L0,25 L15,25 A15 12.5 0 0 0 15,0 Z" class="cell_$and$gf180mcu_fd_sc_mcu7t5v0__aoi222.v:36$1"/><g s:x="0" s:y="5" s:pid="A"/><g s:x="0" s:y="20" s:pid="B"/><g s:x="30" s:y="12.5" s:pid="Y"/></g><g s:type="and" transform="translate(214,34.5)" s:width="30" s:height="25" id="cell_$and$gf180mcu_fd_sc_mcu7t5v0__aoi222.v:36$2"><s:alias val="$and"/><s:alias val="$logic_and"/><s:alias val="$_AND_"/><s:alias val="$reduce_and"/><path d="M0,0 L0,25 L15,25 A15 12.5 0 0 0 15,0 Z" class="cell_$and$gf180mcu_fd_sc_mcu7t5v0__aoi222.v:36$2"/><g s:x="0" s:y="5" s:pid="A"/><g s:x="0" s:y="20" s:pid="B"/><g s:x="30" s:y="12.5" s:pid="Y"/></g><g s:type="and" transform="translate(214,94.5)" s:width="30" s:height="25" id="cell_$and$gf180mcu_fd_sc_mcu7t5v0__aoi222.v:44$4"><s:alias val="$and"/><s:alias val="$logic_and"/><s:alias val="$_AND_"/><s:alias val="$reduce_and"/><path d="M0,0 L0,25 L15,25 A15 12.5 0 0 0 15,0 Z" class="cell_$and$gf180mcu_fd_sc_mcu7t5v0__aoi222.v:44$4"/><g s:x="0" s:y="5" s:pid="A"/><g s:x="0" s:y="20" s:pid="B"/><g s:x="30" s:y="12.5" s:pid="Y"/></g><g s:type="and" transform="translate(214,154.5)" s:width="30" s:height="25" id="cell_$and$gf180mcu_fd_sc_mcu7t5v0__aoi222.v:52$5"><s:alias val="$and"/><s:alias val="$logic_and"/><s:alias val="$_AND_"/><s:alias val="$reduce_and"/><path d="M0,0 L0,25 L15,25 A15 12.5 0 0 0 15,0 Z" class="cell_$and$gf180mcu_fd_sc_mcu7t5v0__aoi222.v:52$5"/><g s:x="0" s:y="5" s:pid="A"/><g s:x="0" s:y="20" s:pid="B"/><g s:x="30" s:y="12.5" s:pid="Y"/></g><g s:type="and" transform="translate(279.6666666666667,162)" s:width="30" s:height="25" id="cell_$and$gf180mcu_fd_sc_mcu7t5v0__aoi222.v:52$6"><s:alias val="$and"/><s:alias val="$logic_and"/><s:alias val="$_AND_"/><s:alias val="$reduce_and"/><path d="M0,0 L0,25 L15,25 A15 12.5 0 0 0 15,0 Z" class="cell_$and$gf180mcu_fd_sc_mcu7t5v0__aoi222.v:52$6"/><g s:x="0" s:y="5" s:pid="A"/><g s:x="0" s:y="20" s:pid="B"/><g s:x="30" s:y="12.5" s:pid="Y"/></g><g s:type="and" transform="translate(345,192)" s:width="30" s:height="25" id="cell_$and$gf180mcu_fd_sc_mcu7t5v0__aoi222.v:56$8"><s:alias val="$and"/><s:alias val="$logic_and"/><s:alias val="$_AND_"/><s:alias val="$reduce_and"/><path d="M0,0 L0,25 L15,25 A15 12.5 0 0 0 15,0 Z" class="cell_$and$gf180mcu_fd_sc_mcu7t5v0__aoi222.v:56$8"/><g s:x="0" s:y="5" s:pid="A"/><g s:x="0" s:y="20" s:pid="B"/><g s:x="30" s:y="12.5" s:pid="Y"/></g><g s:type="and" transform="translate(410,207)" s:width="30" s:height="25" id="cell_$and$gf180mcu_fd_sc_mcu7t5v0__aoi222.v:64$10"><s:alias val="$and"/><s:alias val="$logic_and"/><s:alias val="$_AND_"/><s:alias val="$reduce_and"/><path d="M0,0 L0,25 L15,25 A15 12.5 0 0 0 15,0 Z" class="cell_$and$gf180mcu_fd_sc_mcu7t5v0__aoi222.v:64$10"/><g s:x="0" s:y="5" s:pid="A"/><g s:x="0" s:y="20" s:pid="B"/><g s:x="30" s:y="12.5" s:pid="Y"/></g><g s:type="and" transform="translate(345,238)" s:width="30" s:height="25" id="cell_$and$gf180mcu_fd_sc_mcu7t5v0__aoi222.v:64$9"><s:alias val="$and"/><s:alias val="$logic_and"/><s:alias val="$_AND_"/><s:alias val="$reduce_and"/><path d="M0,0 L0,25 L15,25 A15 12.5 0 0 0 15,0 Z" class="cell_$and$gf180mcu_fd_sc_mcu7t5v0__aoi222.v:64$9"/><g s:x="0" s:y="5" s:pid="A"/><g s:x="0" s:y="20" s:pid="B"/><g s:x="30" s:y="12.5" s:pid="Y"/></g><g s:type="and" transform="translate(475,245.5)" s:width="30" s:height="25" id="cell_$and$gf180mcu_fd_sc_mcu7t5v0__aoi222.v:68$12"><s:alias val="$and"/><s:alias val="$logic_and"/><s:alias val="$_AND_"/><s:alias val="$reduce_and"/><path d="M0,0 L0,25 L15,25 A15 12.5 0 0 0 15,0 Z" class="cell_$and$gf180mcu_fd_sc_mcu7t5v0__aoi222.v:68$12"/><g s:x="0" s:y="5" s:pid="A"/><g s:x="0" s:y="20" s:pid="B"/><g s:x="30" s:y="12.5" s:pid="Y"/></g><g s:type="and" transform="translate(475,315)" s:width="30" s:height="25" id="cell_$and$gf180mcu_fd_sc_mcu7t5v0__aoi222.v:72$13"><s:alias val="$and"/><s:alias val="$logic_and"/><s:alias val="$_AND_"/><s:alias val="$reduce_and"/><path d="M0,0 L0,25 L15,25 A15 12.5 0 0 0 15,0 Z" class="cell_$and$gf180mcu_fd_sc_mcu7t5v0__aoi222.v:72$13"/><g s:x="0" s:y="5" s:pid="A"/><g s:x="0" s:y="20" s:pid="B"/><g s:x="30" s:y="12.5" s:pid="Y"/></g><g s:type="and" transform="translate(540,322.5)" s:width="30" s:height="25" id="cell_$and$gf180mcu_fd_sc_mcu7t5v0__aoi222.v:72$14"><s:alias val="$and"/><s:alias val="$logic_and"/><s:alias val="$_AND_"/><s:alias val="$reduce_and"/><path d="M0,0 L0,25 L15,25 A15 12.5 0 0 0 15,0 Z" class="cell_$and$gf180mcu_fd_sc_mcu7t5v0__aoi222.v:72$14"/><g s:x="0" s:y="5" s:pid="A"/><g s:x="0" s:y="20" s:pid="B"/><g s:x="30" s:y="12.5" s:pid="Y"/></g><g s:type="and" transform="translate(605,352.5)" s:width="30" s:height="25" id="cell_$and$gf180mcu_fd_sc_mcu7t5v0__aoi222.v:76$16"><s:alias val="$and"/><s:alias val="$logic_and"/><s:alias val="$_AND_"/><s:alias val="$reduce_and"/><path d="M0,0 L0,25 L15,25 A15 12.5 0 0 0 15,0 Z" class="cell_$and$gf180mcu_fd_sc_mcu7t5v0__aoi222.v:76$16"/><g s:x="0" s:y="5" s:pid="A"/><g s:x="0" s:y="20" s:pid="B"/><g s:x="30" s:y="12.5" s:pid="Y"/></g><g s:type="not" transform="translate(78,22)" s:width="30" s:height="20" id="cell_$not$gf180mcu_fd_sc_mcu7t5v0__aoi222.v:0$24"><s:alias val="$_NOT_"/><s:alias val="$not"/><s:alias val="$logic_not"/><path d="M0,0 L0,20 L20,10 Z" class="cell_$not$gf180mcu_fd_sc_mcu7t5v0__aoi222.v:0$24"/><circle cx="24" cy="10" r="3" class="cell_$not$gf180mcu_fd_sc_mcu7t5v0__aoi222.v:0$24"/><g s:x="-1" s:y="10" s:pid="A"/><g s:x="27" s:y="10" s:pid="Y"/></g><g s:type="not" transform="translate(78,248)" s:width="30" s:height="20" id="cell_$not$gf180mcu_fd_sc_mcu7t5v0__aoi222.v:0$25"><s:alias val="$_NOT_"/><s:alias val="$not"/><s:alias val="$logic_not"/><path d="M0,0 L0,20 L20,10 Z" class="cell_$not$gf180mcu_fd_sc_mcu7t5v0__aoi222.v:0$25"/><circle cx="24" cy="10" r="3" class="cell_$not$gf180mcu_fd_sc_mcu7t5v0__aoi222.v:0$25"/><g s:x="-1" s:y="10" s:pid="A"/><g s:x="27" s:y="10" s:pid="Y"/></g><g s:type="not" transform="translate(144,179.5)" s:width="30" s:height="20" id="cell_$not$gf180mcu_fd_sc_mcu7t5v0__aoi222.v:0$26"><s:alias val="$_NOT_"/><s:alias val="$not"/><s:alias val="$logic_not"/><path d="M0,0 L0,20 L20,10 Z" class="cell_$not$gf180mcu_fd_sc_mcu7t5v0__aoi222.v:0$26"/><circle cx="24" cy="10" r="3" class="cell_$not$gf180mcu_fd_sc_mcu7t5v0__aoi222.v:0$26"/><g s:x="-1" s:y="10" s:pid="A"/><g s:x="27" s:y="10" s:pid="Y"/></g><g s:type="not" transform="translate(144,390)" s:width="30" s:height="20" id="cell_$not$gf180mcu_fd_sc_mcu7t5v0__aoi222.v:0$27"><s:alias val="$_NOT_"/><s:alias val="$not"/><s:alias val="$logic_not"/><path d="M0,0 L0,20 L20,10 Z" class="cell_$not$gf180mcu_fd_sc_mcu7t5v0__aoi222.v:0$27"/><circle cx="24" cy="10" r="3" class="cell_$not$gf180mcu_fd_sc_mcu7t5v0__aoi222.v:0$27"/><g s:x="-1" s:y="10" s:pid="A"/><g s:x="27" s:y="10" s:pid="Y"/></g><g s:type="not" transform="translate(144,325)" s:width="30" s:height="20" id="cell_$not$gf180mcu_fd_sc_mcu7t5v0__aoi222.v:0$28"><s:alias val="$_NOT_"/><s:alias val="$not"/><s:alias val="$logic_not"/><path d="M0,0 L0,20 L20,10 Z" class="cell_$not$gf180mcu_fd_sc_mcu7t5v0__aoi222.v:0$28"/><circle cx="24" cy="10" r="3" class="cell_$not$gf180mcu_fd_sc_mcu7t5v0__aoi222.v:0$28"/><g s:x="-1" s:y="10" s:pid="A"/><g s:x="27" s:y="10" s:pid="Y"/></g><g s:type="not" transform="translate(280,279)" s:width="30" s:height="20" id="cell_$not$gf180mcu_fd_sc_mcu7t5v0__aoi222.v:0$29"><s:alias val="$_NOT_"/><s:alias val="$not"/><s:alias val="$logic_not"/><path d="M0,0 L0,20 L20,10 Z" class="cell_$not$gf180mcu_fd_sc_mcu7t5v0__aoi222.v:0$29"/><circle cx="24" cy="10" r="3" class="cell_$not$gf180mcu_fd_sc_mcu7t5v0__aoi222.v:0$29"/><g s:x="-1" s:y="10" s:pid="A"/><g s:x="27" s:y="10" s:pid="Y"/></g><g s:type="or" transform="translate(279.6666666666667,42)" s:width="30" s:height="25" id="cell_$or$gf180mcu_fd_sc_mcu7t5v0__aoi222.v:78$17"><s:alias val="$or"/><s:alias val="$logic_or"/><s:alias val="$_OR_"/><s:alias val="$reduce_or"/><s:alias val="$reduce_bool"/><path d="M0,0 A30 25 0 0 1 0,25 A30 25 0 0 0 30,12.5 A30 25 0 0 0 0,0" class="cell_$or$gf180mcu_fd_sc_mcu7t5v0__aoi222.v:78$17"/><g s:x="2" s:y="5" s:pid="A"/><g s:x="2" s:y="20" s:pid="B"/><g s:x="30" s:y="12.5" s:pid="Y"/></g><g s:type="or" transform="translate(345,49.5)" s:width="30" s:height="25" id="cell_$or$gf180mcu_fd_sc_mcu7t5v0__aoi222.v:78$18"><s:alias val="$or"/><s:alias val="$logic_or"/><s:alias val="$_OR_"/><s:alias val="$reduce_or"/><s:alias val="$reduce_bool"/><path d="M0,0 A30 25 0 0 1 0,25 A30 25 0 0 0 30,12.5 A30 25 0 0 0 0,0" class="cell_$or$gf180mcu_fd_sc_mcu7t5v0__aoi222.v:78$18"/><g s:x="2" s:y="5" s:pid="A"/><g s:x="2" s:y="20" s:pid="B"/><g s:x="30" s:y="12.5" s:pid="Y"/></g><g s:type="or" transform="translate(410,57)" s:width="30" s:height="25" id="cell_$or$gf180mcu_fd_sc_mcu7t5v0__aoi222.v:78$19"><s:alias val="$or"/><s:alias val="$logic_or"/><s:alias val="$_OR_"/><s:alias val="$reduce_or"/><s:alias val="$reduce_bool"/><path d="M0,0 A30 25 0 0 1 0,25 A30 25 0 0 0 30,12.5 A30 25 0 0 0 0,0" class="cell_$or$gf180mcu_fd_sc_mcu7t5v0__aoi222.v:78$19"/><g s:x="2" s:y="5" s:pid="A"/><g s:x="2" s:y="20" s:pid="B"/><g s:x="30" s:y="12.5" s:pid="Y"/></g><g s:type="or" transform="translate(475,64.5)" s:width="30" s:height="25" id="cell_$or$gf180mcu_fd_sc_mcu7t5v0__aoi222.v:78$20"><s:alias val="$or"/><s:alias val="$logic_or"/><s:alias val="$_OR_"/><s:alias val="$reduce_or"/><s:alias val="$reduce_bool"/><path d="M0,0 A30 25 0 0 1 0,25 A30 25 0 0 0 30,12.5 A30 25 0 0 0 0,0" class="cell_$or$gf180mcu_fd_sc_mcu7t5v0__aoi222.v:78$20"/><g s:x="2" s:y="5" s:pid="A"/><g s:x="2" s:y="20" s:pid="B"/><g s:x="30" s:y="12.5" s:pid="Y"/></g><g s:type="or" transform="translate(540,72)" s:width="30" s:height="25" id="cell_$or$gf180mcu_fd_sc_mcu7t5v0__aoi222.v:78$21"><s:alias val="$or"/><s:alias val="$logic_or"/><s:alias val="$_OR_"/><s:alias val="$reduce_or"/><s:alias val="$reduce_bool"/><path d="M0,0 A30 25 0 0 1 0,25 A30 25 0 0 0 30,12.5 A30 25 0 0 0 0,0" class="cell_$or$gf180mcu_fd_sc_mcu7t5v0__aoi222.v:78$21"/><g s:x="2" s:y="5" s:pid="A"/><g s:x="2" s:y="20" s:pid="B"/><g s:x="30" s:y="12.5" s:pid="Y"/></g><g s:type="or" transform="translate(605,79.5)" s:width="30" s:height="25" id="cell_$or$gf180mcu_fd_sc_mcu7t5v0__aoi222.v:78$22"><s:alias val="$or"/><s:alias val="$logic_or"/><s:alias val="$_OR_"/><s:alias val="$reduce_or"/><s:alias val="$reduce_bool"/><path d="M0,0 A30 25 0 0 1 0,25 A30 25 0 0 0 30,12.5 A30 25 0 0 0 0,0" class="cell_$or$gf180mcu_fd_sc_mcu7t5v0__aoi222.v:78$22"/><g s:x="2" s:y="5" s:pid="A"/><g s:x="2" s:y="20" s:pid="B"/><g s:x="30" s:y="12.5" s:pid="Y"/></g><g s:type="or" transform="translate(670,87)" s:width="30" s:height="25" id="cell_$or$gf180mcu_fd_sc_mcu7t5v0__aoi222.v:78$23"><s:alias val="$or"/><s:alias val="$logic_or"/><s:alias val="$_OR_"/><s:alias val="$reduce_or"/><s:alias val="$reduce_bool"/><path d="M0,0 A30 25 0 0 1 0,25 A30 25 0 0 0 30,12.5 A30 25 0 0 0 0,0" class="cell_$or$gf180mcu_fd_sc_mcu7t5v0__aoi222.v:78$23"/><g s:x="2" s:y="5" s:pid="A"/><g s:x="2" s:y="20" s:pid="B"/><g s:x="30" s:y="12.5" s:pid="Y"/></g><g s:type="inputExt" transform="translate(78,390)" s:width="30" s:height="20" id="cell_C2"><text x="15" y="-4" class="nodelabel cell_C2" s:attribute="ref">C2</text><s:alias val="$_inputExt_"/><path d="M0,0 L0,20 L15,20 L30,10 L15,0 Z" class="cell_C2"/><g s:x="30" s:y="10" s:pid="Y"/></g><g s:type="inputExt" transform="translate(78,179.5)" s:width="30" s:height="20" id="cell_C1"><text x="15" y="-4" class="nodelabel cell_C1" s:attribute="ref">C1</text><s:alias val="$_inputExt_"/><path d="M0,0 L0,20 L15,20 L30,10 L15,0 Z" class="cell_C1"/><g s:x="30" s:y="10" s:pid="Y"/></g><g s:type="inputExt" transform="translate(12,248)" s:width="30" s:height="20" id="cell_B1"><text x="15" y="-4" class="nodelabel cell_B1" s:attribute="ref">B1</text><s:alias val="$_inputExt_"/><path d="M0,0 L0,20 L15,20 L30,10 L15,0 Z" class="cell_B1"/><g s:x="30" s:y="10" s:pid="Y"/></g><g s:type="outputExt" transform="translate(735,89.5)" s:width="30" s:height="20" id="cell_ZN"><text x="15" y="-4" class="nodelabel cell_ZN" s:attribute="ref">ZN</text><s:alias val="$_outputExt_"/><path d="M30,0 L30,20 L15,20 L0,10 L15,0 Z" class="cell_ZN"/><g s:x="0" s:y="10" s:pid="A"/></g><g s:type="inputExt" transform="translate(78,325)" s:width="30" s:height="20" id="cell_B2"><text x="15" y="-4" class="nodelabel cell_B2" s:attribute="ref">B2</text><s:alias val="$_inputExt_"/><path d="M0,0 L0,20 L15,20 L30,10 L15,0 Z" class="cell_B2"/><g s:x="30" s:y="10" s:pid="Y"/></g><g s:type="inputExt" transform="translate(214,279)" s:width="30" s:height="20" id="cell_A2"><text x="15" y="-4" class="nodelabel cell_A2" s:attribute="ref">A2</text><s:alias val="$_inputExt_"/><path d="M0,0 L0,20 L15,20 L30,10 L15,0 Z" class="cell_A2"/><g s:x="30" s:y="10" s:pid="Y"/></g><g s:type="inputExt" transform="translate(12,22)" s:width="30" s:height="20" id="cell_A1"><text x="15" y="-4" class="nodelabel cell_A1" s:attribute="ref">A1</text><s:alias val="$_inputExt_"/><path d="M0,0 L0,20 L15,20 L30,10 L15,0 Z" class="cell_A1"/><g s:x="30" s:y="10" s:pid="Y"/></g><line x1="105" x2="143.66666666666666" y1="32" y2="32" class="net_9 width_1" style="stroke-width: 1"/><line x1="105" x2="128" y1="32" y2="32" class="net_9 width_1" style="stroke-width: 1"/><line x1="128" x2="128" y1="32" y2="159.5" class="net_9 width_1" style="stroke-width: 1"/><circle cx="128" cy="32" r="2" style="fill:#000" class="net_9 width_1"/><line x1="128" x2="214" y1="159.5" y2="159.5" class="net_9 width_1" style="stroke-width: 1"/><line x1="105" x2="118" y1="258" y2="258" class="net_10 width_1" style="stroke-width: 1"/><line x1="118" x2="118" y1="258" y2="47" class="net_10 width_1" style="stroke-width: 1"/><circle cx="118" cy="258" r="2" style="fill:#000" class="net_10 width_1"/><line x1="118" x2="143.66666666666666" y1="47" y2="47" class="net_10 width_1" style="stroke-width: 1"/><line x1="105" x2="345" y1="258" y2="258" class="net_10 width_1" style="stroke-width: 1"/><line x1="173.66666666666666" x2="214" y1="39.5" y2="39.5" class="net_11 width_1" style="stroke-width: 1"/><line x1="173.66666666666666" x2="194" y1="39.5" y2="39.5" class="net_11 width_1" style="stroke-width: 1"/><line x1="194" x2="194" y1="39.5" y2="99.5" class="net_11 width_1" style="stroke-width: 1"/><circle cx="194" cy="39.5" r="2" style="fill:#000" class="net_11 width_1"/><line x1="194" x2="214" y1="99.5" y2="99.5" class="net_11 width_1" style="stroke-width: 1"/><line x1="171" x2="184" y1="189.5" y2="189.5" class="net_12 width_1" style="stroke-width: 1"/><line x1="184" x2="184" y1="189.5" y2="54.5" class="net_12 width_1" style="stroke-width: 1"/><circle cx="184" cy="189.5" r="2" style="fill:#000" class="net_12 width_1"/><line x1="184" x2="214" y1="54.5" y2="54.5" class="net_12 width_1" style="stroke-width: 1"/><line x1="171" x2="254" y1="189.5" y2="189.5" class="net_12 width_1" style="stroke-width: 1"/><line x1="254" x2="254" y1="189.5" y2="182" class="net_12 width_1" style="stroke-width: 1"/><line x1="254" x2="279.6666666666667" y1="182" y2="182" class="net_12 width_1" style="stroke-width: 1"/><line x1="171" x2="184" y1="189.5" y2="189.5" class="net_12 width_1" style="stroke-width: 1"/><line x1="184" x2="184" y1="189.5" y2="227" class="net_12 width_1" style="stroke-width: 1"/><circle cx="184" cy="227" r="2" style="fill:#000" class="net_12 width_1"/><line x1="184" x2="410" y1="227" y2="227" class="net_12 width_1" style="stroke-width: 1"/><line x1="171" x2="184" y1="189.5" y2="189.5" class="net_12 width_1" style="stroke-width: 1"/><line x1="184" x2="184" y1="189.5" y2="350" class="net_12 width_1" style="stroke-width: 1"/><line x1="184" x2="515" y1="350" y2="350" class="net_12 width_1" style="stroke-width: 1"/><line x1="515" x2="515" y1="350" y2="342.5" class="net_12 width_1" style="stroke-width: 1"/><line x1="515" x2="540" y1="342.5" y2="342.5" class="net_12 width_1" style="stroke-width: 1"/><line x1="171" x2="204" y1="400" y2="400" class="net_14 width_1" style="stroke-width: 1"/><line x1="204" x2="204" y1="400" y2="114.5" class="net_14 width_1" style="stroke-width: 1"/><line x1="204" x2="214" y1="114.5" y2="114.5" class="net_14 width_1" style="stroke-width: 1"/><line x1="171" x2="204" y1="400" y2="400" class="net_14 width_1" style="stroke-width: 1"/><line x1="204" x2="204" y1="400" y2="212" class="net_14 width_1" style="stroke-width: 1"/><circle cx="204" cy="212" r="2" style="fill:#000" class="net_14 width_1"/><line x1="204" x2="345" y1="212" y2="212" class="net_14 width_1" style="stroke-width: 1"/><line x1="171" x2="204" y1="400" y2="400" class="net_14 width_1" style="stroke-width: 1"/><line x1="204" x2="204" y1="400" y2="309" class="net_14 width_1" style="stroke-width: 1"/><line x1="204" x2="450" y1="309" y2="309" class="net_14 width_1" style="stroke-width: 1"/><line x1="450" x2="450" y1="309" y2="265.5" class="net_14 width_1" style="stroke-width: 1"/><circle cx="204" cy="309" r="2" style="fill:#000" class="net_14 width_1"/><line x1="450" x2="475" y1="265.5" y2="265.5" class="net_14 width_1" style="stroke-width: 1"/><line x1="171" x2="204" y1="400" y2="400" class="net_14 width_1" style="stroke-width: 1"/><line x1="204" x2="204" y1="400" y2="372.5" class="net_14 width_1" style="stroke-width: 1"/><circle cx="204" cy="372.5" r="2" style="fill:#000" class="net_14 width_1"/><line x1="204" x2="605" y1="372.5" y2="372.5" class="net_14 width_1" style="stroke-width: 1"/><line x1="171" x2="194" y1="335" y2="335" class="net_16 width_1" style="stroke-width: 1"/><line x1="194" x2="194" y1="335" y2="174.5" class="net_16 width_1" style="stroke-width: 1"/><circle cx="194" cy="335" r="2" style="fill:#000" class="net_16 width_1"/><line x1="194" x2="214" y1="174.5" y2="174.5" class="net_16 width_1" style="stroke-width: 1"/><line x1="171" x2="475" y1="335" y2="335" class="net_16 width_1" style="stroke-width: 1"/><line x1="244" x2="279.6666666666667" y1="167" y2="167" class="net_17 width_1" style="stroke-width: 1"/><line x1="244" x2="264" y1="167" y2="167" class="net_17 width_1" style="stroke-width: 1"/><line x1="264" x2="264" y1="167" y2="197" class="net_17 width_1" style="stroke-width: 1"/><circle cx="264" cy="167" r="2" style="fill:#000" class="net_17 width_1"/><line x1="264" x2="345" y1="197" y2="197" class="net_17 width_1" style="stroke-width: 1"/><line x1="375" x2="385" y1="250.5" y2="250.5" class="net_20 width_1" style="stroke-width: 1"/><line x1="385" x2="385" y1="250.5" y2="212" class="net_20 width_1" style="stroke-width: 1"/><circle cx="385" cy="250.5" r="2" style="fill:#000" class="net_20 width_1"/><line x1="385" x2="410" y1="212" y2="212" class="net_20 width_1" style="stroke-width: 1"/><line x1="375" x2="475" y1="250.5" y2="250.5" class="net_20 width_1" style="stroke-width: 1"/><line x1="307" x2="320" y1="289" y2="289" class="net_22 width_1" style="stroke-width: 1"/><line x1="320" x2="320" y1="289" y2="243" class="net_22 width_1" style="stroke-width: 1"/><circle cx="320" cy="289" r="2" style="fill:#000" class="net_22 width_1"/><line x1="320" x2="345" y1="243" y2="243" class="net_22 width_1" style="stroke-width: 1"/><line x1="307" x2="320" y1="289" y2="289" class="net_22 width_1" style="stroke-width: 1"/><line x1="320" x2="320" y1="289" y2="320" class="net_22 width_1" style="stroke-width: 1"/><line x1="320" x2="475" y1="320" y2="320" class="net_22 width_1" style="stroke-width: 1"/><line x1="505" x2="540" y1="327.5" y2="327.5" class="net_24 width_1" style="stroke-width: 1"/><line x1="505" x2="525" y1="327.5" y2="327.5" class="net_24 width_1" style="stroke-width: 1"/><line x1="525" x2="525" y1="327.5" y2="357.5" class="net_24 width_1" style="stroke-width: 1"/><circle cx="525" cy="327.5" r="2" style="fill:#000" class="net_24 width_1"/><line x1="525" x2="605" y1="357.5" y2="357.5" class="net_24 width_1" style="stroke-width: 1"/><line x1="42" x2="77" y1="32" y2="32" class="net_8 width_1" style="stroke-width: 1"/><line x1="42" x2="77" y1="258" y2="258" class="net_4 width_1" style="stroke-width: 1"/><line x1="108" x2="143" y1="189.5" y2="189.5" class="net_3 width_1" style="stroke-width: 1"/><line x1="108" x2="143" y1="400" y2="400" class="net_2 width_1" style="stroke-width: 1"/><line x1="108" x2="143" y1="335" y2="335" class="net_6 width_1" style="stroke-width: 1"/><line x1="244" x2="279" y1="289" y2="289" class="net_7 width_1" style="stroke-width: 1"/><line x1="244" x2="281.6666666666667" y1="47" y2="47" class="net_13 width_1" style="stroke-width: 1"/><line x1="244" x2="254" y1="107" y2="107" class="net_15 width_1" style="stroke-width: 1"/><line x1="254" x2="254" y1="107" y2="62" class="net_15 width_1" style="stroke-width: 1"/><line x1="254" x2="281.6666666666667" y1="62" y2="62" class="net_15 width_1" style="stroke-width: 1"/><line x1="309.6666666666667" x2="347" y1="54.5" y2="54.5" class="net_27 width_1" style="stroke-width: 1"/><line x1="309.6666666666667" x2="320" y1="174.5" y2="174.5" class="net_18 width_1" style="stroke-width: 1"/><line x1="320" x2="320" y1="174.5" y2="69.5" class="net_18 width_1" style="stroke-width: 1"/><line x1="320" x2="347" y1="69.5" y2="69.5" class="net_18 width_1" style="stroke-width: 1"/><line x1="375" x2="412" y1="62" y2="62" class="net_28 width_1" style="stroke-width: 1"/><line x1="375" x2="385" y1="204.5" y2="204.5" class="net_19 width_1" style="stroke-width: 1"/><line x1="385" x2="385" y1="204.5" y2="77" class="net_19 width_1" style="stroke-width: 1"/><line x1="385" x2="412" y1="77" y2="77" class="net_19 width_1" style="stroke-width: 1"/><line x1="440" x2="477" y1="69.5" y2="69.5" class="net_29 width_1" style="stroke-width: 1"/><line x1="440" x2="450" y1="219.5" y2="219.5" class="net_21 width_1" style="stroke-width: 1"/><line x1="450" x2="450" y1="219.5" y2="84.5" class="net_21 width_1" style="stroke-width: 1"/><line x1="450" x2="477" y1="84.5" y2="84.5" class="net_21 width_1" style="stroke-width: 1"/><line x1="505" x2="542" y1="77" y2="77" class="net_30 width_1" style="stroke-width: 1"/><line x1="505" x2="515" y1="258" y2="258" class="net_23 width_1" style="stroke-width: 1"/><line x1="515" x2="515" y1="258" y2="92" class="net_23 width_1" style="stroke-width: 1"/><line x1="515" x2="542" y1="92" y2="92" class="net_23 width_1" style="stroke-width: 1"/><line x1="570" x2="607" y1="84.5" y2="84.5" class="net_31 width_1" style="stroke-width: 1"/><line x1="570" x2="580" y1="335" y2="335" class="net_25 width_1" style="stroke-width: 1"/><line x1="580" x2="580" y1="335" y2="99.5" class="net_25 width_1" style="stroke-width: 1"/><line x1="580" x2="607" y1="99.5" y2="99.5" class="net_25 width_1" style="stroke-width: 1"/><line x1="635" x2="672" y1="92" y2="92" class="net_32 width_1" style="stroke-width: 1"/><line x1="635" x2="645" y1="365" y2="365" class="net_26 width_1" style="stroke-width: 1"/><line x1="645" x2="645" y1="365" y2="107" class="net_26 width_1" style="stroke-width: 1"/><line x1="645" x2="672" y1="107" y2="107" class="net_26 width_1" style="stroke-width: 1"/><line x1="700" x2="735" y1="99.5" y2="99.5" class="net_5 width_1" style="stroke-width: 1"/></svg>