<svg xmlns="http://www.w3.org/2000/svg" xmlns:xlink="http://www.w3.org/1999/xlink" xmlns:s="https://github.com/nturley/netlistsvg" width="550" height="309"><style>svg {
  stroke:#000;
  fill:none;
}
text {
  fill:#000;
  stroke:none;
  font-size:10px;
  font-weight: bold;
  font-family: "Courier New", monospace;
}
line {
    stroke-linecap: round;
}
.nodelabel {
  text-anchor: middle;
}
.inputPortLabel {
  text-anchor: end;
}
.splitjoinBody {
  fill:#000;
}</style><g s:type="and" transform="translate(143,127)" s:width="30" s:height="25" id="cell_$and$gf180mcu_fd_sc_mcu7t5v0__sdffsnq.v:34$1"><s:alias val="$and"/><s:alias val="$logic_and"/><s:alias val="$_AND_"/><s:alias val="$reduce_and"/><path d="M0,0 L0,25 L15,25 A15 12.5 0 0 0 15,0 Z" class="cell_$and$gf180mcu_fd_sc_mcu7t5v0__sdffsnq.v:34$1"/><g s:x="0" s:y="5" s:pid="A"/><g s:x="0" s:y="20" s:pid="B"/><g s:x="30" s:y="12.5" s:pid="Y"/></g><g s:type="and" transform="translate(143,242)" s:width="30" s:height="25" id="cell_$and$gf180mcu_fd_sc_mcu7t5v0__sdffsnq.v:42$2"><s:alias val="$and"/><s:alias val="$logic_and"/><s:alias val="$_AND_"/><s:alias val="$reduce_and"/><path d="M0,0 L0,25 L15,25 A15 12.5 0 0 0 15,0 Z" class="cell_$and$gf180mcu_fd_sc_mcu7t5v0__sdffsnq.v:42$2"/><g s:x="0" s:y="5" s:pid="A"/><g s:x="0" s:y="20" s:pid="B"/><g s:x="30" s:y="12.5" s:pid="Y"/></g><g s:type="and" transform="translate(208,272)" s:width="30" s:height="25" id="cell_$and$gf180mcu_fd_sc_mcu7t5v0__sdffsnq.v:46$3"><s:alias val="$and"/><s:alias val="$logic_and"/><s:alias val="$_AND_"/><s:alias val="$reduce_and"/><path d="M0,0 L0,25 L15,25 A15 12.5 0 0 0 15,0 Z" class="cell_$and$gf180mcu_fd_sc_mcu7t5v0__sdffsnq.v:46$3"/><g s:x="0" s:y="5" s:pid="A"/><g s:x="0" s:y="20" s:pid="B"/><g s:x="30" s:y="12.5" s:pid="Y"/></g><g s:type="not" transform="translate(443,104.5)" s:width="30" s:height="20" id="cell_$not$gf180mcu_fd_sc_mcu7t5v0__sdffsnq.v:0$10"><s:alias val="$_NOT_"/><s:alias val="$not"/><s:alias val="$logic_not"/><path d="M0,0 L0,20 L20,10 Z" class="cell_$not$gf180mcu_fd_sc_mcu7t5v0__sdffsnq.v:0$10"/><circle cx="24" cy="10" r="3" class="cell_$not$gf180mcu_fd_sc_mcu7t5v0__sdffsnq.v:0$10"/><g s:x="-1" s:y="10" s:pid="A"/><g s:x="27" s:y="10" s:pid="Y"/></g><g s:type="not" transform="translate(282,22)" s:width="30" s:height="20" id="cell_$not$gf180mcu_fd_sc_mcu7t5v0__sdffsnq.v:0$6"><s:alias val="$_NOT_"/><s:alias val="$not"/><s:alias val="$logic_not"/><path d="M0,0 L0,20 L20,10 Z" class="cell_$not$gf180mcu_fd_sc_mcu7t5v0__sdffsnq.v:0$6"/><circle cx="24" cy="10" r="3" class="cell_$not$gf180mcu_fd_sc_mcu7t5v0__sdffsnq.v:0$6"/><g s:x="-1" s:y="10" s:pid="A"/><g s:x="27" s:y="10" s:pid="Y"/></g><g s:type="not" transform="translate(78,122)" s:width="30" s:height="20" id="cell_$not$gf180mcu_fd_sc_mcu7t5v0__sdffsnq.v:0$7"><s:alias val="$_NOT_"/><s:alias val="$not"/><s:alias val="$logic_not"/><path d="M0,0 L0,20 L20,10 Z" class="cell_$not$gf180mcu_fd_sc_mcu7t5v0__sdffsnq.v:0$7"/><circle cx="24" cy="10" r="3" class="cell_$not$gf180mcu_fd_sc_mcu7t5v0__sdffsnq.v:0$7"/><g s:x="-1" s:y="10" s:pid="A"/><g s:x="27" s:y="10" s:pid="Y"/></g><g s:type="not" transform="translate(78,187)" s:width="30" s:height="20" id="cell_$not$gf180mcu_fd_sc_mcu7t5v0__sdffsnq.v:0$8"><s:alias val="$_NOT_"/><s:alias val="$not"/><s:alias val="$logic_not"/><path d="M0,0 L0,20 L20,10 Z" class="cell_$not$gf180mcu_fd_sc_mcu7t5v0__sdffsnq.v:0$8"/><circle cx="24" cy="10" r="3" class="cell_$not$gf180mcu_fd_sc_mcu7t5v0__sdffsnq.v:0$8"/><g s:x="-1" s:y="10" s:pid="A"/><g s:x="27" s:y="10" s:pid="Y"/></g><g s:type="not" transform="translate(78,252)" s:width="30" s:height="20" id="cell_$not$gf180mcu_fd_sc_mcu7t5v0__sdffsnq.v:0$9"><s:alias val="$_NOT_"/><s:alias val="$not"/><s:alias val="$logic_not"/><path d="M0,0 L0,20 L20,10 Z" class="cell_$not$gf180mcu_fd_sc_mcu7t5v0__sdffsnq.v:0$9"/><circle cx="24" cy="10" r="3" class="cell_$not$gf180mcu_fd_sc_mcu7t5v0__sdffsnq.v:0$9"/><g s:x="-1" s:y="10" s:pid="A"/><g s:x="27" s:y="10" s:pid="Y"/></g><g s:type="or" transform="translate(208,134.5)" s:width="30" s:height="25" id="cell_$or$gf180mcu_fd_sc_mcu7t5v0__sdffsnq.v:48$4"><s:alias val="$or"/><s:alias val="$logic_or"/><s:alias val="$_OR_"/><s:alias val="$reduce_or"/><s:alias val="$reduce_bool"/><path d="M0,0 A30 25 0 0 1 0,25 A30 25 0 0 0 30,12.5 A30 25 0 0 0 0,0" class="cell_$or$gf180mcu_fd_sc_mcu7t5v0__sdffsnq.v:48$4"/><g s:x="2" s:y="5" s:pid="A"/><g s:x="2" s:y="20" s:pid="B"/><g s:x="30" s:y="12.5" s:pid="Y"/></g><g s:type="or" transform="translate(279.3333333333333,142)" s:width="30" s:height="25" id="cell_$or$gf180mcu_fd_sc_mcu7t5v0__sdffsnq.v:48$5"><s:alias val="$or"/><s:alias val="$logic_or"/><s:alias val="$_OR_"/><s:alias val="$reduce_or"/><s:alias val="$reduce_bool"/><path d="M0,0 A30 25 0 0 1 0,25 A30 25 0 0 0 30,12.5 A30 25 0 0 0 0,0" class="cell_$or$gf180mcu_fd_sc_mcu7t5v0__sdffsnq.v:48$5"/><g s:x="2" s:y="5" s:pid="A"/><g s:x="2" s:y="20" s:pid="B"/><g s:x="30" s:y="12.5" s:pid="Y"/></g><g s:type="generic" transform="translate(369,104)" s:width="30" s:height="40" id="cell_x0"><text x="15" y="-4" class="nodelabel cell_x0" s:attribute="ref">udp_gf180mcu_fd_sc_mcu7t5v0_tt_25c_1v80_verilog_mgm_n_iq_ff_udp</text><rect width="30" height="100" s:generic="body" class="cell_x0"/><g transform="translate(0,10)" s:x="0" s:y="10" s:pid="in0" id="port_x0~C"><text x="-3" y="-4" class="inputPortLabel cell_x0">C</text></g><g transform="translate(0,30)" s:x="0" s:y="10" s:pid="in0" id="port_x0~CK"><text x="-3" y="-4" class="inputPortLabel cell_x0">CK</text></g><g transform="translate(0,50)" s:x="0" s:y="10" s:pid="in0" id="port_x0~D"><text x="-3" y="-4" class="inputPortLabel cell_x0">D</text></g><g transform="translate(0,70)" s:x="0" s:y="10" s:pid="in0" id="port_x0~N"><text x="-3" y="-4" class="inputPortLabel cell_x0">N</text></g><g transform="translate(0,90)" s:x="0" s:y="10" s:pid="in0" id="port_x0~P"><text x="-3" y="-4" class="inputPortLabel cell_x0">P</text></g><g transform="translate(30,10)" s:x="30" s:y="10" s:pid="out0" id="port_x0~Q"><text x="5" y="-4" style="fill:#000; stroke:none" class="cell_x0">Q</text></g></g><g s:type="inputExt" transform="translate(12,187)" s:width="30" s:height="20" id="cell_SE"><text x="15" y="-4" class="nodelabel cell_SE" s:attribute="ref">SE</text><s:alias val="$_inputExt_"/><path d="M0,0 L0,20 L15,20 L30,10 L15,0 Z" class="cell_SE"/><g s:x="30" s:y="10" s:pid="Y"/></g><g s:type="inputExt" transform="translate(12,252)" s:width="30" s:height="20" id="cell_SI"><text x="15" y="-4" class="nodelabel cell_SI" s:attribute="ref">SI</text><s:alias val="$_inputExt_"/><path d="M0,0 L0,20 L15,20 L30,10 L15,0 Z" class="cell_SI"/><g s:x="30" s:y="10" s:pid="Y"/></g><g s:type="inputExt" transform="translate(12,122)" s:width="30" s:height="20" id="cell_D"><text x="15" y="-4" class="nodelabel cell_D" s:attribute="ref">D</text><s:alias val="$_inputExt_"/><path d="M0,0 L0,20 L15,20 L30,10 L15,0 Z" class="cell_D"/><g s:x="30" s:y="10" s:pid="Y"/></g><g s:type="inputExt" transform="translate(273,87)" s:width="30" s:height="20" id="cell_CLK"><text x="15" y="-4" class="nodelabel cell_CLK" s:attribute="ref">CLK</text><s:alias val="$_inputExt_"/><path d="M0,0 L0,20 L15,20 L30,10 L15,0 Z" class="cell_CLK"/><g s:x="30" s:y="10" s:pid="Y"/></g><g s:type="inputExt" transform="translate(208,22)" s:width="30" s:height="20" id="cell_SETN"><text x="15" y="-4" class="nodelabel cell_SETN" s:attribute="ref">SETN</text><s:alias val="$_inputExt_"/><path d="M0,0 L0,20 L15,20 L30,10 L15,0 Z" class="cell_SETN"/><g s:x="30" s:y="10" s:pid="Y"/></g><g s:type="outputExt" transform="translate(508,104.5)" s:width="30" s:height="20" id="cell_Q"><text x="15" y="-4" class="nodelabel cell_Q" s:attribute="ref">Q</text><s:alias val="$_outputExt_"/><path d="M30,0 L30,20 L15,20 L0,10 L15,0 Z" class="cell_Q"/><g s:x="0" s:y="10" s:pid="A"/></g><g s:type="inputExt" transform="translate(273,212)" s:width="30" s:height="20" id="cell_notifier"><text x="15" y="-4" class="nodelabel cell_notifier" s:attribute="ref">notifier</text><s:alias val="$_inputExt_"/><path d="M0,0 L0,20 L15,20 L30,10 L15,0 Z" class="cell_notifier"/><g s:x="30" s:y="10" s:pid="Y"/></g><g s:type="constant" transform="translate(273,277)" s:width="30" s:height="20" id="cell_0"><text x="15" y="-4" class="nodelabel cell_0" s:attribute="ref">0</text><s:alias val="$_constant_"/><rect width="30" height="20" class="cell_0"/><g s:x="31" s:y="10" s:pid="Y"/></g><line x1="105" x2="143" y1="132" y2="132" class="net_9 width_1" style="stroke-width: 1"/><line x1="105" x2="128" y1="132" y2="132" class="net_9 width_1" style="stroke-width: 1"/><line x1="128" x2="128" y1="132" y2="247" class="net_9 width_1" style="stroke-width: 1"/><circle cx="128" cy="132" r="2" style="fill:#000" class="net_9 width_1"/><line x1="128" x2="143" y1="247" y2="247" class="net_9 width_1" style="stroke-width: 1"/><line x1="105" x2="118" y1="197" y2="197" class="net_10 width_1" style="stroke-width: 1"/><line x1="118" x2="118" y1="197" y2="147" class="net_10 width_1" style="stroke-width: 1"/><line x1="118" x2="143" y1="147" y2="147" class="net_10 width_1" style="stroke-width: 1"/><line x1="105" x2="143" y1="262" y2="262" class="net_12 width_1" style="stroke-width: 1"/><line x1="105" x2="118" y1="262" y2="262" class="net_12 width_1" style="stroke-width: 1"/><line x1="118" x2="118" y1="262" y2="277" class="net_12 width_1" style="stroke-width: 1"/><circle cx="118" cy="262" r="2" style="fill:#000" class="net_12 width_1"/><line x1="118" x2="208" y1="277" y2="277" class="net_12 width_1" style="stroke-width: 1"/><line x1="42" x2="52" y1="197" y2="197" class="net_2 width_1" style="stroke-width: 1"/><line x1="52" x2="52" y1="197" y2="288" class="net_2 width_1" style="stroke-width: 1"/><line x1="52" x2="183" y1="288" y2="288" class="net_2 width_1" style="stroke-width: 1"/><line x1="183" x2="183" y1="288" y2="292" class="net_2 width_1" style="stroke-width: 1"/><circle cx="52" cy="197" r="2" style="fill:#000" class="net_2 width_1"/><line x1="183" x2="208" y1="292" y2="292" class="net_2 width_1" style="stroke-width: 1"/><line x1="42" x2="77" y1="197" y2="197" class="net_2 width_1" style="stroke-width: 1"/><line x1="400" x2="442" y1="114.5" y2="114.5" class="net_15 width_1" style="stroke-width: 1"/><line x1="238" x2="281" y1="32" y2="32" class="net_6 width_1" style="stroke-width: 1"/><line x1="42" x2="77" y1="132" y2="132" class="net_4 width_1" style="stroke-width: 1"/><line x1="42" x2="77" y1="262" y2="262" class="net_3 width_1" style="stroke-width: 1"/><line x1="173" x2="210" y1="139.5" y2="139.5" class="net_11 width_1" style="stroke-width: 1"/><line x1="173" x2="183" y1="254.5" y2="254.5" class="net_13 width_1" style="stroke-width: 1"/><line x1="183" x2="183" y1="254.5" y2="154.5" class="net_13 width_1" style="stroke-width: 1"/><line x1="183" x2="210" y1="154.5" y2="154.5" class="net_13 width_1" style="stroke-width: 1"/><line x1="238" x2="281.3333333333333" y1="147" y2="147" class="net_17 width_1" style="stroke-width: 1"/><line x1="238" x2="248" y1="284.5" y2="284.5" class="net_14 width_1" style="stroke-width: 1"/><line x1="248" x2="248" y1="284.5" y2="162" class="net_14 width_1" style="stroke-width: 1"/><line x1="248" x2="281.3333333333333" y1="162" y2="162" class="net_14 width_1" style="stroke-width: 1"/><line x1="309" x2="341" y1="32" y2="32" class="net_16 width_1" style="stroke-width: 1"/><line x1="341" x2="341" y1="32" y2="114.5" class="net_16 width_1" style="stroke-width: 1"/><line x1="341" x2="369" y1="114.5" y2="114.5" class="net_16 width_1" style="stroke-width: 1"/><line x1="303" x2="331" y1="97" y2="97" class="net_5 width_1" style="stroke-width: 1"/><line x1="331" x2="331" y1="97" y2="134.5" class="net_5 width_1" style="stroke-width: 1"/><line x1="331" x2="369" y1="134.5" y2="134.5" class="net_5 width_1" style="stroke-width: 1"/><line x1="309.3333333333333" x2="369" y1="154.5" y2="154.5" class="net_18 width_1" style="stroke-width: 1"/><line x1="303" x2="331" y1="222" y2="222" class="net_8 width_1" style="stroke-width: 1"/><line x1="331" x2="331" y1="222" y2="174.5" class="net_8 width_1" style="stroke-width: 1"/><line x1="331" x2="369" y1="174.5" y2="174.5" class="net_8 width_1" style="stroke-width: 1"/><line x1="304" x2="341" y1="287" y2="287" class="net_19 width_1" style="stroke-width: 1"/><line x1="341" x2="341" y1="287" y2="194.5" class="net_19 width_1" style="stroke-width: 1"/><line x1="341" x2="369" y1="194.5" y2="194.5" class="net_19 width_1" style="stroke-width: 1"/><line x1="470" x2="508" y1="114.5" y2="114.5" class="net_7 width_1" style="stroke-width: 1"/></svg>